<svg width="190" height="32" viewBox="0 0 190 32" fill="none" xmlns="http://www.w3.org/2000/svg">
<g clip-path="url(#clip0_671_1931)">
<path d="M16.7616 31.7278V28.4738C16.7616 28.4738 3.27781 27.5792 2.71295 14.8008C2.1562 2.21706 19.5914 -3.537 27.9373 6.4576C27.9373 6.4576 23.694 -0.318073 14.6886 0.0116555C4.2697 0.395441 -0.397851 9.28732 0.0264728 16.6873C0.467014 24.3738 5.63727 31.7278 16.7643 31.7278H16.7616Z" fill="white"/>
<path d="M16.9454 26.9765L16.9563 24.4468C16.9563 24.4468 7.2049 23.49 6.71842 14.6522C6.21301 5.49546 19.5049 0.735989 25.5806 8.01167C25.5806 8.01167 22.4238 2.86843 15.8698 3.10897C8.28328 3.38735 4.15085 10.1198 4.46166 15.509C4.77247 20.8982 8.84815 26.9765 16.9509 26.9765H16.9454Z" fill="white"/>
<path d="M16.886 22.6576L16.9131 20.79C16.9131 20.79 10.9914 20.5711 10.6428 13.9333C10.3103 7.59813 19.3806 4.49543 23.5833 9.52786C23.5833 9.52786 21.3752 5.65219 16.8482 5.94408C11.1022 6.31435 8.59413 10.7954 8.83738 14.5198C9.12116 18.8306 11.9239 22.5252 16.886 22.6576Z" fill="white"/>
<path d="M33.9399 13.1116C32.7183 10.7386 29.3237 10.7386 28.1048 13.1143L18.5723 31.6765H22.1074L23.9939 27.7305H37.8669L39.7534 31.6197H43.4669L33.9426 13.1116H33.9399ZM26.4074 23.517L31.0183 14.4143L35.6318 23.517H26.4101H26.4074Z" fill="white"/>
<path d="M63.0104 11.3306H45.5942C45.0888 11.3306 44.6807 11.7387 44.6807 12.2414V30.5062C44.6807 31.1522 45.205 31.6765 45.8509 31.6765H46.7509C47.3996 31.6765 47.9212 31.1522 47.9212 30.5062V25.7279H63.0077C64.8374 25.7279 66.3266 24.2414 66.3266 22.4089V14.6495C66.3266 12.8143 64.8401 11.3306 63.0077 11.3306H63.0104ZM63.3023 21.5008H47.8888V15.3765H63.3023V21.5008Z" fill="white"/>
<path d="M74.8911 21.5008L89.283 31.3386H83.0154L71.8424 23.6144C71.537 23.4035 71.2884 23.1468 71.0992 22.8657V30.9657C71.0992 31.3576 70.783 31.6765 70.3884 31.6765H68.6424C68.2479 31.6765 67.9316 31.3576 67.9316 30.9657V12.0414C67.9316 11.6495 68.2479 11.3306 68.6424 11.3306H70.3884C70.783 11.3306 71.0992 11.6495 71.0992 12.0414V19.7603C71.2911 19.4711 71.5425 19.2116 71.856 18.9981L83.0911 11.3306H89.283L74.8911 21.5008Z" fill="white"/>
<path d="M145.918 21.5008L160.31 31.3386H154.043L142.87 23.6144C142.564 23.4035 142.316 23.1468 142.127 22.8657V30.9657C142.127 31.3576 141.81 31.6765 141.416 31.6765H139.67C139.275 31.6765 138.959 31.3576 138.959 30.9657V12.0414C138.959 11.6495 139.275 11.3306 139.67 11.3306H141.416C141.81 11.3306 142.127 11.6495 142.127 12.0414V19.7603C142.318 19.4711 142.57 19.2116 142.883 18.9981L154.118 11.3306H160.31L145.918 21.5008Z" fill="white"/>
<path d="M111.888 11.3306H92.1099C91.5694 11.3306 91.1318 11.7684 91.1318 12.3089V14.4333C91.1318 14.9738 91.5694 15.4116 92.1099 15.4116H100.24C100.237 15.4441 100.229 15.4765 100.229 15.5116V30.5603C100.229 31.1765 100.729 31.6765 101.345 31.6765H102.653C103.27 31.6765 103.77 31.1765 103.77 30.5603V15.5116C103.77 15.4765 103.761 15.4441 103.759 15.4116H111.888C112.429 15.4116 112.867 14.9738 112.867 14.4333V12.3089C112.867 11.7684 112.429 11.3306 111.888 11.3306Z" fill="white"/>
<path d="M117.551 28.5062V12.3765C117.551 11.7981 117.078 11.3306 116.497 11.3306H115.324C114.74 11.3306 114.27 11.7981 114.27 12.3765V28.1116C114.27 29.2522 114.721 30.3684 115.586 31.1224C116.713 32.1035 119.037 31.9819 121.121 29.2495C125.591 23.39 132.651 14.6765 132.651 14.6765L132.888 30.717C132.897 31.2116 133.302 31.6089 133.802 31.6089H135.161C135.667 31.6089 136.075 31.2035 136.075 30.7035V15.8252C136.075 14.8171 135.84 13.8116 135.329 12.9387C134.437 11.4144 132.87 9.83597 129.434 14.0549C124.302 20.3549 117.551 28.5035 117.551 28.5035V28.5062Z" fill="white"/>
<path d="M163.249 19.4738H155.313V22.7413H163.249V19.4738Z" fill="white"/>
<path d="M188.883 11.3981C188.467 11.0468 187.907 10.7738 187.18 10.7738C185.099 10.7738 183.437 14.8603 177.612 26.6684C171.788 14.8603 170.126 10.7738 168.045 10.7738C167.315 10.7738 166.758 11.0441 166.342 11.3981C165.642 11.99 165.277 12.8927 165.277 13.8116V30.4765C165.277 30.9062 165.626 31.2549 166.056 31.2549H167.504C167.934 31.2549 168.283 30.9062 168.283 30.4765V15.2819C168.283 15.2819 172.815 24.217 174.634 27.9062C176.453 31.5954 177.226 31.29 177.612 31.2819C178.096 31.2738 178.772 31.5954 180.591 27.9062C182.41 24.217 186.942 15.2819 186.942 15.2819V30.4765C186.942 30.9062 187.291 31.2549 187.721 31.2549H189.169C189.599 31.2549 189.948 30.9062 189.948 30.4765V13.8116C189.948 12.8927 189.585 11.99 188.883 11.3981Z" fill="white"/>
</g>
<defs>
<clipPath id="clip0_671_1931">
<rect width="190" height="31.8919" fill="white"/>
</clipPath>
</defs>
</svg>
