<svg width="144" height="56" viewBox="0 0 144 56" fill="none" xmlns="http://www.w3.org/2000/svg">
<g clip-path="url(#clip0_671_1703)">
<rect x="88" width="56" height="56" rx="28" fill="#FF5226"/>
<path d="M113.686 5L81 56H95.9836L114.866 26.6032L114.405 26.3942L109.17 47.431L120.253 49.3843L131.645 35.0668L131.027 34.7601L127.179 51.0231L151.328 46.4211L146.402 38.3072L137.698 40.2996L138.725 41.4813L142.778 24.4976L133.336 18.1846L120.972 33.7327L121.587 34.0413L126.666 13.6686L113.686 5Z" fill="#FFDD00"/>
</g>
<rect x="89.5" y="1.5" width="53" height="53" rx="26.5" stroke="#191A1F" stroke-width="3"/>
<rect x="45.5" y="1.5" width="53" height="53" rx="26.5" fill="url(#paint0_linear_671_1703)"/>
<rect x="45.5" y="1.5" width="53" height="53" rx="26.5" stroke="#191A1F" stroke-width="3"/>
<path d="M84.0507 22.5105C82.3971 22.5105 80.902 23.0129 79.627 23.8758V16H76.0997V30.5248C76.0997 34.9438 79.6658 38.5 84.0296 38.5C88.3934 38.5 92 34.9651 92 30.4839C92 26.0027 88.4727 22.5087 84.0489 22.5087L84.0507 22.5105ZM68.0412 31.551L64.8132 23.0733H62.3425L59.0952 31.551L55.8479 23.0733H52L57.6793 37.9798H60.1501L63.5576 29.1009L66.9846 37.9798H69.4553L75.1152 23.0733H71.2886L68.0412 31.551ZM84.0314 34.9456C81.6399 34.9456 79.627 33.0175 79.627 30.5052C79.627 27.993 81.5201 26.0862 84.0507 26.0862C86.5813 26.0862 88.4744 28.0747 88.4744 30.5052C88.4744 32.9358 86.4615 34.9456 84.0314 34.9456Z" fill="white"/>
<g clip-path="url(#clip1_671_1703)">
<rect width="56" height="56" rx="28" fill="#005BFF"/>
<path d="M-107.162 106.216C-102.982 102.832 -78.807 92.2886 -69.4637 84.7217C-68.6701 84.078 -67.9849 83.4367 -67.4058 82.8369C-65.6479 80.9728 -63.4839 77.6092 -61.3846 73.4497C-57.2066 65.2 -52.3827 53.9257 -46.3822 45.8051C-43.4039 41.754 -40.1464 38.4966 -36.566 36.8263C-36.1369 36.7179 -35.7516 37.0178 -35.7516 37.4469C-37.1243 43.5327 -42.4811 48.5274 -46.3822 52.6638C-49.296 55.7505 -51.5268 58.4497 -50.5602 59.9492C-49.5889 61.405 -47.215 59.068 -46.3822 58.2352C-40.6401 53.2844 -31.08 39.9546 -24.4151 34.2102C-23.4 33.3404 -21.9281 31.744 -20.9869 30.8027C-17.0235 26.2603 -14.4512 22.3384 -9.3712 17.8167C5.24358 4.78684 13.2604 4.91603 29.227 -7.59939C35.9565 -12.8709 41.8509 -18.1654 46.5225 -22.7724C53.3374 -29.5227 57.453 -34.8818 57.4092 -36.9604C57.4092 -37.4541 57.1739 -37.754 56.6802 -37.8602C56.551 -37.8809 55.9304 -37.731 55.5221 -37.4541C51.8563 -34.9903 46.9931 -29.3105 40.4136 -22.7748C36.6417 -19.0236 32.3115 -14.9748 27.3837 -11.0945C24.5161 -8.84977 21.4456 -6.89344 18.1904 -5.26471C-3.24153 5.51354 -13.443 9.60844 -22.5718 17.0231C-23.1162 17.466 -23.7322 17.7867 -24.3505 18.1166C-31.8943 21.6094 -40.361 29.497 -46.3822 35.9473C-49.7481 39.5693 -52.3412 42.7183 -53.5823 44.4324C-57.1189 49.3602 -63.7838 62.0048 -73.8146 73.4497C-82.9988 83.9465 -92.8704 90.9067 -105.319 97.131C-114.877 101.288 -118.669 105.851 -128.7 114.018C-130.292 115.305 -131.679 116.526 -133.436 118.069C-133.436 118.069 -133.457 118.069 -133.457 118.09C-136.371 120.653 -139.19 123.318 -142 125.991V131.544C-130.202 123.188 -120.718 119.257 -115.244 114.809C-112.242 112.309 -110.242 108.71 -107.164 106.216H-107.162Z" fill="#F1117E"/>
<path d="M-104.285 155.56C-103.106 154.995 -102.045 154.217 -101.148 153.267C-98.654 150.625 -94.679 147.172 -91.4862 145.179C-87.3221 142.576 -82.9734 137.591 -78.6039 133.448C-71.7683 127.92 -65.2949 121.608 -60.3764 114.295C-58.6646 111.896 -56.4384 109.891 -54.1614 108.038C-51.5845 105.923 -48.8992 103.925 -46.3822 101.738C-43.254 99.0803 -42.195 100.202 -23.4923 80.9497C-21.3076 78.7004 -19.6996 77.0947 -17.5795 75.5283C-16.5067 74.7993 -15.3717 74.0287 -14.2366 73.4497C-4.67879 68.4781 6.54471 67.5092 16.4325 63.2712C22.9659 60.2629 27.8936 54.7215 32.999 49.833C37.9844 45.0691 44.031 41.5717 49.7385 37.7675C56.8232 32.1107 63.562 25.6258 68.6419 18.0727C70.3537 15.6734 72.58 13.6664 74.857 11.8161C77.4339 9.70063 80.1192 7.70278 82.6361 5.51575C85.7644 2.8581 86.8233 3.97929 105.526 -15.2725C107.711 -17.5218 109.319 -19.1298 111.439 -20.694C112.512 -21.423 113.647 -22.1935 114.782 -22.7725C124.34 -27.7441 135.563 -28.713 145.451 -32.9533C151.984 -35.9593 156.912 -41.5007 162.017 -46.3892C167.003 -51.1531 173.049 -54.6505 178.757 -58.4547C185.842 -64.1115 192.58 -70.5964 197.658 -78.1495C199.372 -80.5488 201.598 -82.5559 203.875 -84.4061C204.526 -84.9413 205.183 -85.4673 205.843 -85.991H195.78C194.167 -84.2007 192.52 -82.2467 190.843 -80.0574C184.515 -72.2206 176.814 -64.5706 168.62 -58.7108C153.961 -48.4886 141.681 -38.6516 138.359 -38.5247C137.93 -38.5247 137.614 -38.8638 137.501 -39.2744C136.943 -41.2884 139.69 -43.863 141.508 -45.681C149.267 -53.3102 172.713 -64.8843 181.006 -76.5623C183.152 -79.6283 185.602 -82.7796 187.814 -85.991H179.28C177.889 -85.0613 176.487 -84.0785 175.22 -83.0565C173.356 -81.5523 172.189 -79.8059 170.869 -77.8288C166.262 -71.0763 156.017 -70.4765 141.102 -52.1336C137.125 -47.2797 132.05 -43.5839 126.764 -40.2826C120.464 -36.3815 115.319 -34.3029 110.133 -29.9934C108.717 -28.8146 105.632 -25.5801 105.503 -25.4302C104.412 -24.339 101.249 -23.6054 101.602 -26.0715C101.925 -27.7856 104.903 -31.0223 106.403 -33.8299C110.218 -40.3334 114.759 -47.5012 121.749 -50.9755C125.412 -52.798 129.12 -53.5039 133.944 -55.9263C142.313 -60.1112 148.743 -66.3516 154.988 -73.2425C156.575 -74.8298 158.003 -76.6084 159.447 -78.3225C162.984 -81.8592 167.96 -83.9193 172.701 -85.991H159.21C158.414 -85.5619 157.616 -85.1143 156.81 -84.6437C156.531 -84.473 152.524 -81.8799 151.045 -80.7218C148.125 -78.4679 145.898 -75.4826 143.202 -72.9842C135.637 -65.4195 122.563 -62.2059 114.782 -54.5975C105.032 -44.8481 99.5533 -34.9465 93.1375 -22.7748C89.9631 -16.9589 86.7264 -11.7128 82.6338 -6.4852C76.698 1.01482 69.5624 6.05098 61.8248 16.1671C55.4944 24.004 47.7937 31.6516 39.6016 37.5114C24.9406 47.7337 12.6605 57.5706 9.33847 57.6998C8.91168 57.6998 8.59563 57.3584 8.48257 56.9478C7.92429 54.9338 10.6696 52.3592 12.4898 50.5413C20.2482 42.912 43.6942 31.3379 51.9878 19.6599C55.123 15.182 58.9088 10.515 61.6541 5.75108C67.1193 -3.59223 70.3122 -7.59948 76.5065 -12.6587C78.6912 -14.4789 80.6821 -16.403 82.6338 -18.4885C84.1564 -20.1149 85.6352 -21.3168 86.9225 -22.7748C105.353 -43.8192 101.26 -48.8992 105.909 -52.9918C122.369 -67.1567 135.828 -71.9783 142.793 -77.6374C145.702 -80.0597 147.67 -83.511 150.586 -85.991H138.297C135.745 -83.8362 132.945 -81.3654 129.334 -78.4286C127.745 -77.1413 126.356 -75.921 124.598 -74.3799C124.598 -74.3799 124.577 -74.3799 124.577 -74.3568C118.168 -68.7185 112.219 -62.5912 105.803 -56.9552C103.918 -55.3495 100.082 -51.2131 96.9948 -42.9195C94.1665 -37.3689 89.4302 -34.1552 82.6361 -27.9194C82.0155 -27.3612 81.3927 -26.6529 80.7283 -26.0323C79.614 -24.9826 78.4559 -23.8891 77.4915 -22.7748C71.6618 -16.1746 67.9545 -8.95137 62.5123 -4.08593C61.2042 -2.73634 59.4855 -1.95889 57.9467 -1.1722C50.7881 2.32058 39.6223 4.65755 27.7921 11.5785C27.5129 11.7515 23.5057 14.3423 22.0269 15.5004C19.1063 17.7566 16.88 20.7419 14.1832 23.238C6.61853 30.8027 -6.45517 34.0163 -14.2366 41.6248C-23.986 51.3741 -29.4651 61.278 -35.8808 73.4497C-39.0552 79.2633 -42.2919 84.5094 -46.3822 89.737C-52.3204 97.237 -59.4559 102.273 -67.1936 112.389C-68.1579 113.582 -69.9712 114.959 -70.7025 115.492C-70.8571 115.605 -71.0047 115.73 -71.1501 115.854C-71.4823 116.136 -72.292 116.634 -73.7385 118.323C-75.4411 120.312 -80.6041 126.612 -81.0655 127.023C-83.7647 129.433 -86.5607 131.692 -89.4145 133.734C-104.075 143.956 -116.356 153.793 -119.678 153.922C-120.107 153.922 -120.42 153.581 -120.533 153.172C-121.092 151.158 -118.344 148.581 -116.526 146.763C-114.095 144.373 -110.127 141.598 -105.563 138.551C-105.176 138.292 -104.431 137.697 -103.662 137.118C-103.256 136.811 -102.827 136.534 -102.387 136.281C-100.705 135.312 -98.2872 133.346 -96.9422 132.234C-96.4393 131.819 -95.4473 130.543 -95.1289 130.151C-93.6801 128.358 -91.6315 127.355 -90.3811 126.875C-89.3545 126.48 -88.3879 125.954 -87.4928 125.32C-83.5086 122.499 -77.8957 117.52 -73.3832 110.756L-73.5009 111.026C-71.3231 108.066 -69.1268 105.042 -67.362 101.978C-61.8967 92.6346 -58.7039 88.6273 -52.5096 83.5681C-50.3249 81.7479 -48.3339 79.8239 -46.3799 77.7407C-44.8596 76.1119 -43.3808 74.9123 -42.0935 73.4543C-23.663 52.4076 -27.7556 47.3299 -23.107 43.2374C-6.64665 29.0701 6.81232 24.2485 13.7771 18.5918C16.7808 16.091 18.7787 12.4921 21.8585 9.99824C26.0365 6.61157 50.2114 -3.93137 59.557 -11.4983C60.3483 -12.1396 61.0358 -12.7833 61.6125 -13.3831C63.3705 -15.2495 65.5367 -18.613 67.6361 -22.7702C71.8141 -31.02 76.6357 -42.2943 82.6361 -50.4149C85.6168 -54.466 88.8742 -57.7234 92.4524 -59.396C92.8838 -59.5021 93.2667 -59.2022 93.2667 -58.7731C91.8964 -52.6873 86.5372 -47.6926 82.6361 -43.5585C79.7224 -40.4718 77.4939 -37.7726 78.4582 -36.2707C79.4294 -34.815 81.8033 -37.1543 82.6361 -37.9871C88.3805 -42.9379 97.9384 -56.2677 104.606 -62.0098C105.618 -62.8795 107.093 -64.476 108.034 -65.4172C111.999 -69.9597 114.569 -73.8839 119.649 -78.4056C123.23 -81.5962 126.414 -83.9977 129.417 -85.9887H116.51C112.768 -83.8478 109.547 -81.7138 106.449 -79.1969C105.904 -78.7539 105.286 -78.4333 104.67 -78.1057C97.1263 -74.6129 88.6597 -66.7253 82.6384 -60.275C79.2725 -56.653 76.6795 -53.5016 75.4383 -51.7875C71.9017 -46.8598 65.2368 -34.2152 55.206 -22.7702C46.0219 -12.2757 36.1503 -5.31556 23.6995 0.908699C14.1416 5.0682 10.3489 9.63142 0.318161 17.7959C-1.27136 19.0832 -2.66017 20.3036 -4.41811 21.8469C-4.41811 21.8469 -4.43886 21.8469 -4.43886 21.8677C-10.8477 27.5083 -16.7997 33.6356 -23.2131 39.2693C-25.1003 40.8773 -28.9345 45.0137 -32.0212 53.3073C-34.8496 58.858 -39.5858 62.0716 -46.3799 68.3074C-47.0028 68.8657 -47.6234 69.5716 -48.2878 70.1945C-49.4021 71.2442 -50.5602 72.3354 -51.5245 73.452C-57.3543 80.0523 -61.0616 87.2755 -66.5061 92.1386C-67.8142 93.4905 -69.5306 94.2656 -71.0716 95.0546C-77.3997 98.1437 -95.5049 106.227 -95.8464 106.387C-103.718 110.045 -106.973 112.756 -109.467 115.25C-112.069 117.855 -116.803 123.887 -119.523 125.189C-120.653 125.728 -136.094 131.597 -142 136.703V145.515C-140.408 144.023 -137.986 137.78 -124.123 131.74C-122.55 131.055 -120.914 130.525 -119.258 130.075C-115.382 129.025 -110.15 125.952 -107.349 123.779C-105.891 122.298 -104.463 120.768 -103.046 119.204C-101.459 117.617 -100.034 115.841 -98.5894 114.126C-93.8093 109.342 -86.3993 107.259 -80.5003 104.2C-76.493 101.413 -71.21 97.6131 -70.7279 99.9777C-70.7279 100.534 -71.2862 101.198 -72.1836 101.971C-74.5413 103.92 -79.2361 106.493 -82.8142 109.386C-84.6782 110.89 -85.8456 112.636 -87.1652 114.613C-88.7939 116.996 -91.124 118.614 -94.1161 120.519L-95.2696 121.043H-95.9617C-96.1255 121.043 -96.287 121.096 -96.4185 121.195L-96.6884 121.398L-96.7992 121.583C-96.956 121.843 -97.1775 122.06 -97.4405 122.212C-98.0288 122.549 -98.8847 123.08 -99.4084 123.527C-99.9044 123.952 -100.693 124.667 -101.275 125.198C-101.425 125.334 -101.579 125.461 -101.743 125.581C-103.203 126.651 -104.749 127.867 -106.382 129.286C-107.259 130.047 -108.228 130.7 -109.262 131.226C-110.373 131.791 -111.693 132.377 -113.015 132.753C-113.35 132.848 -114.228 132.905 -114.618 132.94C-115.497 133.016 -116.309 133.431 -116.911 134.075C-118.109 135.355 -118.789 136.74 -120.513 138.283C-122.734 140.274 -127.567 145.352 -130.41 148.104C-133.252 150.854 -138.68 156.314 -142 158.312V169.047C-132.726 164.608 -122.045 163.542 -112.584 159.489C-110.65 158.598 -106.666 156.697 -104.285 155.558V155.56ZM-27.4142 70.1461C-27.0889 68.432 -24.1129 65.1953 -22.6133 62.39C-18.7976 55.8866 -14.2574 48.721 -7.26723 45.2444C-3.60373 43.4242 0.103607 42.716 4.92752 40.2936C13.2973 36.1087 19.7268 29.8706 25.9719 22.9774C27.5591 21.3902 28.9871 19.6138 30.4313 17.8974C35.209 13.1196 42.6191 11.0341 48.5181 7.97732C52.5253 5.19048 57.8106 1.39086 58.2905 3.75322C58.2905 4.31151 57.7345 4.97592 56.8348 5.74645C54.477 7.69817 49.7846 10.2705 46.2042 13.1634C44.3401 14.6653 43.1728 16.414 41.8532 18.3911C37.2461 25.1413 27.0008 25.7411 12.0861 44.0863C8.10884 48.9402 3.03348 52.636 -2.25183 55.9373C-8.55222 59.8384 -13.6968 61.917 -18.8829 66.2242C-20.2994 67.403 -23.3839 70.6397 -23.5131 70.7897C-24.6043 71.8809 -27.7671 72.6145 -27.4142 70.1461Z" fill="#F1117E"/>
<path d="M218.496 -85.9931C215.585 -83.8476 213.047 -81.7828 211.651 -80.2095C211.172 -79.6904 210.858 -79.1367 210.366 -78.3662C205.072 -70.0726 197.613 -70.6516 183.128 -52.2211C180.943 -49.4573 178.371 -47.0557 175.434 -45.1271C166.518 -39.2327 163.239 -40.3701 146.417 -24.468C145.817 -23.9097 145.196 -23.3099 144.573 -22.7747C144.103 -22.3686 143.63 -21.9395 143.139 -21.5543C134.716 -15.0186 114.783 -1.15126 111.593 -2.13866C111.422 -2.20325 111.314 -2.37397 111.378 -2.56776C113.628 -10.5822 132.017 -17.6324 134.074 -20.6338C134.224 -20.8483 134.289 -21.492 133.431 -21.492C113.692 -21.8772 111.999 -6.2128 106.254 -0.941322C106.125 -0.855965 87.4801 10.5452 82.6354 16.0104C82.1555 16.5295 81.8418 17.0832 81.3504 17.8537C76.0559 26.1473 68.5974 25.5683 54.1118 43.9988C51.9271 46.7626 49.3548 49.1642 46.418 51.0928C37.5015 56.9872 34.2233 55.8498 17.4007 71.7519C16.8009 72.3102 16.1803 72.91 15.5574 73.4452C15.0868 73.8513 14.6138 74.2803 14.1225 74.6656C5.69963 81.2013 -14.2327 95.0686 -17.4233 94.0812C-17.594 94.0166 -17.7025 93.8459 -17.6379 93.6521C-15.3885 85.6377 3.00046 78.5875 5.05829 75.5861C5.20825 75.3716 5.27284 74.7279 4.41464 74.7279C-15.324 74.3426 -17.0173 90.0071 -22.7617 95.2786C-22.8909 95.3639 -41.5359 106.765 -46.3806 112.23C-46.8605 112.749 -47.1742 113.303 -47.6656 114.074C-52.9602 122.367 -60.4187 121.788 -74.9042 140.219C-77.089 142.982 -79.6613 145.384 -82.5981 147.313C-91.5146 153.207 -94.7928 152.07 -111.615 167.972C-112.215 168.53 -112.836 169.13 -113.459 169.665C-113.929 170.071 -114.402 170.5 -114.894 170.886C-121.402 175.936 -134.775 185.357 -141.996 188.931V188.991H-129.808C-127.086 187.662 -124.112 186.07 -120.853 184.088C-117.83 182.266 -114.979 180.167 -112.324 177.853C-108.637 174.639 -105.315 171.917 -102.53 169.665H-102.533C-88.4324 158.266 -84.0791 157.258 -73.4278 150.143C-70.2995 148.042 -67.4273 145.451 -64.9404 142.493C-58.9445 135.3 -52.9209 129.703 -46.3806 123.163C-39.019 115.804 -30.3494 109.85 -22.5264 102.954C-16.1614 97.9178 -7.1826 97.1888 8.1635 87.8662C11.1857 86.0437 14.0371 83.9443 16.6924 81.6304C20.379 78.4168 23.7011 75.6945 26.4856 73.4429C40.5859 62.0418 44.9392 61.0336 55.5906 53.9189C58.7189 51.8172 61.591 49.2265 64.078 46.2689C70.0738 39.0757 76.0974 33.479 82.6377 26.9386C89.9993 19.5793 98.669 13.625 106.492 6.72941C112.857 1.69325 121.836 0.964249 137.182 -8.35829C140.204 -10.1808 143.055 -12.2802 145.711 -14.5941C149.397 -17.8077 152.719 -20.53 155.504 -22.7816C169.607 -34.1827 173.958 -35.1909 184.609 -42.3056C187.737 -44.4073 190.609 -46.9981 193.096 -49.9556C199.092 -57.1488 205.116 -62.7456 211.656 -69.2859C217.749 -75.3763 224.734 -80.5048 231.397 -86H218.499L218.496 -85.9931Z" fill="#F1117E"/>
<path d="M7.27734 33.709C7.47165 35.1427 6.64975 36.5659 5.30268 37.1147C3.33066 37.9209 1.14332 36.6631 0.8571 34.5571C0.662786 33.1234 1.48468 31.7002 2.83175 31.1514C4.8064 30.3479 6.99112 31.6031 7.27734 33.709ZM3.10747 28.1605C-0.69741 28.7881 -2.96091 32.6954 -1.60333 36.2928C-0.600254 38.9528 2.21204 40.5704 5.02959 40.1082C8.83447 39.4806 11.098 35.5734 9.74039 31.9759C8.73469 29.3159 5.92502 27.6984 3.10747 28.1605Z" fill="white"/>
<path d="M21.6936 32.4719L16.9881 33.7323L20.9059 24.3159C21.0345 24.0035 20.7483 23.6831 20.4201 23.7698L11.7363 26.0963C10.8803 26.3247 10.4103 27.2753 10.8199 28.1051C11.1219 28.7116 11.8519 28.9873 12.5189 28.8088L16.3815 27.7742L12.4637 37.1984C12.3351 37.5083 12.6213 37.826 12.9469 37.7393L22.379 35.2106C23.0433 35.0321 23.5396 34.4308 23.4976 33.7507C23.4398 32.8264 22.5575 32.2382 21.6962 32.4692L21.6936 32.4719Z" fill="white"/>
<path d="M51.4684 16.911C51.24 16.0603 50.2737 15.606 49.4255 16.0287C48.8189 16.3333 48.5354 17.0397 48.7087 17.6857L49.9244 22.2258L40.8626 18.3815C40.5475 18.2476 40.2114 18.5338 40.298 18.8621L42.8083 28.2338C42.9817 28.8797 43.5803 29.3498 44.2578 29.3104C45.2031 29.2552 45.8123 28.3756 45.5865 27.5248L44.3602 22.9453L53.4221 26.7922C53.7372 26.9261 54.0733 26.6399 53.9866 26.3116L51.4658 16.9058L51.4684 16.911Z" fill="white"/>
<path d="M32.2444 29.9221C29.075 30.7702 26.2653 29.7593 25.8714 28.2914C25.4776 26.8209 27.4049 24.5417 30.5743 23.6935C33.7438 22.8454 36.5534 23.8563 36.9473 25.3242C37.3412 26.7947 35.4138 29.0739 32.2444 29.9221ZM29.8444 20.9679C25.257 22.1968 22.2399 25.8074 23.1064 29.0346C23.9703 32.2617 28.3896 33.8793 32.9744 32.6504C37.5618 31.4215 40.5789 27.8109 39.7124 24.5837C38.8484 21.3592 34.4291 19.739 29.8444 20.9679Z" fill="white"/>
</g>
<rect x="1.5" y="1.5" width="53" height="53" rx="26.5" stroke="#191A1F" stroke-width="3"/>
<defs>
<linearGradient id="paint0_linear_671_1703" x1="72" y1="0" x2="72" y2="56" gradientUnits="userSpaceOnUse">
<stop stop-color="#F20094"/>
<stop offset="1" stop-color="#9225E4"/>
</linearGradient>
<clipPath id="clip0_671_1703">
<rect x="88" width="56" height="56" rx="28" fill="white"/>
</clipPath>
<clipPath id="clip1_671_1703">
<rect width="56" height="56" rx="28" fill="white"/>
</clipPath>
</defs>
</svg>
