<svg width="1400" height="643" viewBox="0 0 1400 643" fill="none" xmlns="http://www.w3.org/2000/svg">
<g opacity="0.7" style="mix-blend-mode:soft-light">
<path d="M-97.879 0.226562L-129.026 0.226562C-131.843 0.226562 -134.126 2.50991 -134.126 5.32656V36.5372M-97.879 0.226562V36.5372M-97.879 0.226562L-61.632 0.226562M-97.879 36.5372L-134.126 36.5372M-97.879 36.5372L-97.879 72.8479M-97.879 36.5372L-61.632 36.5372M-134.126 36.5372V72.8479M-97.879 72.8479H-134.126M-97.879 72.8479V109.159M-97.879 72.8479L-61.632 72.8479M-134.126 72.8479L-134.126 109.159M-97.879 109.159H-134.126M-97.879 109.159L-97.879 145.469M-97.879 109.159L-61.632 109.159M-134.126 109.159V145.469M-97.879 145.469H-134.126M-97.879 145.469V181.78M-97.879 145.469H-61.632M-134.126 145.469V181.78M-97.879 181.78H-134.126M-97.879 181.78V218.091M-97.879 181.78H-61.632M-134.126 181.78V218.091M-97.879 218.091H-134.126M-97.879 218.091L-97.879 254.401M-97.879 218.091H-61.632M-134.126 218.091V254.401M-97.879 254.401H-134.126M-97.879 254.401L-97.879 290.712M-97.879 254.401H-61.632M-134.126 254.401L-134.126 290.712M-97.879 290.712H-134.126M-97.879 290.712V327.023M-97.879 290.712H-61.632M-134.126 290.712V327.023M-97.879 327.023H-134.126M-97.879 327.023V363.333M-97.879 327.023H-61.632M-134.126 327.023V363.333M-97.879 363.333H-134.126M-97.879 363.333V399.644M-97.879 363.333H-61.632M-134.126 363.333V399.644M-97.879 399.644H-134.126M-97.879 399.644L-97.879 435.955M-97.879 399.644H-61.632M-134.126 399.644V435.955M-97.879 435.955H-134.126M-97.879 435.955L-97.879 472.265M-97.879 435.955H-61.632M-134.126 435.955L-134.126 472.265M-97.879 472.265H-134.126M-97.879 472.265V508.576M-97.879 472.265H-61.632M-134.126 472.265V508.576M-97.879 508.576H-134.126M-97.879 508.576V544.887M-97.879 508.576H-61.632M-134.126 508.576V544.887M-97.879 544.887H-134.126M-97.879 544.887V581.198M-97.879 544.887H-61.632M-134.126 544.887V581.198M-97.879 581.198H-134.126M-97.879 581.198L-97.879 617.508M-97.879 581.198H-61.632M-134.126 581.198V617.508M-97.879 617.508H-134.126M-97.879 617.508L-97.879 653.819M-97.879 617.508H-61.632M-134.126 617.508L-134.126 653.819M-97.879 653.819H-134.126M-97.879 653.819V690.13M-97.879 653.819H-61.632M-134.126 653.819V690.13M-97.879 690.13H-134.126M-97.879 690.13V726.44M-97.879 690.13H-61.632M-134.126 690.13V721.34C-134.126 724.157 -131.843 726.44 -129.026 726.44H-97.879M-97.879 726.44H-61.632M-61.632 0.226562V36.5372M-61.632 0.226562L-25.385 0.226562M-61.632 36.5372L-61.632 72.8479M-61.632 36.5372H-25.385M-61.632 72.8479V109.159M-61.632 72.8479H-25.385M-61.632 109.159L-61.632 145.469M-61.632 109.159H-25.385M-61.632 145.469V181.78M-61.632 145.469L-25.385 145.469M-61.632 181.78V218.091M-61.632 181.78L-25.385 181.78M-61.632 218.091L-61.632 254.401M-61.632 218.091L-25.385 218.091M-61.632 254.401V290.712M-61.632 254.401L-25.385 254.401M-61.632 290.712L-61.632 327.023M-61.632 290.712H-25.385M-61.632 327.023V363.333M-61.632 327.023H-25.385M-61.632 363.333L-61.632 399.644M-61.632 363.333H-25.385M-61.632 399.644V435.955M-61.632 399.644H-25.385M-61.632 435.955V472.265M-61.632 435.955H-25.385M-61.632 472.265L-61.632 508.576M-61.632 472.265H-25.385M-61.632 508.576V544.887M-61.632 508.576H-25.385M-61.632 544.887L-61.632 581.198M-61.632 544.887H-25.385M-61.632 581.198V617.508M-61.632 581.198H-25.385M-61.632 617.508V653.819M-61.632 617.508H-25.385M-61.632 653.819L-61.632 690.13M-61.632 653.819H-25.385M-61.632 690.13V726.44M-61.632 690.13H-25.385M-61.632 726.44H-25.385M-25.385 0.226562V36.5372M-25.385 0.226562L10.862 0.226562M-25.385 36.5372L-25.385 72.8479M-25.385 36.5372L10.862 36.5372M-25.385 72.8479V109.159M-25.385 72.8479L10.862 72.8479M-25.385 109.159L-25.385 145.469M-25.385 109.159L10.862 109.159M-25.385 145.469V181.78M-25.385 145.469H10.862M-25.385 181.78V218.091M-25.385 181.78H10.862M-25.385 218.091L-25.385 254.401M-25.385 218.091H10.862M-25.385 254.401V290.712M-25.385 254.401H10.862M-25.385 290.712L-25.385 327.023M-25.385 290.712H10.862M-25.385 327.023V363.333M-25.385 327.023H10.862M-25.385 363.333L-25.385 399.644M-25.385 363.333H10.862M-25.385 399.644V435.955M-25.385 399.644H10.862M-25.385 435.955V472.265M-25.385 435.955H10.862M-25.385 472.265L-25.385 508.576M-25.385 472.265H10.862M-25.385 508.576V544.887M-25.385 508.576H10.862M-25.385 544.887L-25.385 581.198M-25.385 544.887H10.862M-25.385 581.198V617.508M-25.385 581.198H10.862M-25.385 617.508V653.819M-25.385 617.508H10.862M-25.385 653.819L-25.385 690.13M-25.385 653.819H10.862M-25.385 690.13V726.44M-25.385 690.13H10.862M-25.385 726.44H10.862M10.862 0.226562V36.5372M10.862 0.226562L47.109 0.226562M10.862 36.5372V72.8479M10.862 36.5372L47.109 36.5372M10.862 72.8479L10.862 109.159M10.862 72.8479H47.109M10.862 109.159V145.469M10.862 109.159H47.109M10.862 145.469V181.78M10.862 145.469H47.109M10.862 181.78V218.091M10.862 181.78H47.109M10.862 218.091V254.401M10.862 218.091H47.109M10.862 254.401L10.862 290.712M10.862 254.401H47.109M10.862 290.712V327.023M10.862 290.712L47.109 290.712M10.862 327.023V363.333M10.862 327.023L47.109 327.023M10.862 363.333V399.644M10.862 363.333L47.109 363.333M10.862 399.644V435.955M10.862 399.644L47.109 399.644M10.862 435.955L10.862 472.265M10.862 435.955L47.109 435.955M10.862 472.265V508.576M10.862 472.265L47.109 472.265M10.862 508.576V544.887M10.862 508.576L47.109 508.576M10.862 544.887V581.198M10.862 544.887H47.109M10.862 581.198V617.508M10.862 581.198H47.109M10.862 617.508L10.862 653.819M10.862 617.508H47.109M10.862 653.819V690.13M10.862 653.819H47.109M10.862 690.13V726.44M10.862 690.13H47.109M10.862 726.44H47.109M47.109 0.226562V36.5372M47.109 0.226562L83.3559 0.226562M47.109 36.5372V72.8479M47.109 36.5372L83.3559 36.5372M47.109 72.8479L47.109 109.159M47.109 72.8479H83.3559M47.109 109.159V145.469M47.109 109.159H83.3559M47.109 145.469V181.78M47.109 145.469H83.3559M47.109 181.78V218.091M47.109 181.78H83.3559M47.109 218.091V254.401M47.109 218.091H83.3559M47.109 254.401L47.109 290.712M47.109 254.401H83.3559M47.109 290.712V327.023M47.109 290.712H83.3559M47.109 327.023V363.333M47.109 327.023H83.3559M47.109 363.333V399.644M47.109 363.333H83.3559M47.109 399.644V435.955M47.109 399.644H83.3559M47.109 435.955L47.109 472.265M47.109 435.955H83.3559M47.109 472.265V508.576M47.109 472.265H83.3559M47.109 508.576V544.887M47.109 508.576H83.3559M47.109 544.887V581.198M47.109 544.887H83.3559M47.109 581.198V617.508M47.109 581.198H83.3559M47.109 617.508L47.109 653.819M47.109 617.508H83.3559M47.109 653.819V690.13M47.109 653.819H83.3559M47.109 690.13V726.44M47.109 690.13H83.3559M47.109 726.44H83.3559M83.3559 0.226562V36.5372M83.3559 0.226562L119.603 0.226562M83.3559 36.5372V72.8479M83.3559 36.5372L119.603 36.5372M83.3559 72.8479L83.3559 109.159M83.3559 72.8479L119.603 72.8479M83.3559 109.159V145.469M83.3559 109.159L119.603 109.159M83.3559 145.469V181.78M83.3559 145.469H119.603M83.3559 181.78V218.091M83.3559 181.78H119.603M83.3559 218.091V254.401M83.3559 218.091H119.603M83.3559 254.401L83.3559 290.712M83.3559 254.401H119.603M83.3559 290.712V327.023M83.3559 290.712H119.603M83.3559 327.023V363.333M83.3559 327.023H119.603M83.3559 363.333V399.644M83.3559 363.333H119.603M83.3559 399.644V435.955M83.3559 399.644H119.603M83.3559 435.955L83.3559 472.265M83.3559 435.955H119.603M83.3559 472.265V508.576M83.3559 472.265H119.603M83.3559 508.576V544.887M83.3559 508.576H119.603M83.3559 544.887V581.198M83.3559 544.887H119.603M83.3559 581.198V617.508M83.3559 581.198H119.603M83.3559 617.508L83.3559 653.819M83.3559 617.508H119.603M83.3559 653.819V690.13M83.3559 653.819H119.603M83.3559 690.13V726.44M83.3559 690.13H119.603M83.3559 726.44H119.603M119.603 0.226562V36.5372M119.603 0.226562L155.85 0.226562M119.603 36.5372V72.8479M119.603 36.5372L155.85 36.5372M119.603 72.8479L119.603 109.159M119.603 72.8479H155.85M119.603 109.159V145.469M119.603 109.159H155.85M119.603 145.469V181.78M119.603 145.469L155.85 145.469M119.603 181.78V218.091M119.603 181.78L155.85 181.78M119.603 218.091V254.401M119.603 218.091L155.85 218.091M119.603 254.401L119.603 290.712M119.603 254.401L155.85 254.401M119.603 290.712V327.023M119.603 290.712H155.85M119.603 327.023V363.333M119.603 327.023H155.85M119.603 363.333V399.644M119.603 363.333H155.85M119.603 399.644V435.955M119.603 399.644H155.85M119.603 435.955L119.603 472.265M119.603 435.955H155.85M119.603 472.265V508.576M119.603 472.265H155.85M119.603 508.576V544.887M119.603 508.576H155.85M119.603 544.887V581.198M119.603 544.887H155.85M119.603 581.198V617.508M119.603 581.198H155.85M119.603 617.508L119.603 653.819M119.603 617.508H155.85M119.603 653.819V690.13M119.603 653.819H155.85M119.603 690.13V726.44M119.603 690.13H155.85M119.603 726.44H155.85M155.85 0.226562V36.5372M155.85 0.226562L192.097 0.226562M155.85 36.5372V72.8479M155.85 36.5372H192.097M155.85 72.8479V109.159M155.85 72.8479L192.097 72.8479M155.85 109.159V145.469M155.85 109.159L192.097 109.159M155.85 145.469L155.85 181.78M155.85 145.469H192.097M155.85 181.78V218.091M155.85 181.78H192.097M155.85 218.091V254.401M155.85 218.091H192.097M155.85 254.401V290.712M155.85 254.401H192.097M155.85 290.712V327.023M155.85 290.712H192.097M155.85 327.023V363.333M155.85 327.023H192.097M155.85 363.333V399.644M155.85 363.333H192.097M155.85 399.644V435.955M155.85 399.644H192.097M155.85 435.955V472.265M155.85 435.955H192.097M155.85 472.265V508.576M155.85 472.265H192.097M155.85 508.576L155.85 544.887M155.85 508.576H192.097M155.85 544.887V581.198M155.85 544.887H192.097M155.85 581.198V617.508M155.85 581.198H192.097M155.85 617.508V653.819M155.85 617.508H192.097M155.85 653.819V690.13M155.85 653.819H192.097M155.85 690.13V726.44M155.85 690.13H192.097M155.85 726.44H192.097M192.097 0.226562V36.5372M192.097 0.226562L228.344 0.226562M192.097 36.5372V72.8479M192.097 36.5372L228.344 36.5372M192.097 72.8479V109.159M192.097 72.8479H228.344M192.097 109.159V145.469M192.097 109.159H228.344M192.097 145.469L192.097 181.78M192.097 145.469H228.344M192.097 181.78V218.091M192.097 181.78H228.344M192.097 218.091V254.401M192.097 218.091H228.344M192.097 254.401V290.712M192.097 254.401H228.344M192.097 290.712V327.023M192.097 290.712H228.344M192.097 327.023V363.333M192.097 327.023H228.344M192.097 363.333V399.644M192.097 363.333H228.344M192.097 399.644V435.955M192.097 399.644H228.344M192.097 435.955V472.265M192.097 435.955H228.344M192.097 472.265V508.576M192.097 472.265H228.344M192.097 508.576L192.097 544.887M192.097 508.576H228.344M192.097 544.887V581.198M192.097 544.887L228.344 544.887M192.097 581.198V617.508M192.097 581.198L228.344 581.198M192.097 617.508V653.819M192.097 617.508L228.344 617.508M192.097 653.819V690.13M192.097 653.819L228.344 653.819M192.097 690.13V726.44M192.097 690.13L228.344 690.13M192.097 726.44L228.344 726.44M228.344 0.226562V36.5372M228.344 0.226562L264.591 0.226562M228.344 36.5372V72.8479M228.344 36.5372L264.591 36.5372M228.344 72.8479V109.159M228.344 72.8479L264.591 72.8479M228.344 109.159V145.469M228.344 109.159L264.591 109.159M228.344 145.469L228.344 181.78M228.344 145.469H264.591M228.344 181.78V218.091M228.344 181.78H264.591M228.344 218.091V254.401M228.344 218.091H264.591M228.344 254.401V290.712M228.344 254.401H264.591M228.344 290.712V327.023M228.344 290.712H264.591M228.344 327.023V363.333M228.344 327.023H264.591M228.344 363.333V399.644M228.344 363.333H264.591M228.344 399.644V435.955M228.344 399.644H264.591M228.344 435.955V472.265M228.344 435.955H264.591M228.344 472.265V508.576M228.344 472.265H264.591M228.344 508.576L228.344 544.887M228.344 508.576H264.591M228.344 544.887V581.198M228.344 544.887H264.591M228.344 581.198V617.508M228.344 581.198H264.591M228.344 617.508V653.819M228.344 617.508H264.591M228.344 653.819V690.13M228.344 653.819H264.591M228.344 690.13V726.44M228.344 690.13H264.591M228.344 726.44H264.591M264.591 0.226562V36.5372M264.591 0.226562L300.838 0.226562M264.591 36.5372V72.8479M264.591 36.5372L300.838 36.5372M264.591 72.8479V109.159M264.591 72.8479H300.838M264.591 109.159V145.469M264.591 109.159H300.838M264.591 145.469L264.591 181.78M264.591 145.469H300.838M264.591 181.78V218.091M264.591 181.78H300.838M264.591 218.091V254.401M264.591 218.091H300.838M264.591 254.401V290.712M264.591 254.401H300.838M264.591 290.712V327.023M264.591 290.712H300.838M264.591 327.023V363.333M264.591 327.023H300.838M264.591 363.333V399.644M264.591 363.333H300.838M264.591 399.644V435.955M264.591 399.644H300.838M264.591 435.955V472.265M264.591 435.955H300.838M264.591 472.265V508.576M264.591 472.265H300.838M264.591 508.576L264.591 544.887M264.591 508.576H300.838M264.591 544.887V581.198M264.591 544.887H300.838M264.591 581.198V617.508M264.591 581.198H300.838M264.591 617.508V653.819M264.591 617.508H300.838M264.591 653.819V690.13M264.591 653.819H300.838M264.591 690.13V726.44M264.591 690.13H300.838M264.591 726.44H300.838M300.838 0.226562V36.5372M300.838 0.226562L337.085 0.226562M300.838 36.5372V72.8479M300.838 36.5372L337.085 36.5372M300.838 72.8479V109.159M300.838 72.8479H337.085M300.838 109.159V145.469M300.838 109.159H337.085M300.838 145.469L300.838 181.78M300.838 145.469L337.085 145.469M300.838 181.78V218.091M300.838 181.78L337.085 181.78M300.838 218.091V254.401M300.838 218.091L337.085 218.091M300.838 254.401V290.712M300.838 254.401L337.085 254.401M300.838 290.712V327.023M300.838 290.712H337.085M300.838 327.023V363.333M300.838 327.023H337.085M300.838 363.333V399.644M300.838 363.333H337.085M300.838 399.644V435.955M300.838 399.644H337.085M300.838 435.955V472.265M300.838 435.955H337.085M300.838 472.265V508.576M300.838 472.265H337.085M300.838 508.576L300.838 544.887M300.838 508.576H337.085M300.838 544.887V581.198M300.838 544.887H337.085M300.838 581.198V617.508M300.838 581.198H337.085M300.838 617.508V653.819M300.838 617.508H337.085M300.838 653.819V690.13M300.838 653.819H337.085M300.838 690.13V726.44M300.838 690.13H337.085M300.838 726.44H337.085M337.085 0.226562V36.5372M337.085 0.226562L373.332 0.226562M337.085 36.5372V72.8479M337.085 36.5372H373.332M337.085 72.8479V109.159M337.085 72.8479L373.332 72.8479M337.085 109.159V145.469M337.085 109.159L373.332 109.159M337.085 145.469L337.085 181.78M337.085 145.469H373.332M337.085 181.78V218.091M337.085 181.78H373.332M337.085 218.091V254.401M337.085 218.091H373.332M337.085 254.401V290.712M337.085 254.401H373.332M337.085 290.712V327.023M337.085 290.712H373.332M337.085 327.023V363.333M337.085 327.023H373.332M337.085 363.333V399.644M337.085 363.333H373.332M337.085 399.644V435.955M337.085 399.644H373.332M337.085 435.955V472.265M337.085 435.955H373.332M337.085 472.265V508.576M337.085 472.265H373.332M337.085 508.576L337.085 544.887M337.085 508.576H373.332M337.085 544.887V581.198M337.085 544.887H373.332M337.085 581.198V617.508M337.085 581.198H373.332M337.085 617.508V653.819M337.085 617.508H373.332M337.085 653.819V690.13M337.085 653.819H373.332M337.085 690.13V726.44M337.085 690.13H373.332M337.085 726.44H373.332M373.332 0.226562V36.5372M373.332 0.226562L409.579 0.226562M373.332 36.5372V72.8479M373.332 36.5372L409.579 36.5372M373.332 72.8479V109.159M373.332 72.8479H409.579M373.332 109.159V145.469M373.332 109.159H409.579M373.332 145.469L373.332 181.78M373.332 145.469H409.579M373.332 181.78V218.091M373.332 181.78H409.579M373.332 218.091V254.401M373.332 218.091H409.579M373.332 254.401V290.712M373.332 254.401H409.579M373.332 290.712V327.023M373.332 290.712L409.579 290.712M373.332 327.023V363.333M373.332 327.023L409.579 327.023M373.332 363.333V399.644M373.332 363.333L409.579 363.333M373.332 399.644V435.955M373.332 399.644L409.579 399.644M373.332 435.955V472.265M373.332 435.955L409.579 435.955M373.332 472.265V508.576M373.332 472.265L409.579 472.265M373.332 508.576L373.332 544.887M373.332 508.576L409.579 508.576M373.332 544.887V581.198M373.332 544.887H409.579M373.332 581.198V617.508M373.332 581.198H409.579M373.332 617.508V653.819M373.332 617.508H409.579M373.332 653.819V690.13M373.332 653.819H409.579M373.332 690.13V726.44M373.332 690.13H409.579M373.332 726.44H409.579M409.579 0.226562V36.5372M409.579 0.226562L445.826 0.226562M409.579 36.5372V72.8479M409.579 36.5372L445.826 36.5372M409.579 72.8479V109.159M409.579 72.8479L445.826 72.8479M409.579 109.159V145.469M409.579 109.159L445.826 109.159M409.579 145.469V181.78M409.579 145.469H445.826M409.579 181.78V218.091M409.579 181.78H445.826M409.579 218.091V254.401M409.579 218.091H445.826M409.579 254.401V290.712M409.579 254.401H445.826M409.579 290.712V327.023M409.579 290.712H445.826M409.579 327.023L409.579 363.333M409.579 327.023H445.826M409.579 363.333V399.644M409.579 363.333H445.826M409.579 399.644V435.955M409.579 399.644H445.826M409.579 435.955V472.265M409.579 435.955H445.826M409.579 472.265V508.576M409.579 472.265H445.826M409.579 508.576V544.887M409.579 508.576H445.826M409.579 544.887V581.198M409.579 544.887H445.826M409.579 581.198V617.508M409.579 581.198H445.826M409.579 617.508V653.819M409.579 617.508H445.826M409.579 653.819V690.13M409.579 653.819H445.826M409.579 690.13V726.44M409.579 690.13H445.826M409.579 726.44H445.826M445.826 0.226562V36.5372M445.826 0.226562L482.073 0.226562M445.826 36.5372V72.8479M445.826 36.5372L482.073 36.5372M445.826 72.8479V109.159M445.826 72.8479H482.073M445.826 109.159V145.469M445.826 109.159H482.073M445.826 145.469V181.78M445.826 145.469H482.073M445.826 181.78V218.091M445.826 181.78H482.073M445.826 218.091V254.401M445.826 218.091H482.073M445.826 254.401V290.712M445.826 254.401H482.073M445.826 290.712V327.023M445.826 290.712H482.073M445.826 327.023L445.826 363.333M445.826 327.023H482.073M445.826 363.333V399.644M445.826 363.333H482.073M445.826 399.644V435.955M445.826 399.644H482.073M445.826 435.955V472.265M445.826 435.955H482.073M445.826 472.265V508.576M445.826 472.265H482.073M445.826 508.576V544.887M445.826 508.576H482.073M445.826 544.887V581.198M445.826 544.887H482.073M445.826 581.198V617.508M445.826 581.198H482.073M445.826 617.508V653.819M445.826 617.508H482.073M445.826 653.819V690.13M445.826 653.819H482.073M445.826 690.13V726.44M445.826 690.13H482.073M445.826 726.44H482.073M482.073 0.226562V36.5372M482.073 0.226562L518.32 0.226562M482.073 36.5372V72.8479M482.073 36.5372L518.32 36.5372M482.073 72.8479V109.159M482.073 72.8479H518.32M482.073 109.159V145.469M482.073 109.159H518.32M482.073 145.469V181.78M482.073 145.469L518.32 145.469M482.073 181.78V218.091M482.073 181.78L518.32 181.78M482.073 218.091V254.401M482.073 218.091L518.32 218.091M482.073 254.401V290.712M482.073 254.401L518.32 254.401M482.073 290.712V327.023M482.073 290.712H518.32M482.073 327.023L482.073 363.333M482.073 327.023H518.32M482.073 363.333V399.644M482.073 363.333H518.32M482.073 399.644V435.955M482.073 399.644H518.32M482.073 435.955V472.265M482.073 435.955H518.32M482.073 472.265V508.576M482.073 472.265H518.32M482.073 508.576V544.887M482.073 508.576H518.32M482.073 544.887V581.198M482.073 544.887H518.32M482.073 581.198V617.508M482.073 581.198H518.32M482.073 617.508V653.819M482.073 617.508H518.32M482.073 653.819V690.13M482.073 653.819H518.32M482.073 690.13V726.44M482.073 690.13H518.32M482.073 726.44H518.32M518.32 0.226562V36.5372M518.32 0.226562L554.567 0.226562M518.32 36.5372V72.8479M518.32 36.5372L554.567 36.5372M518.32 72.8479V109.159M518.32 72.8479L554.567 72.8479M518.32 109.159V145.469M518.32 109.159L554.567 109.159M518.32 145.469V181.78M518.32 145.469H554.567M518.32 181.78V218.091M518.32 181.78H554.567M518.32 218.091V254.401M518.32 218.091H554.567M518.32 254.401V290.712M518.32 254.401H554.567M518.32 290.712V327.023M518.32 290.712H554.567M518.32 327.023L518.32 363.333M518.32 327.023H554.567M518.32 363.333V399.644M518.32 363.333H554.567M518.32 399.644V435.955M518.32 399.644H554.567M518.32 435.955V472.265M518.32 435.955H554.567M518.32 472.265V508.576M518.32 472.265H554.567M518.32 508.576V544.887M518.32 508.576H554.567M518.32 544.887V581.198M518.32 544.887H554.567M518.32 581.198V617.508M518.32 581.198H554.567M518.32 617.508V653.819M518.32 617.508H554.567M518.32 653.819V690.13M518.32 653.819H554.567M518.32 690.13V726.44M518.32 690.13H554.567M518.32 726.44H554.567M554.567 0.226562V36.5372M554.567 0.226562L590.814 0.226562M554.567 36.5372V72.8479M554.567 36.5372H590.814M554.567 72.8479V109.159M554.567 72.8479H590.814M554.567 109.159V145.469M554.567 109.159H590.814M554.567 145.469V181.78M554.567 145.469H590.814M554.567 181.78V218.091M554.567 181.78H590.814M554.567 218.091V254.401M554.567 218.091H590.814M554.567 254.401V290.712M554.567 254.401H590.814M554.567 290.712V327.023M554.567 290.712H590.814M554.567 327.023L554.567 363.333M554.567 327.023H590.814M554.567 363.333V399.644M554.567 363.333H590.814M554.567 399.644V435.955M554.567 399.644H590.814M554.567 435.955V472.265M554.567 435.955H590.814M554.567 472.265V508.576M554.567 472.265H590.814M554.567 508.576V544.887M554.567 508.576H590.814M554.567 544.887V581.198M554.567 544.887H590.814M554.567 581.198V617.508M554.567 581.198H590.814M554.567 617.508V653.819M554.567 617.508H590.814M554.567 653.819V690.13M554.567 653.819H590.814M554.567 690.13V726.44M554.567 690.13H590.814M554.567 726.44H590.814M590.814 0.226562V36.5372M590.814 0.226562L627.061 0.226562M590.814 36.5372V72.8479M590.814 36.5372L627.061 36.5372M590.814 72.8479V109.159M590.814 72.8479L627.061 72.8479M590.814 109.159V145.469M590.814 109.159L627.061 109.159M590.814 145.469V181.78M590.814 145.469H627.061M590.814 181.78V218.091M590.814 181.78H627.061M590.814 218.091V254.401M590.814 218.091H627.061M590.814 254.401V290.712M590.814 254.401H627.061M590.814 290.712V327.023M590.814 290.712H627.061M590.814 327.023L590.814 363.333M590.814 327.023H627.061M590.814 363.333V399.644M590.814 363.333H627.061M590.814 399.644V435.955M590.814 399.644H627.061M590.814 435.955V472.265M590.814 435.955H627.061M590.814 472.265V508.576M590.814 472.265H627.061M590.814 508.576V544.887M590.814 508.576H627.061M590.814 544.887V581.198M590.814 544.887H627.061M590.814 581.198V617.508M590.814 581.198H627.061M590.814 617.508V653.819M590.814 617.508H627.061M590.814 653.819V690.13M590.814 653.819H627.061M590.814 690.13V726.44M590.814 690.13H627.061M590.814 726.44H627.061M627.061 0.226562V36.5372M627.061 0.226562L663.308 0.226562M627.061 36.5372V72.8479M627.061 36.5372L663.308 36.5372M627.061 72.8479V109.159M627.061 72.8479H663.308M627.061 109.159V145.469M627.061 109.159H663.308M627.061 145.469V181.78M627.061 145.469L663.308 145.469M627.061 181.78V218.091M627.061 181.78L663.308 181.78M627.061 218.091V254.401M627.061 218.091L663.308 218.091M627.061 254.401V290.712M627.061 254.401L663.308 254.401M627.061 290.712V327.023M627.061 290.712H663.308M627.061 327.023L627.061 363.333M627.061 327.023H663.308M627.061 363.333V399.644M627.061 363.333H663.308M627.061 399.644V435.955M627.061 399.644H663.308M627.061 435.955V472.265M627.061 435.955H663.308M627.061 472.265V508.576M627.061 472.265H663.308M627.061 508.576V544.887M627.061 508.576H663.308M627.061 544.887V581.198M627.061 544.887H663.308M627.061 581.198V617.508M627.061 581.198H663.308M627.061 617.508V653.819M627.061 617.508H663.308M627.061 653.819V690.13M627.061 653.819H663.308M627.061 690.13V726.44M627.061 690.13H663.308M627.061 726.44H663.308M663.308 0.226562V36.5372M663.308 0.226562L699.555 0.226562M663.308 36.5372V72.8479M663.308 36.5372L699.555 36.5372M663.308 72.8479V109.159M663.308 72.8479H699.555M663.308 109.159V145.469M663.308 109.159H699.555M663.308 145.469V181.78M663.308 145.469H699.555M663.308 181.78V218.091M663.308 181.78H699.555M663.308 218.091V254.401M663.308 218.091H699.555M663.308 254.401V290.712M663.308 254.401H699.555M663.308 290.712V327.023M663.308 290.712H699.555M663.308 327.023L663.308 363.333M663.308 327.023H699.555M663.308 363.333V399.644M663.308 363.333H699.555M663.308 399.644V435.955M663.308 399.644H699.555M663.308 435.955V472.265M663.308 435.955H699.555M663.308 472.265V508.576M663.308 472.265H699.555M663.308 508.576V544.887M663.308 508.576H699.555M663.308 544.887V581.198M663.308 544.887H699.555M663.308 581.198V617.508M663.308 581.198H699.555M663.308 617.508V653.819M663.308 617.508H699.555M663.308 653.819V690.13M663.308 653.819H699.555M663.308 690.13V726.44M663.308 690.13H699.555M663.308 726.44H699.555M699.555 0.226562V36.5372M699.555 0.226562L735.802 0.226562M699.555 36.5372V72.8479M699.555 36.5372L735.802 36.5372M699.555 72.8479V109.159M699.555 72.8479L735.802 72.8479M699.555 109.159V145.469M699.555 109.159L735.802 109.159M699.555 145.469V181.78M699.555 145.469H735.802M699.555 181.78V218.091M699.555 181.78H735.802M699.555 218.091V254.401M699.555 218.091H735.802M699.555 254.401V290.712M699.555 254.401H735.802M699.555 290.712V327.023M699.555 290.712H735.802M699.555 327.023L699.555 363.333M699.555 327.023H735.802M699.555 363.333V399.644M699.555 363.333H735.802M699.555 399.644V435.955M699.555 399.644H735.802M699.555 435.955V472.265M699.555 435.955H735.802M699.555 472.265V508.576M699.555 472.265H735.802M699.555 508.576V544.887M699.555 508.576H735.802M699.555 544.887V581.198M699.555 544.887H735.802M699.555 581.198V617.508M699.555 581.198H735.802M699.555 617.508V653.819M699.555 617.508H735.802M699.555 653.819V690.13M699.555 653.819H735.802M699.555 690.13V726.44M699.555 690.13H735.802M699.555 726.44H735.802M735.802 0.226562V36.5372M735.802 0.226562L772.049 0.226562M735.802 36.5372V72.8479M735.802 36.5372L772.049 36.5372M735.802 72.8479V109.159M735.802 72.8479H772.049M735.802 109.159V145.469M735.802 109.159H772.049M735.802 145.469V181.78M735.802 145.469H772.049M735.802 181.78V218.091M735.802 181.78H772.049M735.802 218.091V254.401M735.802 218.091H772.049M735.802 254.401V290.712M735.802 254.401H772.049M735.802 290.712V327.023M735.802 290.712L772.049 290.712M735.802 327.023L735.802 363.333M735.802 327.023L772.049 327.023M735.802 363.333V399.644M735.802 363.333L772.049 363.333M735.802 399.644V435.955M735.802 399.644L772.049 399.644M735.802 435.955V472.265M735.802 435.955L772.049 435.955M735.802 472.265V508.576M735.802 472.265L772.049 472.265M735.802 508.576V544.887M735.802 508.576L772.049 508.576M735.802 544.887V581.198M735.802 544.887H772.049M735.802 581.198V617.508M735.802 581.198H772.049M735.802 617.508V653.819M735.802 617.508H772.049M735.802 653.819V690.13M735.802 653.819H772.049M735.802 690.13V726.44M735.802 690.13H772.049M735.802 726.44H772.049M772.049 0.226562V36.5372M772.049 0.226562L808.296 0.226562M772.049 36.5372V72.8479M772.049 36.5372H808.296M772.049 72.8479V109.159M772.049 72.8479L808.296 72.8479M772.049 109.159V145.469M772.049 109.159L808.296 109.159M772.049 145.469V181.78M772.049 145.469H808.296M772.049 181.78V218.091M772.049 181.78H808.296M772.049 218.091V254.401M772.049 218.091H808.296M772.049 254.401V290.712M772.049 254.401H808.296M772.049 290.712V327.023M772.049 290.712H808.296M772.049 327.023L772.049 363.333M772.049 327.023H808.296M772.049 363.333V399.644M772.049 363.333H808.296M772.049 399.644V435.955M772.049 399.644H808.296M772.049 435.955V472.265M772.049 435.955H808.296M772.049 472.265V508.576M772.049 472.265H808.296M772.049 508.576V544.887M772.049 508.576H808.296M772.049 544.887V581.198M772.049 544.887H808.296M772.049 581.198V617.508M772.049 581.198H808.296M772.049 617.508V653.819M772.049 617.508H808.296M772.049 653.819V690.13M772.049 653.819H808.296M772.049 690.13V726.44M772.049 690.13H808.296M772.049 726.44H808.296M808.296 0.226562V36.5372M808.296 0.226562L844.543 0.226562M808.296 36.5372V72.8479M808.296 36.5372L844.543 36.5372M808.296 72.8479V109.159M808.296 72.8479H844.543M808.296 109.159V145.469M808.296 109.159H844.543M808.296 145.469V181.78M808.296 145.469L844.543 145.469M808.296 181.78V218.091M808.296 181.78L844.543 181.78M808.296 218.091V254.401M808.296 218.091L844.543 218.091M808.296 254.401V290.712M808.296 254.401L844.543 254.401M808.296 290.712V327.023M808.296 290.712H844.543M808.296 327.023L808.296 363.333M808.296 327.023H844.543M808.296 363.333V399.644M808.296 363.333H844.543M808.296 399.644V435.955M808.296 399.644H844.543M808.296 435.955V472.265M808.296 435.955H844.543M808.296 472.265V508.576M808.296 472.265H844.543M808.296 508.576V544.887M808.296 508.576H844.543M808.296 544.887V581.198M808.296 544.887H844.543M808.296 581.198V617.508M808.296 581.198H844.543M808.296 617.508V653.819M808.296 617.508H844.543M808.296 653.819V690.13M808.296 653.819H844.543M808.296 690.13V726.44M808.296 690.13H844.543M808.296 726.44H844.543M844.543 0.226562V36.5372M844.543 0.226562L880.79 0.226562M844.543 36.5372V72.8479M844.543 36.5372L880.79 36.5372M844.543 72.8479V109.159M844.543 72.8479H880.79M844.543 109.159V145.469M844.543 109.159H880.79M844.543 145.469V181.78M844.543 145.469H880.79M844.543 181.78V218.091M844.543 181.78H880.79M844.543 218.091V254.401M844.543 218.091H880.79M844.543 254.401V290.712M844.543 254.401H880.79M844.543 290.712V327.023M844.543 290.712H880.79M844.543 327.023L844.543 363.333M844.543 327.023H880.79M844.543 363.333V399.644M844.543 363.333H880.79M844.543 399.644V435.955M844.543 399.644H880.79M844.543 435.955V472.265M844.543 435.955H880.79M844.543 472.265V508.576M844.543 472.265H880.79M844.543 508.576V544.887M844.543 508.576H880.79M844.543 544.887V581.198M844.543 544.887H880.79M844.543 581.198V617.508M844.543 581.198H880.79M844.543 617.508V653.819M844.543 617.508H880.79M844.543 653.819V690.13M844.543 653.819H880.79M844.543 690.13V726.44M844.543 690.13H880.79M844.543 726.44H880.79M880.79 0.226562V36.5372M880.79 0.226562L917.037 0.226562M880.79 36.5372V72.8479M880.79 36.5372L917.037 36.5372M880.79 72.8479V109.159M880.79 72.8479L917.037 72.8479M880.79 109.159V145.469M880.79 109.159L917.037 109.159M880.79 145.469V181.78M880.79 145.469H917.037M880.79 181.78V218.091M880.79 181.78H917.037M880.79 218.091V254.401M880.79 218.091H917.037M880.79 254.401V290.712M880.79 254.401H917.037M880.79 290.712V327.023M880.79 290.712H917.037M880.79 327.023L880.79 363.333M880.79 327.023H917.037M880.79 363.333V399.644M880.79 363.333H917.037M880.79 399.644V435.955M880.79 399.644H917.037M880.79 435.955V472.265M880.79 435.955H917.037M880.79 472.265V508.576M880.79 472.265H917.037M880.79 508.576V544.887M880.79 508.576H917.037M880.79 544.887V581.198M880.79 544.887H917.037M880.79 581.198V617.508M880.79 581.198H917.037M880.79 617.508V653.819M880.79 617.508H917.037M880.79 653.819V690.13M880.79 653.819H917.037M880.79 690.13V726.44M880.79 690.13H917.037M880.79 726.44H917.037M917.037 0.226562V36.5372M917.037 0.226562L953.284 0.226562M917.037 36.5372V72.8479M917.037 36.5372L953.284 36.5372M917.037 72.8479V109.159M917.037 72.8479H953.284M917.037 109.159V145.469M917.037 109.159H953.284M917.037 145.469V181.78M917.037 145.469H953.284M917.037 181.78V218.091M917.037 181.78H953.284M917.037 218.091V254.401M917.037 218.091H953.284M917.037 254.401V290.712M917.037 254.401H953.284M917.037 290.712V327.023M917.037 290.712H953.284M917.037 327.023V363.333M917.037 327.023H953.284M917.037 363.333V399.644M917.037 363.333H953.284M917.037 399.644V435.955M917.037 399.644H953.284M917.037 435.955V472.265M917.037 435.955H953.284M917.037 472.265V508.576M917.037 472.265H953.284M917.037 508.576V544.887M917.037 508.576H953.284M917.037 544.887V581.198M917.037 544.887L953.284 544.887M917.037 581.198V617.508M917.037 581.198L953.284 581.198M917.037 617.508V653.819M917.037 617.508L953.284 617.508M917.037 653.819V690.13M917.037 653.819L953.284 653.819M917.037 690.13L917.037 726.44M917.037 690.13L953.284 690.13M917.037 726.44L953.284 726.44M953.284 0.226562V36.5372M953.284 0.226562L989.531 0.226562M953.284 36.5372V72.8479M953.284 36.5372H989.531M953.284 72.8479V109.159M953.284 72.8479L989.531 72.8479M953.284 109.159V145.469M953.284 109.159L989.531 109.159M953.284 145.469V181.78M953.284 145.469H989.531M953.284 181.78V218.091M953.284 181.78H989.531M953.284 218.091V254.401M953.284 218.091H989.531M953.284 254.401V290.712M953.284 254.401H989.531M953.284 290.712V327.023M953.284 290.712H989.531M953.284 327.023V363.333M953.284 327.023H989.531M953.284 363.333V399.644M953.284 363.333H989.531M953.284 399.644V435.955M953.284 399.644H989.531M953.284 435.955V472.265M953.284 435.955H989.531M953.284 472.265V508.576M953.284 472.265H989.531M953.284 508.576V544.887M953.284 508.576H989.531M953.284 544.887V581.198M953.284 544.887H989.531M953.284 581.198V617.508M953.284 581.198H989.531M953.284 617.508V653.819M953.284 617.508H989.531M953.284 653.819V690.13M953.284 653.819H989.531M953.284 690.13L953.284 726.44M953.284 690.13H989.531M953.284 726.44H989.531M989.531 0.226562V36.5372M989.531 0.226562L1025.78 0.226562M989.531 36.5372V72.8479M989.531 36.5372L1025.78 36.5372M989.531 72.8479V109.159M989.531 72.8479H1025.78M989.531 109.159V145.469M989.531 109.159H1025.78M989.531 145.469V181.78M989.531 145.469L1025.78 145.469M989.531 181.78V218.091M989.531 181.78L1025.78 181.78M989.531 218.091V254.401M989.531 218.091L1025.78 218.091M989.531 254.401V290.712M989.531 254.401L1025.78 254.401M989.531 290.712V327.023M989.531 290.712H1025.78M989.531 327.023V363.333M989.531 327.023H1025.78M989.531 363.333V399.644M989.531 363.333H1025.78M989.531 399.644V435.955M989.531 399.644H1025.78M989.531 435.955V472.265M989.531 435.955H1025.78M989.531 472.265V508.576M989.531 472.265H1025.78M989.531 508.576V544.887M989.531 508.576H1025.78M989.531 544.887V581.198M989.531 544.887H1025.78M989.531 581.198V617.508M989.531 581.198H1025.78M989.531 617.508V653.819M989.531 617.508H1025.78M989.531 653.819V690.13M989.531 653.819H1025.78M989.531 690.13L989.531 726.44M989.531 690.13H1025.78M989.531 726.44H1025.78M1025.78 0.226562V36.5372M1025.78 0.226562L1062.02 0.226562M1025.78 36.5372V72.8479M1025.78 36.5372L1062.02 36.5372M1025.78 72.8479V109.159M1025.78 72.8479L1062.02 72.8479M1025.78 109.159V145.469M1025.78 109.159L1062.02 109.159M1025.78 145.469V181.78M1025.78 145.469H1062.02M1025.78 181.78V218.091M1025.78 181.78H1062.02M1025.78 218.091V254.401M1025.78 218.091H1062.02M1025.78 254.401V290.712M1025.78 254.401H1062.02M1025.78 290.712V327.023M1025.78 290.712H1062.02M1025.78 327.023V363.333M1025.78 327.023H1062.02M1025.78 363.333V399.644M1025.78 363.333H1062.02M1025.78 399.644V435.955M1025.78 399.644H1062.02M1025.78 435.955V472.265M1025.78 435.955H1062.02M1025.78 472.265V508.576M1025.78 472.265H1062.02M1025.78 508.576V544.887M1025.78 508.576H1062.02M1025.78 544.887V581.198M1025.78 544.887H1062.02M1025.78 581.198V617.508M1025.78 581.198H1062.02M1025.78 617.508V653.819M1025.78 617.508H1062.02M1025.78 653.819V690.13M1025.78 653.819H1062.02M1025.78 690.13L1025.78 726.44M1025.78 690.13H1062.02M1025.78 726.44H1062.02M1062.02 0.226562V36.5372M1062.02 0.226562L1098.27 0.226562M1062.02 36.5372V72.8479M1062.02 36.5372L1098.27 36.5372M1062.02 72.8479V109.159M1062.02 72.8479H1098.27M1062.02 109.159V145.469M1062.02 109.159H1098.27M1062.02 145.469V181.78M1062.02 145.469H1098.27M1062.02 181.78V218.091M1062.02 181.78H1098.27M1062.02 218.091V254.401M1062.02 218.091H1098.27M1062.02 254.401V290.712M1062.02 254.401H1098.27M1062.02 290.712V327.023M1062.02 290.712H1098.27M1062.02 327.023V363.333M1062.02 327.023H1098.27M1062.02 363.333V399.644M1062.02 363.333H1098.27M1062.02 399.644V435.955M1062.02 399.644H1098.27M1062.02 435.955V472.265M1062.02 435.955H1098.27M1062.02 472.265V508.576M1062.02 472.265H1098.27M1062.02 508.576V544.887M1062.02 508.576H1098.27M1062.02 544.887V581.198M1062.02 544.887H1098.27M1062.02 581.198V617.508M1062.02 581.198H1098.27M1062.02 617.508V653.819M1062.02 617.508H1098.27M1062.02 653.819V690.13M1062.02 653.819H1098.27M1062.02 690.13L1062.02 726.44M1062.02 690.13H1098.27M1062.02 726.44H1098.27M1098.27 0.226562V36.5372M1098.27 0.226562L1134.52 0.226562M1098.27 36.5372V72.8479M1098.27 36.5372L1134.52 36.5372M1098.27 72.8479V109.159M1098.27 72.8479H1134.52M1098.27 109.159V145.469M1098.27 109.159H1134.52M1098.27 145.469V181.78M1098.27 145.469H1134.52M1098.27 181.78V218.091M1098.27 181.78H1134.52M1098.27 218.091V254.401M1098.27 218.091H1134.52M1098.27 254.401V290.712M1098.27 254.401H1134.52M1098.27 290.712V327.023M1098.27 290.712L1134.52 290.712M1098.27 327.023V363.333M1098.27 327.023L1134.52 327.023M1098.27 363.333V399.644M1098.27 363.333L1134.52 363.333M1098.27 399.644V435.955M1098.27 399.644L1134.52 399.644M1098.27 435.955V472.265M1098.27 435.955L1134.52 435.955M1098.27 472.265V508.576M1098.27 472.265L1134.52 472.265M1098.27 508.576V544.887M1098.27 508.576L1134.52 508.576M1098.27 544.887V581.198M1098.27 544.887H1134.52M1098.27 581.198V617.508M1098.27 581.198H1134.52M1098.27 617.508V653.819M1098.27 617.508H1134.52M1098.27 653.819V690.13M1098.27 653.819H1134.52M1098.27 690.13L1098.27 726.44M1098.27 690.13H1134.52M1098.27 726.44H1134.52M1134.52 0.226562V36.5372M1134.52 0.226562L1170.77 0.226562M1134.52 36.5372V72.8479M1134.52 36.5372L1170.77 36.5372M1134.52 72.8479V109.159M1134.52 72.8479L1170.77 72.8479M1134.52 109.159V145.469M1134.52 109.159L1170.77 109.159M1134.52 145.469V181.78M1134.52 145.469H1170.77M1134.52 181.78V218.091M1134.52 181.78H1170.77M1134.52 218.091V254.401M1134.52 218.091H1170.77M1134.52 254.401V290.712M1134.52 254.401H1170.77M1134.52 290.712V327.023M1134.52 290.712H1170.77M1134.52 327.023V363.333M1134.52 327.023H1170.77M1134.52 363.333V399.644M1134.52 363.333H1170.77M1134.52 399.644V435.955M1134.52 399.644H1170.77M1134.52 435.955V472.265M1134.52 435.955H1170.77M1134.52 472.265V508.576M1134.52 472.265H1170.77M1134.52 508.576V544.887M1134.52 508.576H1170.77M1134.52 544.887V581.198M1134.52 544.887H1170.77M1134.52 581.198V617.508M1134.52 581.198H1170.77M1134.52 617.508V653.819M1134.52 617.508H1170.77M1134.52 653.819V690.13M1134.52 653.819H1170.77M1134.52 690.13L1134.52 726.44M1134.52 690.13H1170.77M1134.52 726.44H1170.77M1170.77 0.226562V36.5372M1170.77 0.226562L1207.01 0.226562M1170.77 36.5372V72.8479M1170.77 36.5372H1207.01M1170.77 72.8479V109.159M1170.77 72.8479H1207.01M1170.77 109.159V145.469M1170.77 109.159H1207.01M1170.77 145.469V181.78M1170.77 145.469L1207.01 145.469M1170.77 181.78V218.091M1170.77 181.78L1207.01 181.78M1170.77 218.091V254.401M1170.77 218.091L1207.01 218.091M1170.77 254.401V290.712M1170.77 254.401L1207.01 254.401M1170.77 290.712V327.023M1170.77 290.712H1207.01M1170.77 327.023V363.333M1170.77 327.023H1207.01M1170.77 363.333V399.644M1170.77 363.333H1207.01M1170.77 399.644V435.955M1170.77 399.644H1207.01M1170.77 435.955V472.265M1170.77 435.955H1207.01M1170.77 472.265V508.576M1170.77 472.265H1207.01M1170.77 508.576V544.887M1170.77 508.576H1207.01M1170.77 544.887V581.198M1170.77 544.887H1207.01M1170.77 581.198V617.508M1170.77 581.198H1207.01M1170.77 617.508V653.819M1170.77 617.508H1207.01M1170.77 653.819V690.13M1170.77 653.819H1207.01M1170.77 690.13L1170.77 726.44M1170.77 690.13H1207.01M1170.77 726.44H1207.01M1207.01 0.226562V36.5372M1207.01 0.226562L1243.26 0.226562M1207.01 36.5372V72.8479M1207.01 36.5372L1243.26 36.5372M1207.01 72.8479V109.159M1207.01 72.8479L1243.26 72.8479M1207.01 109.159V145.469M1207.01 109.159L1243.26 109.159M1207.01 145.469V181.78M1207.01 145.469H1243.26M1207.01 181.78V218.091M1207.01 181.78H1243.26M1207.01 218.091V254.401M1207.01 218.091H1243.26M1207.01 254.401V290.712M1207.01 254.401H1243.26M1207.01 290.712V327.023M1207.01 290.712H1243.26M1207.01 327.023V363.333M1207.01 327.023H1243.26M1207.01 363.333V399.644M1207.01 363.333H1243.26M1207.01 399.644V435.955M1207.01 399.644H1243.26M1207.01 435.955V472.265M1207.01 435.955H1243.26M1207.01 472.265V508.576M1207.01 472.265H1243.26M1207.01 508.576V544.887M1207.01 508.576H1243.26M1207.01 544.887V581.198M1207.01 544.887H1243.26M1207.01 581.198V617.508M1207.01 581.198H1243.26M1207.01 617.508V653.819M1207.01 617.508H1243.26M1207.01 653.819V690.13M1207.01 653.819H1243.26M1207.01 690.13L1207.01 726.44M1207.01 690.13H1243.26M1207.01 726.44H1243.26M1243.26 0.226562V36.5372M1243.26 0.226562L1279.51 0.226562M1243.26 36.5372V72.8479M1243.26 36.5372L1279.51 36.5372M1243.26 72.8479V109.159M1243.26 72.8479H1279.51M1243.26 109.159V145.469M1243.26 109.159H1279.51M1243.26 145.469V181.78M1243.26 145.469H1279.51M1243.26 181.78V218.091M1243.26 181.78H1279.51M1243.26 218.091V254.401M1243.26 218.091H1279.51M1243.26 254.401V290.712M1243.26 254.401H1279.51M1243.26 290.712V327.023M1243.26 290.712H1279.51M1243.26 327.023V363.333M1243.26 327.023H1279.51M1243.26 363.333V399.644M1243.26 363.333H1279.51M1243.26 399.644V435.955M1243.26 399.644H1279.51M1243.26 435.955V472.265M1243.26 435.955H1279.51M1243.26 472.265V508.576M1243.26 472.265H1279.51M1243.26 508.576V544.887M1243.26 508.576H1279.51M1243.26 544.887V581.198M1243.26 544.887H1279.51M1243.26 581.198V617.508M1243.26 581.198H1279.51M1243.26 617.508V653.819M1243.26 617.508H1279.51M1243.26 653.819V690.13M1243.26 653.819H1279.51M1243.26 690.13L1243.26 726.44M1243.26 690.13H1279.51M1243.26 726.44H1279.51M1279.51 0.226562V36.5372M1279.51 0.226562L1315.75 0.226562M1279.51 36.5372V72.8479M1279.51 36.5372L1315.75 36.5372M1279.51 72.8479V109.159M1279.51 72.8479H1315.75M1279.51 109.159V145.469M1279.51 109.159H1315.75M1279.51 145.469V181.78M1279.51 145.469H1315.75M1279.51 181.78V218.091M1279.51 181.78H1315.75M1279.51 218.091V254.401M1279.51 218.091H1315.75M1279.51 254.401V290.712M1279.51 254.401H1315.75M1279.51 290.712V327.023M1279.51 290.712H1315.75M1279.51 327.023V363.333M1279.51 327.023H1315.75M1279.51 363.333V399.644M1279.51 363.333H1315.75M1279.51 399.644V435.955M1279.51 399.644H1315.75M1279.51 435.955V472.265M1279.51 435.955H1315.75M1279.51 472.265V508.576M1279.51 472.265H1315.75M1279.51 508.576V544.887M1279.51 508.576H1315.75M1279.51 544.887V581.198M1279.51 544.887H1315.75M1279.51 581.198V617.508M1279.51 581.198H1315.75M1279.51 617.508V653.819M1279.51 617.508H1315.75M1279.51 653.819V690.13M1279.51 653.819H1315.75M1279.51 690.13L1279.51 726.44M1279.51 690.13H1315.75M1279.51 726.44H1315.75M1315.75 0.226562V36.5372M1315.75 0.226562L1352 0.226562M1315.75 36.5372V72.8479M1315.75 36.5372L1352 36.5372M1315.75 72.8479V109.159M1315.75 72.8479L1352 72.8479M1315.75 109.159V145.469M1315.75 109.159L1352 109.159M1315.75 145.469V181.78M1315.75 145.469H1352M1315.75 181.78V218.091M1315.75 181.78H1352M1315.75 218.091V254.401M1315.75 218.091H1352M1315.75 254.401V290.712M1315.75 254.401H1352M1315.75 290.712V327.023M1315.75 290.712H1352M1315.75 327.023V363.333M1315.75 327.023H1352M1315.75 363.333V399.644M1315.75 363.333H1352M1315.75 399.644V435.955M1315.75 399.644H1352M1315.75 435.955V472.265M1315.75 435.955H1352M1315.75 472.265V508.576M1315.75 472.265H1352M1315.75 508.576V544.887M1315.75 508.576H1352M1315.75 544.887V581.198M1315.75 544.887H1352M1315.75 581.198V617.508M1315.75 581.198H1352M1315.75 617.508V653.819M1315.75 617.508H1352M1315.75 653.819V690.13M1315.75 653.819H1352M1315.75 690.13L1315.75 726.44M1315.75 690.13H1352M1315.75 726.44H1352M1352 0.226562V36.5372M1352 0.226562L1388.25 0.226562M1352 36.5372V72.8479M1352 36.5372H1388.25M1352 72.8479V109.159M1352 72.8479H1388.25M1352 109.159V145.469M1352 109.159H1388.25M1352 145.469V181.78M1352 145.469L1388.25 145.469M1352 181.78V218.091M1352 181.78L1388.25 181.78M1352 218.091V254.401M1352 218.091L1388.25 218.091M1352 254.401V290.712M1352 254.401L1388.25 254.401M1352 290.712V327.023M1352 290.712H1388.25M1352 327.023V363.333M1352 327.023H1388.25M1352 363.333V399.644M1352 363.333H1388.25M1352 399.644V435.955M1352 399.644H1388.25M1352 435.955V472.265M1352 435.955H1388.25M1352 472.265V508.576M1352 472.265H1388.25M1352 508.576V544.887M1352 508.576H1388.25M1352 544.887V581.198M1352 544.887H1388.25M1352 581.198V617.508M1352 581.198H1388.25M1352 617.508V653.819M1352 617.508H1388.25M1352 653.819V690.13M1352 653.819H1388.25M1352 690.13L1352 726.44M1352 690.13H1388.25M1352 726.44H1388.25M1388.25 0.226562V36.5372M1388.25 0.226562L1424.49 0.226562M1388.25 36.5372V72.8479M1388.25 36.5372L1424.49 36.5372M1388.25 72.8479V109.159M1388.25 72.8479L1424.49 72.8479M1388.25 109.159V145.469M1388.25 109.159L1424.49 109.159M1388.25 145.469V181.78M1388.25 145.469H1424.49M1388.25 181.78V218.091M1388.25 181.78H1424.49M1388.25 218.091V254.401M1388.25 218.091H1424.49M1388.25 254.401V290.712M1388.25 254.401H1424.49M1388.25 290.712V327.023M1388.25 290.712H1424.49M1388.25 327.023V363.333M1388.25 327.023H1424.49M1388.25 363.333V399.644M1388.25 363.333H1424.49M1388.25 399.644V435.955M1388.25 399.644H1424.49M1388.25 435.955V472.265M1388.25 435.955H1424.49M1388.25 472.265V508.576M1388.25 472.265H1424.49M1388.25 508.576V544.887M1388.25 508.576H1424.49M1388.25 544.887V581.198M1388.25 544.887H1424.49M1388.25 581.198V617.508M1388.25 581.198H1424.49M1388.25 617.508V653.819M1388.25 617.508H1424.49M1388.25 653.819V690.13M1388.25 653.819H1424.49M1388.25 690.13L1388.25 726.44M1388.25 690.13H1424.49M1388.25 726.44H1424.49M1424.49 0.226562V36.5372M1424.49 0.226562L1455.64 0.226562C1458.46 0.226562 1460.74 2.50991 1460.74 5.32656V36.5372M1424.49 36.5372V72.8479M1424.49 36.5372L1460.74 36.5372M1424.49 72.8479V109.159M1424.49 72.8479H1460.74M1424.49 109.159V145.469M1424.49 109.159H1460.74M1424.49 145.469V181.78M1424.49 145.469H1460.74M1424.49 181.78V218.091M1424.49 181.78H1460.74M1424.49 218.091V254.401M1424.49 218.091H1460.74M1424.49 254.401V290.712M1424.49 254.401H1460.74M1424.49 290.712V327.023M1424.49 290.712L1460.74 290.712M1424.49 327.023V363.333M1424.49 327.023L1460.74 327.023M1424.49 363.333V399.644M1424.49 363.333L1460.74 363.333M1424.49 399.644V435.955M1424.49 399.644L1460.74 399.644M1424.49 435.955V472.265M1424.49 435.955L1460.74 435.955M1424.49 472.265V508.576M1424.49 472.265L1460.74 472.265M1424.49 508.576V544.887M1424.49 508.576L1460.74 508.576M1424.49 544.887V581.198M1424.49 544.887H1460.74M1424.49 581.198V617.508M1424.49 581.198H1460.74M1424.49 617.508V653.819M1424.49 617.508H1460.74M1424.49 653.819V690.13M1424.49 653.819H1460.74M1424.49 690.13L1424.49 726.44M1424.49 690.13H1460.74M1424.49 726.44H1455.64C1458.46 726.44 1460.74 724.157 1460.74 721.34L1460.74 690.13M1460.74 36.5372V72.8479M1460.74 72.8479V109.159M1460.74 109.159V145.469M1460.74 145.469V181.78M1460.74 181.78V218.091M1460.74 218.091V254.401M1460.74 254.401V290.712M1460.74 290.712V327.023M1460.74 327.023V363.333M1460.74 363.333V399.644M1460.74 399.644V435.955M1460.74 435.955V472.265M1460.74 472.265V508.576M1460.74 508.576V544.887M1460.74 544.887V581.198M1460.74 581.198V617.508M1460.74 617.508V653.819M1460.74 653.819V690.13" stroke="url(#paint0_radial_671_1813)" stroke-width="0.453088"/>
</g>
<defs>
<radialGradient id="paint0_radial_671_1813" cx="0" cy="0" r="1" gradientUnits="userSpaceOnUse" gradientTransform="translate(663.308 363.333) rotate(90) scale(363.107 643.942)">
<stop offset="0.665789" stop-color="white"/>
<stop offset="1" stop-color="white" stop-opacity="0.2"/>
</radialGradient>
</defs>
</svg>
