<svg width="1400" height="653" viewBox="0 0 1400 653" fill="none" xmlns="http://www.w3.org/2000/svg">
<g opacity="0.5">
<g opacity="0.7" style="mix-blend-mode:soft-light">
<path d="M-97.879 10.8929L-129.026 10.8929C-131.843 10.8929 -134.126 13.1763 -134.126 15.9929V47.2036M-97.879 10.8929V47.2036M-97.879 10.8929L-61.632 10.8929M-97.879 47.2036L-134.126 47.2036M-97.879 47.2036L-97.879 83.5143M-97.879 47.2036L-61.632 47.2036M-134.126 47.2036V83.5143M-97.879 83.5143H-134.126M-97.879 83.5143V119.825M-97.879 83.5143L-61.632 83.5143M-134.126 83.5143L-134.126 119.825M-97.879 119.825H-134.126M-97.879 119.825L-97.879 156.136M-97.879 119.825L-61.632 119.825M-134.126 119.825V156.136M-97.879 156.136H-134.126M-97.879 156.136V192.446M-97.879 156.136H-61.632M-134.126 156.136V192.446M-97.879 192.446H-134.126M-97.879 192.446V228.757M-97.879 192.446H-61.632M-134.126 192.446V228.757M-97.879 228.757H-134.126M-97.879 228.757L-97.879 265.068M-97.879 228.757H-61.632M-134.126 228.757V265.068M-97.879 265.068H-134.126M-97.879 265.068L-97.879 301.378M-97.879 265.068H-61.632M-134.126 265.068L-134.126 301.378M-97.879 301.378H-134.126M-97.879 301.378V337.689M-97.879 301.378H-61.632M-134.126 301.378V337.689M-97.879 337.689H-134.126M-97.879 337.689V374M-97.879 337.689H-61.632M-134.126 337.689V374M-97.879 374H-134.126M-97.879 374V410.31M-97.879 374H-61.632M-134.126 374V410.31M-97.879 410.31H-134.126M-97.879 410.31L-97.879 446.621M-97.879 410.31H-61.632M-134.126 410.31V446.621M-97.879 446.621H-134.126M-97.879 446.621L-97.879 482.932M-97.879 446.621H-61.632M-134.126 446.621L-134.126 482.932M-97.879 482.932H-134.126M-97.879 482.932V519.243M-97.879 482.932H-61.632M-134.126 482.932V519.243M-97.879 519.243H-134.126M-97.879 519.243V555.553M-97.879 519.243H-61.632M-134.126 519.243V555.553M-97.879 555.553H-134.126M-97.879 555.553V591.864M-97.879 555.553H-61.632M-134.126 555.553V591.864M-97.879 591.864H-134.126M-97.879 591.864L-97.879 628.175M-97.879 591.864H-61.632M-134.126 591.864V628.175M-97.879 628.175H-134.126M-97.879 628.175L-97.879 664.485M-97.879 628.175H-61.632M-134.126 628.175L-134.126 664.485M-97.879 664.485H-134.126M-97.879 664.485V700.796M-97.879 664.485H-61.632M-134.126 664.485V700.796M-97.879 700.796H-134.126M-97.879 700.796V737.107M-97.879 700.796H-61.632M-134.126 700.796V732.007C-134.126 734.823 -131.843 737.107 -129.026 737.107H-97.879M-97.879 737.107H-61.632M-61.632 10.8929V47.2036M-61.632 10.8929L-25.385 10.8929M-61.632 47.2036L-61.632 83.5143M-61.632 47.2036H-25.385M-61.632 83.5143V119.825M-61.632 83.5143H-25.385M-61.632 119.825L-61.632 156.136M-61.632 119.825H-25.385M-61.632 156.136V192.446M-61.632 156.136L-25.385 156.136M-61.632 192.446V228.757M-61.632 192.446L-25.385 192.446M-61.632 228.757L-61.632 265.068M-61.632 228.757L-25.385 228.757M-61.632 265.068V301.378M-61.632 265.068H-25.385M-61.632 301.378L-61.632 337.689M-61.632 301.378H-25.385M-61.632 337.689V374M-61.632 337.689H-25.385M-61.632 374L-61.632 410.31M-61.632 374H-25.385M-61.632 410.31V446.621M-61.632 410.31H-25.385M-61.632 446.621V482.932M-61.632 446.621H-25.385M-61.632 482.932L-61.632 519.243M-61.632 482.932H-25.385M-61.632 519.243V555.553M-61.632 519.243H-25.385M-61.632 555.553L-61.632 591.864M-61.632 555.553H-25.385M-61.632 591.864V628.175M-61.632 591.864H-25.385M-61.632 628.175V664.485M-61.632 628.175H-25.385M-61.632 664.485L-61.632 700.796M-61.632 664.485H-25.385M-61.632 700.796V737.107M-61.632 700.796H-25.385M-61.632 737.107H-25.385M-25.385 10.8929V47.2036M-25.385 10.8929L10.862 10.8929M-25.385 47.2036L-25.385 83.5143M-25.385 47.2036L10.862 47.2036M-25.385 83.5143V119.825M-25.385 83.5143L10.862 83.5143M-25.385 119.825L-25.385 156.136M-25.385 119.825L10.862 119.825M-25.385 156.136V192.446M-25.385 156.136H10.862M-25.385 192.446V228.757M-25.385 192.446H10.862M-25.385 228.757L-25.385 265.068M-25.385 228.757H10.862M-25.385 265.068V301.378M-25.385 265.068H10.862M-25.385 301.378L-25.385 337.689M-25.385 301.378H10.862M-25.385 337.689V374M-25.385 337.689H10.862M-25.385 374L-25.385 410.31M-25.385 374H10.862M-25.385 410.31V446.621M-25.385 410.31H10.862M-25.385 446.621V482.932M-25.385 446.621H10.862M-25.385 482.932L-25.385 519.243M-25.385 482.932H10.862M-25.385 519.243V555.553M-25.385 519.243H10.862M-25.385 555.553L-25.385 591.864M-25.385 555.553H10.862M-25.385 591.864V628.175M-25.385 591.864H10.862M-25.385 628.175V664.485M-25.385 628.175H10.862M-25.385 664.485L-25.385 700.796M-25.385 664.485H10.862M-25.385 700.796V737.107M-25.385 700.796H10.862M-25.385 737.107H10.862M10.862 10.8929V47.2036M10.862 10.8929L47.109 10.8929M10.862 47.2036V83.5143M10.862 47.2036L47.109 47.2036M10.862 83.5143L10.862 119.825M10.862 83.5143H47.109M10.862 119.825V156.136M10.862 119.825H47.109M10.862 156.136V192.446M10.862 156.136H47.109M10.862 192.446V228.757M10.862 192.446H47.109M10.862 228.757V265.068M10.862 228.757H47.109M10.862 265.068L10.862 301.378M10.862 265.068H47.109M10.862 301.378V337.689M10.862 301.378L47.109 301.378M10.862 337.689V374M10.862 337.689L47.109 337.689M10.862 374V410.31M10.862 374L47.109 374M10.862 410.31V446.621M10.862 410.31L47.109 410.31M10.862 446.621L10.862 482.932M10.862 446.621L47.109 446.621M10.862 482.932V519.243M10.862 482.932L47.109 482.932M10.862 519.243V555.553M10.862 519.243H47.109M10.862 555.553V591.864M10.862 555.553H47.109M10.862 591.864V628.175M10.862 591.864H47.109M10.862 628.175L10.862 664.485M10.862 628.175H47.109M10.862 664.485V700.796M10.862 664.485H47.109M10.862 700.796V737.107M10.862 700.796H47.109M10.862 737.107H47.109M47.109 10.8929V47.2036M47.109 10.8929L83.3559 10.8929M47.109 47.2036V83.5143M47.109 47.2036L83.3559 47.2036M47.109 83.5143L47.109 119.825M47.109 83.5143H83.3559M47.109 119.825V156.136M47.109 119.825H83.3559M47.109 156.136V192.446M47.109 156.136H83.3559M47.109 192.446V228.757M47.109 192.446H83.3559M47.109 228.757V265.068M47.109 228.757H83.3559M47.109 265.068L47.109 301.378M47.109 265.068H83.3559M47.109 301.378V337.689M47.109 301.378H83.3559M47.109 337.689V374M47.109 337.689H83.3559M47.109 374V410.31M47.109 374H83.3559M47.109 410.31V446.621M47.109 410.31H83.3559M47.109 446.621L47.109 482.932M47.109 446.621H83.3559M47.109 482.932V519.243M47.109 482.932H83.3559M47.109 519.243V555.553M47.109 519.243H83.3559M47.109 555.553V591.864M47.109 555.553H83.3559M47.109 591.864V628.175M47.109 591.864H83.3559M47.109 628.175L47.109 664.485M47.109 628.175H83.3559M47.109 664.485V700.796M47.109 664.485H83.3559M47.109 700.796V737.107M47.109 700.796H83.3559M47.109 737.107H83.3559M83.3559 10.8929V47.2036M83.3559 10.8929L119.603 10.8929M83.3559 47.2036V83.5143M83.3559 47.2036L119.603 47.2036M83.3559 83.5143L83.3559 119.825M83.3559 83.5143L119.603 83.5143M83.3559 119.825V156.136M83.3559 119.825L119.603 119.825M83.3559 156.136V192.446M83.3559 156.136H119.603M83.3559 192.446V228.757M83.3559 192.446H119.603M83.3559 228.757V265.068M83.3559 228.757H119.603M83.3559 265.068L83.3559 301.378M83.3559 265.068H119.603M83.3559 301.378V337.689M83.3559 301.378H119.603M83.3559 337.689V374M83.3559 337.689H119.603M83.3559 374V410.31M83.3559 374H119.603M83.3559 410.31V446.621M83.3559 410.31H119.603M83.3559 446.621L83.3559 482.932M83.3559 446.621H119.603M83.3559 482.932V519.243M83.3559 482.932H119.603M83.3559 519.243V555.553M83.3559 519.243H119.603M83.3559 555.553V591.864M83.3559 555.553H119.603M83.3559 591.864V628.175M83.3559 591.864H119.603M83.3559 628.175L83.3559 664.485M83.3559 628.175H119.603M83.3559 664.485V700.796M83.3559 664.485H119.603M83.3559 700.796V737.107M83.3559 700.796H119.603M83.3559 737.107H119.603M119.603 10.8929V47.2036M119.603 10.8929L155.85 10.8929M119.603 47.2036V83.5143M119.603 47.2036L155.85 47.2036M119.603 83.5143L119.603 119.825M119.603 83.5143H155.85M119.603 119.825V156.136M119.603 119.825H155.85M119.603 156.136V192.446M119.603 156.136L155.85 156.136M119.603 192.446V228.757M119.603 192.446L155.85 192.446M119.603 228.757V265.068M119.603 228.757L155.85 228.757M119.603 265.068L119.603 301.378M119.603 265.068L155.85 265.068M119.603 301.378V337.689M119.603 301.378H155.85M119.603 337.689V374M119.603 337.689H155.85M119.603 374V410.31M119.603 374H155.85M119.603 410.31V446.621M119.603 410.31H155.85M119.603 446.621L119.603 482.932M119.603 446.621H155.85M119.603 482.932V519.243M119.603 482.932H155.85M119.603 519.243V555.553M119.603 519.243H155.85M119.603 555.553V591.864M119.603 555.553H155.85M119.603 591.864V628.175M119.603 591.864H155.85M119.603 628.175L119.603 664.485M119.603 628.175H155.85M119.603 664.485V700.796M119.603 664.485H155.85M119.603 700.796V737.107M119.603 700.796H155.85M119.603 737.107H155.85M155.85 10.8929V47.2036M155.85 10.8929L192.097 10.8929M155.85 47.2036V83.5143M155.85 47.2036H192.097M155.85 83.5143V119.825M155.85 83.5143L192.097 83.5143M155.85 119.825V156.136M155.85 119.825L192.097 119.825M155.85 156.136L155.85 192.446M155.85 156.136H192.097M155.85 192.446V228.757M155.85 192.446H192.097M155.85 228.757V265.068M155.85 228.757H192.097M155.85 265.068V301.378M155.85 265.068H192.097M155.85 301.378V337.689M155.85 301.378H192.097M155.85 337.689V374M155.85 337.689H192.097M155.85 374V410.31M155.85 374H192.097M155.85 410.31V446.621M155.85 410.31H192.097M155.85 446.621V482.932M155.85 446.621H192.097M155.85 482.932V519.243M155.85 482.932H192.097M155.85 519.243L155.85 555.553M155.85 519.243H192.097M155.85 555.553V591.864M155.85 555.553H192.097M155.85 591.864V628.175M155.85 591.864H192.097M155.85 628.175V664.485M155.85 628.175H192.097M155.85 664.485V700.796M155.85 664.485H192.097M155.85 700.796V737.107M155.85 700.796H192.097M155.85 737.107H192.097M192.097 10.8929V47.2036M192.097 10.8929L228.344 10.8929M192.097 47.2036V83.5143M192.097 47.2036L228.344 47.2036M192.097 83.5143V119.825M192.097 83.5143H228.344M192.097 119.825V156.136M192.097 119.825H228.344M192.097 156.136L192.097 192.446M192.097 156.136H228.344M192.097 192.446V228.757M192.097 192.446H228.344M192.097 228.757V265.068M192.097 228.757H228.344M192.097 265.068V301.378M192.097 265.068H228.344M192.097 301.378V337.689M192.097 301.378H228.344M192.097 337.689V374M192.097 337.689H228.344M192.097 374V410.31M192.097 374H228.344M192.097 410.31V446.621M192.097 410.31H228.344M192.097 446.621V482.932M192.097 446.621H228.344M192.097 482.932V519.243M192.097 482.932H228.344M192.097 519.243L192.097 555.553M192.097 519.243H228.344M192.097 555.553V591.864M192.097 555.553L228.344 555.553M192.097 591.864V628.175M192.097 591.864L228.344 591.864M192.097 628.175V664.485M192.097 628.175L228.344 628.175M192.097 664.485V700.796M192.097 664.485L228.344 664.485M192.097 700.796V737.107M192.097 700.796L228.344 700.796M192.097 737.107L228.344 737.107M228.344 10.8929V47.2036M228.344 10.8929L264.591 10.8929M228.344 47.2036V83.5143M228.344 47.2036L264.591 47.2036M228.344 83.5143V119.825M228.344 83.5143L264.591 83.5143M228.344 119.825V156.136M228.344 119.825L264.591 119.825M228.344 156.136L228.344 192.446M228.344 156.136H264.591M228.344 192.446V228.757M228.344 192.446H264.591M228.344 228.757V265.068M228.344 228.757H264.591M228.344 265.068V301.378M228.344 265.068H264.591M228.344 301.378V337.689M228.344 301.378H264.591M228.344 337.689V374M228.344 337.689H264.591M228.344 374V410.31M228.344 374H264.591M228.344 410.31V446.621M228.344 410.31H264.591M228.344 446.621V482.932M228.344 446.621H264.591M228.344 482.932V519.243M228.344 482.932H264.591M228.344 519.243L228.344 555.553M228.344 519.243H264.591M228.344 555.553V591.864M228.344 555.553H264.591M228.344 591.864V628.175M228.344 591.864H264.591M228.344 628.175V664.485M228.344 628.175H264.591M228.344 664.485V700.796M228.344 664.485H264.591M228.344 700.796V737.107M228.344 700.796H264.591M228.344 737.107H264.591M264.591 10.8929V47.2036M264.591 10.8929L300.838 10.8929M264.591 47.2036V83.5143M264.591 47.2036L300.838 47.2036M264.591 83.5143V119.825M264.591 83.5143H300.838M264.591 119.825V156.136M264.591 119.825H300.838M264.591 156.136L264.591 192.446M264.591 156.136H300.838M264.591 192.446V228.757M264.591 192.446H300.838M264.591 228.757V265.068M264.591 228.757H300.838M264.591 265.068V301.378M264.591 265.068H300.838M264.591 301.378V337.689M264.591 301.378H300.838M264.591 337.689V374M264.591 337.689H300.838M264.591 374V410.31M264.591 374H300.838M264.591 410.31V446.621M264.591 410.31H300.838M264.591 446.621V482.932M264.591 446.621H300.838M264.591 482.932V519.243M264.591 482.932H300.838M264.591 519.243L264.591 555.553M264.591 519.243H300.838M264.591 555.553V591.864M264.591 555.553H300.838M264.591 591.864V628.175M264.591 591.864H300.838M264.591 628.175V664.485M264.591 628.175H300.838M264.591 664.485V700.796M264.591 664.485H300.838M264.591 700.796V737.107M264.591 700.796H300.838M264.591 737.107H300.838M300.838 10.8929V47.2036M300.838 10.8929L337.085 10.8929M300.838 47.2036V83.5143M300.838 47.2036L337.085 47.2036M300.838 83.5143V119.825M300.838 83.5143H337.085M300.838 119.825V156.136M300.838 119.825H337.085M300.838 156.136L300.838 192.446M300.838 156.136L337.085 156.136M300.838 192.446V228.757M300.838 192.446L337.085 192.446M300.838 228.757V265.068M300.838 228.757L337.085 228.757M300.838 265.068V301.378M300.838 265.068L337.085 265.068M300.838 301.378V337.689M300.838 301.378H337.085M300.838 337.689V374M300.838 337.689H337.085M300.838 374V410.31M300.838 374H337.085M300.838 410.31V446.621M300.838 410.31H337.085M300.838 446.621V482.932M300.838 446.621H337.085M300.838 482.932V519.243M300.838 482.932H337.085M300.838 519.243L300.838 555.553M300.838 519.243H337.085M300.838 555.553V591.864M300.838 555.553H337.085M300.838 591.864V628.175M300.838 591.864H337.085M300.838 628.175V664.485M300.838 628.175H337.085M300.838 664.485V700.796M300.838 664.485H337.085M300.838 700.796V737.107M300.838 700.796H337.085M300.838 737.107H337.085M337.085 10.8929V47.2036M337.085 10.8929L373.332 10.8929M337.085 47.2036V83.5143M337.085 47.2036H373.332M337.085 83.5143V119.825M337.085 83.5143L373.332 83.5143M337.085 119.825V156.136M337.085 119.825L373.332 119.825M337.085 156.136L337.085 192.446M337.085 156.136H373.332M337.085 192.446V228.757M337.085 192.446H373.332M337.085 228.757V265.068M337.085 228.757H373.332M337.085 265.068V301.378M337.085 265.068H373.332M337.085 301.378V337.689M337.085 301.378H373.332M337.085 337.689V374M337.085 337.689H373.332M337.085 374V410.31M337.085 374H373.332M337.085 410.31V446.621M337.085 410.31H373.332M337.085 446.621V482.932M337.085 446.621H373.332M337.085 482.932V519.243M337.085 482.932H373.332M337.085 519.243L337.085 555.553M337.085 519.243H373.332M337.085 555.553V591.864M337.085 555.553H373.332M337.085 591.864V628.175M337.085 591.864H373.332M337.085 628.175V664.485M337.085 628.175H373.332M337.085 664.485V700.796M337.085 664.485H373.332M337.085 700.796V737.107M337.085 700.796H373.332M337.085 737.107H373.332M373.332 10.8929V47.2036M373.332 10.8929L409.579 10.8929M373.332 47.2036V83.5143M373.332 47.2036L409.579 47.2036M373.332 83.5143V119.825M373.332 83.5143H409.579M373.332 119.825V156.136M373.332 119.825H409.579M373.332 156.136L373.332 192.446M373.332 156.136H409.579M373.332 192.446V228.757M373.332 192.446H409.579M373.332 228.757V265.068M373.332 228.757H409.579M373.332 265.068V301.378M373.332 265.068H409.579M373.332 301.378V337.689M373.332 301.378L409.579 301.378M373.332 337.689V374M373.332 337.689L409.579 337.689M373.332 374V410.31M373.332 374L409.579 374M373.332 410.31V446.621M373.332 410.31L409.579 410.31M373.332 446.621V482.932M373.332 446.621L409.579 446.621M373.332 482.932V519.243M373.332 482.932L409.579 482.932M373.332 519.243L373.332 555.553M373.332 519.243L409.579 519.243M373.332 555.553V591.864M373.332 555.553H409.579M373.332 591.864V628.175M373.332 591.864H409.579M373.332 628.175V664.485M373.332 628.175H409.579M373.332 664.485V700.796M373.332 664.485H409.579M373.332 700.796V737.107M373.332 700.796H409.579M373.332 737.107H409.579M409.579 10.8929V47.2036M409.579 10.8929L445.826 10.8929M409.579 47.2036V83.5143M409.579 47.2036L445.826 47.2036M409.579 83.5143V119.825M409.579 83.5143L445.826 83.5143M409.579 119.825V156.136M409.579 119.825L445.826 119.825M409.579 156.136V192.446M409.579 156.136H445.826M409.579 192.446V228.757M409.579 192.446H445.826M409.579 228.757V265.068M409.579 228.757H445.826M409.579 265.068V301.378M409.579 265.068H445.826M409.579 301.378V337.689M409.579 301.378H445.826M409.579 337.689L409.579 374M409.579 337.689H445.826M409.579 374V410.31M409.579 374H445.826M409.579 410.31V446.621M409.579 410.31H445.826M409.579 446.621V482.932M409.579 446.621H445.826M409.579 482.932V519.243M409.579 482.932H445.826M409.579 519.243V555.553M409.579 519.243H445.826M409.579 555.553V591.864M409.579 555.553H445.826M409.579 591.864V628.175M409.579 591.864H445.826M409.579 628.175V664.485M409.579 628.175H445.826M409.579 664.485V700.796M409.579 664.485H445.826M409.579 700.796V737.107M409.579 700.796H445.826M409.579 737.107H445.826M445.826 10.8929V47.2036M445.826 10.8929L482.073 10.8929M445.826 47.2036V83.5143M445.826 47.2036L482.073 47.2036M445.826 83.5143V119.825M445.826 83.5143H482.073M445.826 119.825V156.136M445.826 119.825H482.073M445.826 156.136V192.446M445.826 156.136H482.073M445.826 192.446V228.757M445.826 192.446H482.073M445.826 228.757V265.068M445.826 228.757H482.073M445.826 265.068V301.378M445.826 265.068H482.073M445.826 301.378V337.689M445.826 301.378H482.073M445.826 337.689L445.826 374M445.826 337.689H482.073M445.826 374V410.31M445.826 374H482.073M445.826 410.31V446.621M445.826 410.31H482.073M445.826 446.621V482.932M445.826 446.621H482.073M445.826 482.932V519.243M445.826 482.932H482.073M445.826 519.243V555.553M445.826 519.243H482.073M445.826 555.553V591.864M445.826 555.553H482.073M445.826 591.864V628.175M445.826 591.864H482.073M445.826 628.175V664.485M445.826 628.175H482.073M445.826 664.485V700.796M445.826 664.485H482.073M445.826 700.796V737.107M445.826 700.796H482.073M445.826 737.107H482.073M482.073 10.8929V47.2036M482.073 10.8929L518.32 10.8929M482.073 47.2036V83.5143M482.073 47.2036L518.32 47.2036M482.073 83.5143V119.825M482.073 83.5143H518.32M482.073 119.825V156.136M482.073 119.825H518.32M482.073 156.136V192.446M482.073 156.136L518.32 156.136M482.073 192.446V228.757M482.073 192.446L518.32 192.446M482.073 228.757V265.068M482.073 228.757L518.32 228.757M482.073 265.068V301.378M482.073 265.068H518.32M482.073 301.378V337.689M482.073 301.378H518.32M482.073 337.689L482.073 374M482.073 337.689H518.32M482.073 374V410.31M482.073 374H518.32M482.073 410.31V446.621M482.073 410.31H518.32M482.073 446.621V482.932M482.073 446.621H518.32M482.073 482.932V519.243M482.073 482.932H518.32M482.073 519.243V555.553M482.073 519.243H518.32M482.073 555.553V591.864M482.073 555.553H518.32M482.073 591.864V628.175M482.073 591.864H518.32M482.073 628.175V664.485M482.073 628.175H518.32M482.073 664.485V700.796M482.073 664.485H518.32M482.073 700.796V737.107M482.073 700.796H518.32M482.073 737.107H518.32M518.32 10.8929V47.2036M518.32 10.8929L554.567 10.8929M518.32 47.2036V83.5143M518.32 47.2036L554.567 47.2036M518.32 83.5143V119.825M518.32 83.5143L554.567 83.5143M518.32 119.825V156.136M518.32 119.825L554.567 119.825M518.32 156.136V192.446M518.32 156.136H554.567M518.32 192.446V228.757M518.32 192.446H554.567M518.32 228.757V265.068M518.32 228.757H554.567M518.32 265.068V301.378M518.32 265.068H554.567M518.32 301.378V337.689M518.32 301.378H554.567M518.32 337.689L518.32 374M518.32 337.689H554.567M518.32 374V410.31M518.32 374H554.567M518.32 410.31V446.621M518.32 410.31H554.567M518.32 446.621V482.932M518.32 446.621H554.567M518.32 482.932V519.243M518.32 482.932H554.567M518.32 519.243V555.553M518.32 519.243H554.567M518.32 555.553V591.864M518.32 555.553H554.567M518.32 591.864V628.175M518.32 591.864H554.567M518.32 628.175V664.485M518.32 628.175H554.567M518.32 664.485V700.796M518.32 664.485H554.567M518.32 700.796V737.107M518.32 700.796H554.567M518.32 737.107H554.567M554.567 10.8929V47.2036M554.567 10.8929L590.814 10.8929M554.567 47.2036V83.5143M554.567 47.2036H590.814M554.567 83.5143V119.825M554.567 83.5143H590.814M554.567 119.825V156.136M554.567 119.825H590.814M554.567 156.136V192.446M554.567 156.136H590.814M554.567 192.446V228.757M554.567 192.446H590.814M554.567 228.757V265.068M554.567 228.757H590.814M554.567 265.068V301.378M554.567 265.068H590.814M554.567 301.378V337.689M554.567 301.378H590.814M554.567 337.689L554.567 374M554.567 337.689H590.814M554.567 374V410.31M554.567 374H590.814M554.567 410.31V446.621M554.567 410.31H590.814M554.567 446.621V482.932M554.567 446.621H590.814M554.567 482.932V519.243M554.567 482.932H590.814M554.567 519.243V555.553M554.567 519.243H590.814M554.567 555.553V591.864M554.567 555.553H590.814M554.567 591.864V628.175M554.567 591.864H590.814M554.567 628.175V664.485M554.567 628.175H590.814M554.567 664.485V700.796M554.567 664.485H590.814M554.567 700.796V737.107M554.567 700.796H590.814M554.567 737.107H590.814M590.814 10.8929V47.2036M590.814 10.8929L627.061 10.8929M590.814 47.2036V83.5143M590.814 47.2036L627.061 47.2036M590.814 83.5143V119.825M590.814 83.5143L627.061 83.5143M590.814 119.825V156.136M590.814 119.825L627.061 119.825M590.814 156.136V192.446M590.814 156.136H627.061M590.814 192.446V228.757M590.814 192.446H627.061M590.814 228.757V265.068M590.814 228.757H627.061M590.814 265.068V301.378M590.814 265.068H627.061M590.814 301.378V337.689M590.814 301.378H627.061M590.814 337.689L590.814 374M590.814 337.689H627.061M590.814 374V410.31M590.814 374H627.061M590.814 410.31V446.621M590.814 410.31H627.061M590.814 446.621V482.932M590.814 446.621H627.061M590.814 482.932V519.243M590.814 482.932H627.061M590.814 519.243V555.553M590.814 519.243H627.061M590.814 555.553V591.864M590.814 555.553H627.061M590.814 591.864V628.175M590.814 591.864H627.061M590.814 628.175V664.485M590.814 628.175H627.061M590.814 664.485V700.796M590.814 664.485H627.061M590.814 700.796V737.107M590.814 700.796H627.061M590.814 737.107H627.061M627.061 10.8929V47.2036M627.061 10.8929L663.308 10.8929M627.061 47.2036V83.5143M627.061 47.2036L663.308 47.2036M627.061 83.5143V119.825M627.061 83.5143H663.308M627.061 119.825V156.136M627.061 119.825H663.308M627.061 156.136V192.446M627.061 156.136L663.308 156.136M627.061 192.446V228.757M627.061 192.446L663.308 192.446M627.061 228.757V265.068M627.061 228.757L663.308 228.757M627.061 265.068V301.378M627.061 265.068H663.308M627.061 301.378V337.689M627.061 301.378H663.308M627.061 337.689L627.061 374M627.061 337.689H663.308M627.061 374V410.31M627.061 374H663.308M627.061 410.31V446.621M627.061 410.31H663.308M627.061 446.621V482.932M627.061 446.621H663.308M627.061 482.932V519.243M627.061 482.932H663.308M627.061 519.243V555.553M627.061 519.243H663.308M627.061 555.553V591.864M627.061 555.553H663.308M627.061 591.864V628.175M627.061 591.864H663.308M627.061 628.175V664.485M627.061 628.175H663.308M627.061 664.485V700.796M627.061 664.485H663.308M627.061 700.796V737.107M627.061 700.796H663.308M627.061 737.107H663.308M663.308 10.8929V47.2036M663.308 10.8929L699.555 10.8929M663.308 47.2036V83.5143M663.308 47.2036L699.555 47.2036M663.308 83.5143V119.825M663.308 83.5143H699.555M663.308 119.825V156.136M663.308 119.825H699.555M663.308 156.136V192.446M663.308 156.136H699.555M663.308 192.446V228.757M663.308 192.446H699.555M663.308 228.757V265.068M663.308 228.757H699.555M663.308 265.068V301.378M663.308 265.068H699.555M663.308 301.378V337.689M663.308 301.378H699.555M663.308 337.689L663.308 374M663.308 337.689H699.555M663.308 374V410.31M663.308 374H699.555M663.308 410.31V446.621M663.308 410.31H699.555M663.308 446.621V482.932M663.308 446.621H699.555M663.308 482.932V519.243M663.308 482.932H699.555M663.308 519.243V555.553M663.308 519.243H699.555M663.308 555.553V591.864M663.308 555.553H699.555M663.308 591.864V628.175M663.308 591.864H699.555M663.308 628.175V664.485M663.308 628.175H699.555M663.308 664.485V700.796M663.308 664.485H699.555M663.308 700.796V737.107M663.308 700.796H699.555M663.308 737.107H699.555M699.555 10.8929V47.2036M699.555 10.8929L735.802 10.8929M699.555 47.2036V83.5143M699.555 47.2036L735.802 47.2036M699.555 83.5143V119.825M699.555 83.5143L735.802 83.5143M699.555 119.825V156.136M699.555 119.825L735.802 119.825M699.555 156.136V192.446M699.555 156.136H735.802M699.555 192.446V228.757M699.555 192.446H735.802M699.555 228.757V265.068M699.555 228.757H735.802M699.555 265.068V301.378M699.555 265.068H735.802M699.555 301.378V337.689M699.555 301.378H735.802M699.555 337.689L699.555 374M699.555 337.689H735.802M699.555 374V410.31M699.555 374H735.802M699.555 410.31V446.621M699.555 410.31H735.802M699.555 446.621V482.932M699.555 446.621H735.802M699.555 482.932V519.243M699.555 482.932H735.802M699.555 519.243V555.553M699.555 519.243H735.802M699.555 555.553V591.864M699.555 555.553H735.802M699.555 591.864V628.175M699.555 591.864H735.802M699.555 628.175V664.485M699.555 628.175H735.802M699.555 664.485V700.796M699.555 664.485H735.802M699.555 700.796V737.107M699.555 700.796H735.802M699.555 737.107H735.802M735.802 10.8929V47.2036M735.802 10.8929L772.049 10.8929M735.802 47.2036V83.5143M735.802 47.2036L772.049 47.2036M735.802 83.5143V119.825M735.802 83.5143H772.049M735.802 119.825V156.136M735.802 119.825H772.049M735.802 156.136V192.446M735.802 156.136H772.049M735.802 192.446V228.757M735.802 192.446H772.049M735.802 228.757V265.068M735.802 228.757H772.049M735.802 265.068V301.378M735.802 265.068H772.049M735.802 301.378V337.689M735.802 301.378L772.049 301.378M735.802 337.689L735.802 374M735.802 337.689L772.049 337.689M735.802 374V410.31M735.802 374L772.049 374M735.802 410.31V446.621M735.802 410.31L772.049 410.31M735.802 446.621V482.932M735.802 446.621L772.049 446.621M735.802 482.932V519.243M735.802 482.932L772.049 482.932M735.802 519.243V555.553M735.802 519.243L772.049 519.243M735.802 555.553V591.864M735.802 555.553H772.049M735.802 591.864V628.175M735.802 591.864H772.049M735.802 628.175V664.485M735.802 628.175H772.049M735.802 664.485V700.796M735.802 664.485H772.049M735.802 700.796V737.107M735.802 700.796H772.049M735.802 737.107H772.049M772.049 10.8929V47.2036M772.049 10.8929L808.296 10.8929M772.049 47.2036V83.5143M772.049 47.2036H808.296M772.049 83.5143V119.825M772.049 83.5143L808.296 83.5143M772.049 119.825V156.136M772.049 119.825L808.296 119.825M772.049 156.136V192.446M772.049 156.136H808.296M772.049 192.446V228.757M772.049 192.446H808.296M772.049 228.757V265.068M772.049 228.757H808.296M772.049 265.068V301.378M772.049 265.068H808.296M772.049 301.378V337.689M772.049 301.378H808.296M772.049 337.689L772.049 374M772.049 337.689H808.296M772.049 374V410.31M772.049 374H808.296M772.049 410.31V446.621M772.049 410.31H808.296M772.049 446.621V482.932M772.049 446.621H808.296M772.049 482.932V519.243M772.049 482.932H808.296M772.049 519.243V555.553M772.049 519.243H808.296M772.049 555.553V591.864M772.049 555.553H808.296M772.049 591.864V628.175M772.049 591.864H808.296M772.049 628.175V664.485M772.049 628.175H808.296M772.049 664.485V700.796M772.049 664.485H808.296M772.049 700.796V737.107M772.049 700.796H808.296M772.049 737.107H808.296M808.296 10.8929V47.2036M808.296 10.8929L844.543 10.8929M808.296 47.2036V83.5143M808.296 47.2036L844.543 47.2036M808.296 83.5143V119.825M808.296 83.5143H844.543M808.296 119.825V156.136M808.296 119.825H844.543M808.296 156.136V192.446M808.296 156.136L844.543 156.136M808.296 192.446V228.757M808.296 192.446L844.543 192.446M808.296 228.757V265.068M808.296 228.757L844.543 228.757M808.296 265.068V301.378M808.296 265.068L844.543 265.068M808.296 301.378V337.689M808.296 301.378H844.543M808.296 337.689L808.296 374M808.296 337.689H844.543M808.296 374V410.31M808.296 374H844.543M808.296 410.31V446.621M808.296 410.31H844.543M808.296 446.621V482.932M808.296 446.621H844.543M808.296 482.932V519.243M808.296 482.932H844.543M808.296 519.243V555.553M808.296 519.243H844.543M808.296 555.553V591.864M808.296 555.553H844.543M808.296 591.864V628.175M808.296 591.864H844.543M808.296 628.175V664.485M808.296 628.175H844.543M808.296 664.485V700.796M808.296 664.485H844.543M808.296 700.796V737.107M808.296 700.796H844.543M808.296 737.107H844.543M844.543 10.8929V47.2036M844.543 10.8929L880.79 10.8929M844.543 47.2036V83.5143M844.543 47.2036L880.79 47.2036M844.543 83.5143V119.825M844.543 83.5143H880.79M844.543 119.825V156.136M844.543 119.825H880.79M844.543 156.136V192.446M844.543 156.136H880.79M844.543 192.446V228.757M844.543 192.446H880.79M844.543 228.757V265.068M844.543 228.757H880.79M844.543 265.068V301.378M844.543 265.068H880.79M844.543 301.378V337.689M844.543 301.378H880.79M844.543 337.689L844.543 374M844.543 337.689H880.79M844.543 374V410.31M844.543 374H880.79M844.543 410.31V446.621M844.543 410.31H880.79M844.543 446.621V482.932M844.543 446.621H880.79M844.543 482.932V519.243M844.543 482.932H880.79M844.543 519.243V555.553M844.543 519.243H880.79M844.543 555.553V591.864M844.543 555.553H880.79M844.543 591.864V628.175M844.543 591.864H880.79M844.543 628.175V664.485M844.543 628.175H880.79M844.543 664.485V700.796M844.543 664.485H880.79M844.543 700.796V737.107M844.543 700.796H880.79M844.543 737.107H880.79M880.79 10.8929V47.2036M880.79 10.8929L917.037 10.8929M880.79 47.2036V83.5143M880.79 47.2036L917.037 47.2036M880.79 83.5143V119.825M880.79 83.5143L917.037 83.5143M880.79 119.825V156.136M880.79 119.825L917.037 119.825M880.79 156.136V192.446M880.79 156.136H917.037M880.79 192.446V228.757M880.79 192.446H917.037M880.79 228.757V265.068M880.79 228.757H917.037M880.79 265.068V301.378M880.79 265.068H917.037M880.79 301.378V337.689M880.79 301.378H917.037M880.79 337.689L880.79 374M880.79 337.689H917.037M880.79 374V410.31M880.79 374H917.037M880.79 410.31V446.621M880.79 410.31H917.037M880.79 446.621V482.932M880.79 446.621H917.037M880.79 482.932V519.243M880.79 482.932H917.037M880.79 519.243V555.553M880.79 519.243H917.037M880.79 555.553V591.864M880.79 555.553H917.037M880.79 591.864V628.175M880.79 591.864H917.037M880.79 628.175V664.485M880.79 628.175H917.037M880.79 664.485V700.796M880.79 664.485H917.037M880.79 700.796V737.107M880.79 700.796H917.037M880.79 737.107H917.037M917.037 10.8929V47.2036M917.037 10.8929L953.284 10.8929M917.037 47.2036V83.5143M917.037 47.2036L953.284 47.2036M917.037 83.5143V119.825M917.037 83.5143H953.284M917.037 119.825V156.136M917.037 119.825H953.284M917.037 156.136V192.446M917.037 156.136H953.284M917.037 192.446V228.757M917.037 192.446H953.284M917.037 228.757V265.068M917.037 228.757H953.284M917.037 265.068V301.378M917.037 265.068H953.284M917.037 301.378V337.689M917.037 301.378H953.284M917.037 337.689V374M917.037 337.689H953.284M917.037 374V410.31M917.037 374H953.284M917.037 410.31V446.621M917.037 410.31H953.284M917.037 446.621V482.932M917.037 446.621H953.284M917.037 482.932V519.243M917.037 482.932H953.284M917.037 519.243V555.553M917.037 519.243H953.284M917.037 555.553V591.864M917.037 555.553L953.284 555.553M917.037 591.864V628.175M917.037 591.864L953.284 591.864M917.037 628.175V664.485M917.037 628.175L953.284 628.175M917.037 664.485V700.796M917.037 664.485L953.284 664.485M917.037 700.796L917.037 737.107M917.037 700.796L953.284 700.796M917.037 737.107L953.284 737.107M953.284 10.8929V47.2036M953.284 10.8929L989.531 10.8929M953.284 47.2036V83.5143M953.284 47.2036H989.531M953.284 83.5143V119.825M953.284 83.5143L989.531 83.5143M953.284 119.825V156.136M953.284 119.825L989.531 119.825M953.284 156.136V192.446M953.284 156.136H989.531M953.284 192.446V228.757M953.284 192.446H989.531M953.284 228.757V265.068M953.284 228.757H989.531M953.284 265.068V301.378M953.284 265.068H989.531M953.284 301.378V337.689M953.284 301.378H989.531M953.284 337.689V374M953.284 337.689H989.531M953.284 374V410.31M953.284 374H989.531M953.284 410.31V446.621M953.284 410.31H989.531M953.284 446.621V482.932M953.284 446.621H989.531M953.284 482.932V519.243M953.284 482.932H989.531M953.284 519.243V555.553M953.284 519.243H989.531M953.284 555.553V591.864M953.284 555.553H989.531M953.284 591.864V628.175M953.284 591.864H989.531M953.284 628.175V664.485M953.284 628.175H989.531M953.284 664.485V700.796M953.284 664.485H989.531M953.284 700.796L953.284 737.107M953.284 700.796H989.531M953.284 737.107H989.531M989.531 10.8929V47.2036M989.531 10.8929L1025.78 10.8929M989.531 47.2036V83.5143M989.531 47.2036L1025.78 47.2036M989.531 83.5143V119.825M989.531 83.5143H1025.78M989.531 119.825V156.136M989.531 119.825H1025.78M989.531 156.136V192.446M989.531 156.136L1025.78 156.136M989.531 192.446V228.757M989.531 192.446L1025.78 192.446M989.531 228.757V265.068M989.531 228.757L1025.78 228.757M989.531 265.068V301.378M989.531 265.068L1025.78 265.068M989.531 301.378V337.689M989.531 301.378H1025.78M989.531 337.689V374M989.531 337.689H1025.78M989.531 374V410.31M989.531 374H1025.78M989.531 410.31V446.621M989.531 410.31H1025.78M989.531 446.621V482.932M989.531 446.621H1025.78M989.531 482.932V519.243M989.531 482.932H1025.78M989.531 519.243V555.553M989.531 519.243H1025.78M989.531 555.553V591.864M989.531 555.553H1025.78M989.531 591.864V628.175M989.531 591.864H1025.78M989.531 628.175V664.485M989.531 628.175H1025.78M989.531 664.485V700.796M989.531 664.485H1025.78M989.531 700.796L989.531 737.107M989.531 700.796H1025.78M989.531 737.107H1025.78M1025.78 10.8929V47.2036M1025.78 10.8929L1062.02 10.8929M1025.78 47.2036V83.5143M1025.78 47.2036L1062.02 47.2036M1025.78 83.5143V119.825M1025.78 83.5143L1062.02 83.5143M1025.78 119.825V156.136M1025.78 119.825L1062.02 119.825M1025.78 156.136V192.446M1025.78 156.136H1062.02M1025.78 192.446V228.757M1025.78 192.446H1062.02M1025.78 228.757V265.068M1025.78 228.757H1062.02M1025.78 265.068V301.378M1025.78 265.068H1062.02M1025.78 301.378V337.689M1025.78 301.378H1062.02M1025.78 337.689V374M1025.78 337.689H1062.02M1025.78 374V410.31M1025.78 374H1062.02M1025.78 410.31V446.621M1025.78 410.31H1062.02M1025.78 446.621V482.932M1025.78 446.621H1062.02M1025.78 482.932V519.243M1025.78 482.932H1062.02M1025.78 519.243V555.553M1025.78 519.243H1062.02M1025.78 555.553V591.864M1025.78 555.553H1062.02M1025.78 591.864V628.175M1025.78 591.864H1062.02M1025.78 628.175V664.485M1025.78 628.175H1062.02M1025.78 664.485V700.796M1025.78 664.485H1062.02M1025.78 700.796L1025.78 737.107M1025.78 700.796H1062.02M1025.78 737.107H1062.02M1062.02 10.8929V47.2036M1062.02 10.8929L1098.27 10.8929M1062.02 47.2036V83.5143M1062.02 47.2036L1098.27 47.2036M1062.02 83.5143V119.825M1062.02 83.5143H1098.27M1062.02 119.825V156.136M1062.02 119.825H1098.27M1062.02 156.136V192.446M1062.02 156.136H1098.27M1062.02 192.446V228.757M1062.02 192.446H1098.27M1062.02 228.757V265.068M1062.02 228.757H1098.27M1062.02 265.068V301.378M1062.02 265.068H1098.27M1062.02 301.378V337.689M1062.02 301.378H1098.27M1062.02 337.689V374M1062.02 337.689H1098.27M1062.02 374V410.31M1062.02 374H1098.27M1062.02 410.31V446.621M1062.02 410.31H1098.27M1062.02 446.621V482.932M1062.02 446.621H1098.27M1062.02 482.932V519.243M1062.02 482.932H1098.27M1062.02 519.243V555.553M1062.02 519.243H1098.27M1062.02 555.553V591.864M1062.02 555.553H1098.27M1062.02 591.864V628.175M1062.02 591.864H1098.27M1062.02 628.175V664.485M1062.02 628.175H1098.27M1062.02 664.485V700.796M1062.02 664.485H1098.27M1062.02 700.796L1062.02 737.107M1062.02 700.796H1098.27M1062.02 737.107H1098.27M1098.27 10.8929V47.2036M1098.27 10.8929L1134.52 10.8929M1098.27 47.2036V83.5143M1098.27 47.2036L1134.52 47.2036M1098.27 83.5143V119.825M1098.27 83.5143H1134.52M1098.27 119.825V156.136M1098.27 119.825H1134.52M1098.27 156.136V192.446M1098.27 156.136H1134.52M1098.27 192.446V228.757M1098.27 192.446H1134.52M1098.27 228.757V265.068M1098.27 228.757H1134.52M1098.27 265.068V301.378M1098.27 265.068H1134.52M1098.27 301.378V337.689M1098.27 301.378L1134.52 301.378M1098.27 337.689V374M1098.27 337.689L1134.52 337.689M1098.27 374V410.31M1098.27 374L1134.52 374M1098.27 410.31V446.621M1098.27 410.31L1134.52 410.31M1098.27 446.621V482.932M1098.27 446.621L1134.52 446.621M1098.27 482.932V519.243M1098.27 482.932L1134.52 482.932M1098.27 519.243V555.553M1098.27 519.243H1134.52M1098.27 555.553V591.864M1098.27 555.553H1134.52M1098.27 591.864V628.175M1098.27 591.864H1134.52M1098.27 628.175V664.485M1098.27 628.175H1134.52M1098.27 664.485V700.796M1098.27 664.485H1134.52M1098.27 700.796L1098.27 737.107M1098.27 700.796H1134.52M1098.27 737.107H1134.52M1134.52 10.8929V47.2036M1134.52 10.8929L1170.77 10.8929M1134.52 47.2036V83.5143M1134.52 47.2036L1170.77 47.2036M1134.52 83.5143V119.825M1134.52 83.5143L1170.77 83.5143M1134.52 119.825V156.136M1134.52 119.825L1170.77 119.825M1134.52 156.136V192.446M1134.52 156.136H1170.77M1134.52 192.446V228.757M1134.52 192.446H1170.77M1134.52 228.757V265.068M1134.52 228.757H1170.77M1134.52 265.068V301.378M1134.52 265.068H1170.77M1134.52 301.378V337.689M1134.52 301.378H1170.77M1134.52 337.689V374M1134.52 337.689H1170.77M1134.52 374V410.31M1134.52 374H1170.77M1134.52 410.31V446.621M1134.52 410.31H1170.77M1134.52 446.621V482.932M1134.52 446.621H1170.77M1134.52 482.932V519.243M1134.52 482.932H1170.77M1134.52 519.243V555.553M1134.52 519.243H1170.77M1134.52 555.553V591.864M1134.52 555.553H1170.77M1134.52 591.864V628.175M1134.52 591.864H1170.77M1134.52 628.175V664.485M1134.52 628.175H1170.77M1134.52 664.485V700.796M1134.52 664.485H1170.77M1134.52 700.796L1134.52 737.107M1134.52 700.796H1170.77M1134.52 737.107H1170.77M1170.77 10.8929V47.2036M1170.77 10.8929L1207.01 10.8929M1170.77 47.2036V83.5143M1170.77 47.2036H1207.01M1170.77 83.5143V119.825M1170.77 83.5143H1207.01M1170.77 119.825V156.136M1170.77 119.825H1207.01M1170.77 156.136V192.446M1170.77 156.136L1207.01 156.136M1170.77 192.446V228.757M1170.77 192.446L1207.01 192.446M1170.77 228.757V265.068M1170.77 228.757L1207.01 228.757M1170.77 265.068V301.378M1170.77 265.068H1207.01M1170.77 301.378V337.689M1170.77 301.378H1207.01M1170.77 337.689V374M1170.77 337.689H1207.01M1170.77 374V410.31M1170.77 374H1207.01M1170.77 410.31V446.621M1170.77 410.31H1207.01M1170.77 446.621V482.932M1170.77 446.621H1207.01M1170.77 482.932V519.243M1170.77 482.932H1207.01M1170.77 519.243V555.553M1170.77 519.243H1207.01M1170.77 555.553V591.864M1170.77 555.553H1207.01M1170.77 591.864V628.175M1170.77 591.864H1207.01M1170.77 628.175V664.485M1170.77 628.175H1207.01M1170.77 664.485V700.796M1170.77 664.485H1207.01M1170.77 700.796L1170.77 737.107M1170.77 700.796H1207.01M1170.77 737.107H1207.01M1207.01 10.8929V47.2036M1207.01 10.8929L1243.26 10.8929M1207.01 47.2036V83.5143M1207.01 47.2036L1243.26 47.2036M1207.01 83.5143V119.825M1207.01 83.5143L1243.26 83.5143M1207.01 119.825V156.136M1207.01 119.825L1243.26 119.825M1207.01 156.136V192.446M1207.01 156.136H1243.26M1207.01 192.446V228.757M1207.01 192.446H1243.26M1207.01 228.757V265.068M1207.01 228.757H1243.26M1207.01 265.068V301.378M1207.01 265.068H1243.26M1207.01 301.378V337.689M1207.01 301.378H1243.26M1207.01 337.689V374M1207.01 337.689H1243.26M1207.01 374V410.31M1207.01 374H1243.26M1207.01 410.31V446.621M1207.01 410.31H1243.26M1207.01 446.621V482.932M1207.01 446.621H1243.26M1207.01 482.932V519.243M1207.01 482.932H1243.26M1207.01 519.243V555.553M1207.01 519.243H1243.26M1207.01 555.553V591.864M1207.01 555.553H1243.26M1207.01 591.864V628.175M1207.01 591.864H1243.26M1207.01 628.175V664.485M1207.01 628.175H1243.26M1207.01 664.485V700.796M1207.01 664.485H1243.26M1207.01 700.796L1207.01 737.107M1207.01 700.796H1243.26M1207.01 737.107H1243.26M1243.26 10.8929V47.2036M1243.26 10.8929L1279.51 10.8929M1243.26 47.2036V83.5143M1243.26 47.2036L1279.51 47.2036M1243.26 83.5143V119.825M1243.26 83.5143H1279.51M1243.26 119.825V156.136M1243.26 119.825H1279.51M1243.26 156.136V192.446M1243.26 156.136H1279.51M1243.26 192.446V228.757M1243.26 192.446H1279.51M1243.26 228.757V265.068M1243.26 228.757H1279.51M1243.26 265.068V301.378M1243.26 265.068H1279.51M1243.26 301.378V337.689M1243.26 301.378H1279.51M1243.26 337.689V374M1243.26 337.689H1279.51M1243.26 374V410.31M1243.26 374H1279.51M1243.26 410.31V446.621M1243.26 410.31H1279.51M1243.26 446.621V482.932M1243.26 446.621H1279.51M1243.26 482.932V519.243M1243.26 482.932H1279.51M1243.26 519.243V555.553M1243.26 519.243H1279.51M1243.26 555.553V591.864M1243.26 555.553H1279.51M1243.26 591.864V628.175M1243.26 591.864H1279.51M1243.26 628.175V664.485M1243.26 628.175H1279.51M1243.26 664.485V700.796M1243.26 664.485H1279.51M1243.26 700.796L1243.26 737.107M1243.26 700.796H1279.51M1243.26 737.107H1279.51M1279.51 10.8929V47.2036M1279.51 10.8929L1315.75 10.8929M1279.51 47.2036V83.5143M1279.51 47.2036L1315.75 47.2036M1279.51 83.5143V119.825M1279.51 83.5143H1315.75M1279.51 119.825V156.136M1279.51 119.825H1315.75M1279.51 156.136V192.446M1279.51 156.136H1315.75M1279.51 192.446V228.757M1279.51 192.446H1315.75M1279.51 228.757V265.068M1279.51 228.757H1315.75M1279.51 265.068V301.378M1279.51 265.068H1315.75M1279.51 301.378V337.689M1279.51 301.378H1315.75M1279.51 337.689V374M1279.51 337.689H1315.75M1279.51 374V410.31M1279.51 374H1315.75M1279.51 410.31V446.621M1279.51 410.31H1315.75M1279.51 446.621V482.932M1279.51 446.621H1315.75M1279.51 482.932V519.243M1279.51 482.932H1315.75M1279.51 519.243V555.553M1279.51 519.243H1315.75M1279.51 555.553V591.864M1279.51 555.553H1315.75M1279.51 591.864V628.175M1279.51 591.864H1315.75M1279.51 628.175V664.485M1279.51 628.175H1315.75M1279.51 664.485V700.796M1279.51 664.485H1315.75M1279.51 700.796L1279.51 737.107M1279.51 700.796H1315.75M1279.51 737.107H1315.75M1315.75 10.8929V47.2036M1315.75 10.8929L1352 10.8929M1315.75 47.2036V83.5143M1315.75 47.2036L1352 47.2036M1315.75 83.5143V119.825M1315.75 83.5143L1352 83.5143M1315.75 119.825V156.136M1315.75 119.825L1352 119.825M1315.75 156.136V192.446M1315.75 156.136H1352M1315.75 192.446V228.757M1315.75 192.446H1352M1315.75 228.757V265.068M1315.75 228.757H1352M1315.75 265.068V301.378M1315.75 265.068H1352M1315.75 301.378V337.689M1315.75 301.378H1352M1315.75 337.689V374M1315.75 337.689H1352M1315.75 374V410.31M1315.75 374H1352M1315.75 410.31V446.621M1315.75 410.31H1352M1315.75 446.621V482.932M1315.75 446.621H1352M1315.75 482.932V519.243M1315.75 482.932H1352M1315.75 519.243V555.553M1315.75 519.243H1352M1315.75 555.553V591.864M1315.75 555.553H1352M1315.75 591.864V628.175M1315.75 591.864H1352M1315.75 628.175V664.485M1315.75 628.175H1352M1315.75 664.485V700.796M1315.75 664.485H1352M1315.75 700.796L1315.75 737.107M1315.75 700.796H1352M1315.75 737.107H1352M1352 10.8929V47.2036M1352 10.8929L1388.25 10.8929M1352 47.2036V83.5143M1352 47.2036H1388.25M1352 83.5143V119.825M1352 83.5143H1388.25M1352 119.825V156.136M1352 119.825H1388.25M1352 156.136V192.446M1352 156.136L1388.25 156.136M1352 192.446V228.757M1352 192.446L1388.25 192.446M1352 228.757V265.068M1352 228.757L1388.25 228.757M1352 265.068V301.378M1352 265.068H1388.25M1352 301.378V337.689M1352 301.378H1388.25M1352 337.689V374M1352 337.689H1388.25M1352 374V410.31M1352 374H1388.25M1352 410.31V446.621M1352 410.31H1388.25M1352 446.621V482.932M1352 446.621H1388.25M1352 482.932V519.243M1352 482.932H1388.25M1352 519.243V555.553M1352 519.243H1388.25M1352 555.553V591.864M1352 555.553H1388.25M1352 591.864V628.175M1352 591.864H1388.25M1352 628.175V664.485M1352 628.175H1388.25M1352 664.485V700.796M1352 664.485H1388.25M1352 700.796L1352 737.107M1352 700.796H1388.25M1352 737.107H1388.25M1388.25 10.8929V47.2036M1388.25 10.8929L1424.49 10.8929M1388.25 47.2036V83.5143M1388.25 47.2036L1424.49 47.2036M1388.25 83.5143V119.825M1388.25 83.5143L1424.49 83.5143M1388.25 119.825V156.136M1388.25 119.825L1424.49 119.825M1388.25 156.136V192.446M1388.25 156.136H1424.49M1388.25 192.446V228.757M1388.25 192.446H1424.49M1388.25 228.757V265.068M1388.25 228.757H1424.49M1388.25 265.068V301.378M1388.25 265.068H1424.49M1388.25 301.378V337.689M1388.25 301.378H1424.49M1388.25 337.689V374M1388.25 337.689H1424.49M1388.25 374V410.31M1388.25 374H1424.49M1388.25 410.31V446.621M1388.25 410.31H1424.49M1388.25 446.621V482.932M1388.25 446.621H1424.49M1388.25 482.932V519.243M1388.25 482.932H1424.49M1388.25 519.243V555.553M1388.25 519.243H1424.49M1388.25 555.553V591.864M1388.25 555.553H1424.49M1388.25 591.864V628.175M1388.25 591.864H1424.49M1388.25 628.175V664.485M1388.25 628.175H1424.49M1388.25 664.485V700.796M1388.25 664.485H1424.49M1388.25 700.796L1388.25 737.107M1388.25 700.796H1424.49M1388.25 737.107H1424.49M1424.49 10.8929V47.2036M1424.49 10.8929L1455.64 10.8929C1458.46 10.8929 1460.74 13.1763 1460.74 15.9929V47.2036M1424.49 47.2036V83.5143M1424.49 47.2036L1460.74 47.2036M1424.49 83.5143V119.825M1424.49 83.5143H1460.74M1424.49 119.825V156.136M1424.49 119.825H1460.74M1424.49 156.136V192.446M1424.49 156.136H1460.74M1424.49 192.446V228.757M1424.49 192.446H1460.74M1424.49 228.757V265.068M1424.49 228.757H1460.74M1424.49 265.068V301.378M1424.49 265.068H1460.74M1424.49 301.378V337.689M1424.49 301.378L1460.74 301.378M1424.49 337.689V374M1424.49 337.689L1460.74 337.689M1424.49 374V410.31M1424.49 374L1460.74 374M1424.49 410.31V446.621M1424.49 410.31L1460.74 410.31M1424.49 446.621V482.932M1424.49 446.621L1460.74 446.621M1424.49 482.932V519.243M1424.49 482.932L1460.74 482.932M1424.49 519.243V555.553M1424.49 519.243H1460.74M1424.49 555.553V591.864M1424.49 555.553H1460.74M1424.49 591.864V628.175M1424.49 591.864H1460.74M1424.49 628.175V664.485M1424.49 628.175H1460.74M1424.49 664.485V700.796M1424.49 664.485H1460.74M1424.49 700.796L1424.49 737.107M1424.49 700.796H1460.74M1424.49 737.107H1455.64C1458.46 737.107 1460.74 734.823 1460.74 732.007L1460.74 700.796M1460.74 47.2036V83.5143M1460.74 83.5143V119.825M1460.74 119.825V156.136M1460.74 156.136V192.446M1460.74 192.446V228.757M1460.74 228.757V265.068M1460.74 265.068V301.378M1460.74 301.378V337.689M1460.74 337.689V374M1460.74 374V410.31M1460.74 410.31V446.621M1460.74 446.621V482.932M1460.74 482.932V519.243M1460.74 519.243V555.553M1460.74 555.553V591.864M1460.74 591.864V628.175M1460.74 628.175V664.485M1460.74 664.485V700.796" stroke="url(#paint0_radial_671_1812)" stroke-width="0.453088"/>
</g>
<g opacity="0.8" style="mix-blend-mode:soft-light">
<path d="M10.8621 145.243V156.136M10.8621 156.136V167.029M10.8621 156.136H-0.0119919M10.8621 156.136H21.7362M10.8621 435.728L10.8621 446.621M10.8621 446.621V457.515M10.8621 446.621H-0.0119919M10.8621 446.621H21.7362M10.8621 726.214V737.107M10.8621 737.107V748M10.8621 737.107H-0.0119919M10.8621 737.107H21.7362M300.838 145.243V156.136M300.838 156.136V167.029M300.838 156.136L289.964 156.136M300.838 156.136H311.712M300.838 435.728V446.621M300.838 446.621V457.515M300.838 446.621H289.964M300.838 446.621H311.712M300.838 726.214V737.107M300.838 737.107V748M300.838 737.107H289.964M300.838 737.107H311.712M590.814 145.243V156.136M590.814 156.136V167.029M590.814 156.136H579.94M590.814 156.136H601.688M590.814 435.728V446.621M590.814 446.621V457.515M590.814 446.621H579.94M590.814 446.621H601.688M590.814 726.214V737.107M590.814 737.107V748M590.814 737.107H579.94M590.814 737.107H601.688M880.79 145.243V156.136M880.79 156.136V167.029M880.79 156.136H869.916M880.79 156.136H891.664M880.79 435.728V446.621M880.79 446.621V457.515M880.79 446.621H869.916M880.79 446.621H891.664M880.79 726.214V737.107M880.79 737.107V748M880.79 737.107H869.916M880.79 737.107H891.664M1170.77 145.243V156.136M1170.77 156.136V167.029M1170.77 156.136H1159.89M1170.77 156.136L1181.64 156.136M1170.77 435.728V446.621M1170.77 446.621V457.515M1170.77 446.621H1159.89M1170.77 446.621H1181.64M1170.77 726.214V737.107M1170.77 737.107V748M1170.77 737.107H1159.89M1170.77 737.107H1181.64M1460.74 145.243V156.136M1460.74 156.136V167.029M1460.74 156.136H1449.87M1460.74 156.136H1471.62M1460.74 435.728V446.621M1460.74 446.621V457.515M1460.74 446.621H1449.87M1460.74 446.621H1471.62M1460.74 726.214V737.107M1460.74 737.107V748M1460.74 737.107H1449.87M1460.74 737.107H1471.62M10.8621 0V10.8932M10.8621 10.8932V21.7864M10.8621 10.8932L-0.0119919 10.8932M10.8621 10.8932L21.7362 10.8932M10.8621 290.486V301.379M10.8621 301.379V312.272M10.8621 301.379H-0.0119919M10.8621 301.379H21.7362M10.8621 580.971V591.864M10.8621 591.864V602.757M10.8621 591.864H-0.0119919M10.8621 591.864H21.7362M300.838 0V10.8932M300.838 10.8932V21.7864M300.838 10.8932L289.964 10.8932M300.838 10.8932L311.712 10.8932M300.838 290.486V301.379M300.838 301.379V312.272M300.838 301.379H289.964M300.838 301.379H311.712M300.838 580.971V591.864M300.838 591.864V602.757M300.838 591.864H289.964M300.838 591.864H311.712M590.814 0V10.8932M590.814 10.8932V21.7864M590.814 10.8932L579.94 10.8932M590.814 10.8932L601.688 10.8932M590.814 290.486V301.379M590.814 301.379V312.272M590.814 301.379H579.94M590.814 301.379H601.688M590.814 580.971V591.864M590.814 591.864V602.757M590.814 591.864H579.94M590.814 591.864H601.688M880.79 0V10.8932M880.79 10.8932V21.7864M880.79 10.8932L869.916 10.8932M880.79 10.8932L891.664 10.8932M880.79 290.486V301.379M880.79 301.379V312.272M880.79 301.379H869.916M880.79 301.379H891.664M880.79 580.971V591.864M880.79 591.864V602.757M880.79 591.864H869.916M880.79 591.864H891.664M1170.77 0V10.8932M1170.77 10.8932V21.7864M1170.77 10.8932L1159.89 10.8932M1170.77 10.8932L1181.64 10.8932M1170.77 290.486V301.379M1170.77 301.379V312.272M1170.77 301.379H1159.89M1170.77 301.379H1181.64M1170.77 580.971V591.864M1170.77 591.864V602.757M1170.77 591.864H1159.89M1170.77 591.864H1181.64M1460.74 0V10.8932M1460.74 10.8932V21.7864M1460.74 10.8932L1449.87 10.8932M1460.74 10.8932L1471.62 10.8932M1460.74 290.486V301.379M1460.74 301.379V312.272M1460.74 301.379H1449.87M1460.74 301.379H1471.62M1460.74 580.971V591.864M1460.74 591.864V602.757M1460.74 591.864H1449.87M1460.74 591.864H1471.62M-134.126 145.243V156.136M-134.126 156.136V167.029M-134.126 156.136H-145M-134.126 156.136H-123.252M-134.126 435.728V446.621M-134.126 446.621L-134.126 457.515M-134.126 446.621H-145M-134.126 446.621H-123.252M-134.126 726.214V737.107M-134.126 737.107V748M-134.126 737.107H-145M-134.126 737.107H-123.252M155.85 145.243V156.136M155.85 156.136V167.029M155.85 156.136H144.976M155.85 156.136H166.724M155.85 435.728V446.621M155.85 446.621V457.515M155.85 446.621H144.976M155.85 446.621H166.724M155.85 726.214V737.107M155.85 737.107V748M155.85 737.107H144.976M155.85 737.107H166.724M445.826 145.243V156.136M445.826 156.136V167.029M445.826 156.136H434.952M445.826 156.136H456.7M445.826 435.728V446.621M445.826 446.621V457.515M445.826 446.621H434.952M445.826 446.621H456.7M445.826 726.214V737.107M445.826 737.107V748M445.826 737.107H434.952M445.826 737.107H456.7M735.802 145.243V156.136M735.802 156.136V167.029M735.802 156.136H724.928M735.802 156.136H746.676M735.802 435.728V446.621M735.802 446.621V457.515M735.802 446.621H724.928M735.802 446.621L746.676 446.621M735.802 726.214V737.107M735.802 737.107V748M735.802 737.107H724.928M735.802 737.107H746.676M1025.78 145.243V156.136M1025.78 156.136V167.029M1025.78 156.136H1014.9M1025.78 156.136H1036.65M1025.78 435.728V446.621M1025.78 446.621V457.515M1025.78 446.621H1014.9M1025.78 446.621H1036.65M1025.78 726.214V737.107M1025.78 737.107V748M1025.78 737.107H1014.9M1025.78 737.107H1036.65M1315.75 145.243V156.136M1315.75 156.136V167.029M1315.75 156.136H1304.88M1315.75 156.136H1326.63M1315.75 435.728V446.621M1315.75 446.621V457.515M1315.75 446.621H1304.88M1315.75 446.621H1326.63M1315.75 726.214V737.107M1315.75 737.107V748M1315.75 737.107H1304.88M1315.75 737.107H1326.63M-134.126 5.35511e-05V10.8933M-134.126 10.8933V21.7865M-134.126 10.8933L-145 10.8933M-134.126 10.8933L-123.252 10.8933M-134.126 290.486V301.379M-134.126 301.379V312.272M-134.126 301.379H-145M-134.126 301.379H-123.252M-134.126 580.971V591.864M-134.126 591.864V602.757M-134.126 591.864H-145M-134.126 591.864H-123.252M155.85 0V10.8932M155.85 10.8932V21.7864M155.85 10.8932L144.976 10.8932M155.85 10.8932L166.724 10.8932M155.85 290.486V301.379M155.85 301.379V312.272M155.85 301.379H144.976M155.85 301.379H166.724M155.85 580.971V591.864M155.85 591.864V602.757M155.85 591.864H144.976M155.85 591.864H166.724M445.826 0V10.8932M445.826 10.8932V21.7864M445.826 10.8932H434.952M445.826 10.8932L456.7 10.8932M445.826 290.486V301.379M445.826 301.379V312.272M445.826 301.379H434.952M445.826 301.379H456.7M445.826 580.971V591.864M445.826 591.864V602.757M445.826 591.864H434.952M445.826 591.864H456.7M735.802 0V10.8932M735.802 10.8932V21.7864M735.802 10.8932L724.928 10.8932M735.802 10.8932L746.676 10.8932M735.802 290.486V301.379M735.802 301.379V312.272M735.802 301.379H724.928M735.802 301.379L746.676 301.379M735.802 580.971V591.864M735.802 591.864V602.757M735.802 591.864H724.928M735.802 591.864H746.676M1025.78 0V10.8932M1025.78 10.8932V21.7864M1025.78 10.8932L1014.9 10.8932M1025.78 10.8932L1036.65 10.8932M1025.78 290.486V301.379M1025.78 301.379V312.272M1025.78 301.379H1014.9M1025.78 301.379H1036.65M1025.78 580.971V591.864M1025.78 591.864V602.757M1025.78 591.864H1014.9M1025.78 591.864H1036.65M1315.75 0V10.8932M1315.75 10.8932V21.7864M1315.75 10.8932L1304.88 10.8932M1315.75 10.8932L1326.63 10.8932M1315.75 290.486V301.379M1315.75 301.379V312.272M1315.75 301.379H1304.88M1315.75 301.379H1326.63M1315.75 580.971V591.864M1315.75 591.864V602.757M1315.75 591.864H1304.88M1315.75 591.864H1326.63" stroke="url(#paint1_radial_671_1812)" stroke-width="0.906175"/>
</g>
</g>
<defs>
<radialGradient id="paint0_radial_671_1812" cx="0" cy="0" r="1" gradientUnits="userSpaceOnUse" gradientTransform="translate(663.308 374) rotate(90) scale(363.107 643.942)">
<stop offset="0.665789" stop-color="white"/>
<stop offset="1" stop-color="white" stop-opacity="0.2"/>
</radialGradient>
<radialGradient id="paint1_radial_671_1812" cx="0" cy="0" r="1" gradientUnits="userSpaceOnUse" gradientTransform="translate(663.308 374) rotate(90) scale(374 652.723)">
<stop offset="0.665789" stop-color="white"/>
<stop offset="1" stop-color="white" stop-opacity="0.2"/>
</radialGradient>
</defs>
</svg>
