<svg width="46" height="46" viewBox="0 0 46 46" fill="none" xmlns="http://www.w3.org/2000/svg">
<g clip-path="url(#clip0_671_1438)">
<rect width="46" height="46" rx="23" fill="#005BFF"/>
<path d="M-88.0258 87.2487C-84.592 84.4687 -64.734 75.8084 -57.0592 69.5927C-56.4073 69.064 -55.8444 68.5372 -55.3688 68.0445C-53.9248 66.5133 -52.1472 63.7504 -50.4228 60.3336C-46.9909 53.557 -43.0284 44.296 -38.0994 37.6255C-35.6529 34.2979 -32.9772 31.6221 -30.0361 30.2501C-29.6836 30.161 -29.3671 30.4074 -29.3671 30.7598C-30.4947 35.7589 -34.8949 39.8617 -38.0994 43.2594C-40.4928 45.795 -42.3253 48.0122 -41.5313 49.2439C-40.7335 50.4397 -38.7835 48.52 -38.0994 47.8359C-33.3827 43.7692 -25.5297 32.8197 -20.055 28.1011C-19.2212 27.3867 -18.0121 26.0753 -17.239 25.3022C-13.9833 21.5709 -11.8703 18.3493 -7.69749 14.6351C4.3075 3.93195 10.8927 4.03807 24.0082 -6.24245C29.536 -10.5726 34.3778 -14.9217 38.2152 -18.706C43.8131 -24.2509 47.1938 -28.653 47.1578 -30.3604C47.1578 -30.766 46.9645 -31.0123 46.559 -31.0995C46.4529 -31.1166 45.9431 -30.9934 45.6077 -30.766C42.5965 -28.7421 38.6018 -24.0765 33.1972 -18.7079C30.0988 -15.6266 26.5418 -12.3008 22.4941 -9.11341C20.1385 -7.26955 17.6163 -5.66257 14.9424 -4.32468C-2.66241 4.52888 -11.0422 7.89256 -18.5408 13.9832C-18.9881 14.347 -19.494 14.6104 -20.0019 14.8814C-26.1986 17.7505 -33.1534 24.2296 -38.0994 29.5281C-40.8643 32.5033 -42.9943 35.09 -44.0138 36.498C-46.9189 40.5458 -52.3936 50.9324 -60.6332 60.3336C-68.1773 68.956 -76.2861 74.6733 -86.5117 79.7861C-94.3628 83.2009 -97.4782 86.9493 -105.718 93.6577C-107.025 94.7151 -108.164 95.7176 -109.608 96.9853C-109.608 96.9853 -109.625 96.9853 -109.625 97.0024C-112.019 99.1078 -114.334 101.297 -116.643 103.493V108.054C-106.951 101.19 -99.161 97.9613 -94.6641 94.3077C-92.1986 92.2535 -90.5556 89.2972 -88.0277 87.2487H-88.0258Z" fill="#F1117E"/>
<path d="M-85.6627 127.781C-84.6943 127.317 -83.8226 126.678 -83.0854 125.897C-81.0369 123.728 -77.7718 120.891 -75.1491 119.254C-71.7285 117.116 -68.1564 113.021 -64.5672 109.617C-58.9523 105.077 -53.6348 99.892 -49.5946 93.8848C-48.1885 91.914 -46.3598 90.2672 -44.4894 88.7455C-42.3727 87.0077 -40.1669 85.3666 -38.0994 83.5702C-35.5297 81.3871 -34.6599 82.3081 -19.297 66.4941C-17.5024 64.6464 -16.1815 63.3275 -14.44 62.0408C-13.5588 61.4419 -12.6265 60.809 -11.6941 60.3333C-3.84301 56.2496 5.3763 55.4537 13.4984 51.9725C18.8651 49.5014 22.9129 44.9495 27.1066 40.934C31.2017 37.0207 36.1686 34.1479 40.8569 31.023C46.6765 26.3764 52.2119 21.0494 56.3847 14.8451C57.7908 12.8743 59.6195 11.2256 61.4899 9.70581C63.6067 7.96807 65.8125 6.32697 67.88 4.53049C70.4496 2.34742 71.3194 3.2684 86.6824 -12.5456C88.477 -14.3932 89.7979 -15.7141 91.5394 -16.9989C92.4206 -17.5977 93.3529 -18.2307 94.2853 -18.7063C102.136 -22.7901 111.356 -23.586 119.478 -27.0691C124.844 -29.5383 128.892 -34.0902 133.086 -38.1057C137.181 -42.0189 142.148 -44.8918 146.836 -48.0167C152.656 -52.6633 158.191 -57.9902 162.362 -64.1945C163.77 -66.1654 165.599 -67.814 167.469 -69.3339C168.004 -69.7735 168.544 -70.2056 169.086 -70.6357H160.82C159.495 -69.1652 158.142 -67.5601 156.764 -65.7617C151.566 -59.3243 145.241 -53.0404 138.509 -48.2271C126.468 -39.8302 116.381 -31.7498 113.652 -31.6456C113.3 -31.6456 113.04 -31.9241 112.947 -32.2615C112.489 -33.9158 114.746 -36.0307 116.239 -37.5239C122.612 -43.7908 141.871 -53.2981 148.684 -62.8908C150.446 -65.4093 152.459 -67.9979 154.276 -70.6357H147.266C146.124 -69.872 144.972 -69.0648 143.931 -68.2253C142.4 -66.9897 141.441 -65.5552 140.357 -63.9311C136.573 -58.3844 128.157 -57.8917 115.906 -42.8243C112.639 -38.8372 108.47 -35.8014 104.128 -33.0896C98.9527 -29.8851 94.7268 -28.1777 90.4668 -24.6378C89.3032 -23.6694 86.7696 -21.0126 86.6635 -20.8894C85.7671 -19.993 83.169 -19.3904 83.459 -21.4162C83.7243 -22.8242 86.1708 -25.4829 87.4025 -27.7892C90.5369 -33.1313 94.2663 -39.0191 100.008 -41.873C103.018 -43.3701 106.063 -43.95 110.025 -45.9398C116.901 -49.3773 122.182 -54.5034 127.312 -60.1638C128.616 -61.4676 129.789 -62.9287 130.975 -64.3367C133.88 -67.2418 137.968 -68.934 141.862 -70.6357H130.78C130.126 -70.2833 129.47 -69.9156 128.809 -69.529C128.58 -69.3888 125.288 -67.2588 124.073 -66.3075C121.674 -64.4561 119.845 -62.0039 117.63 -59.9516C111.416 -53.7378 100.677 -51.098 94.2853 -44.8482C86.2769 -36.8398 81.7762 -28.7064 76.5061 -18.7082C73.8986 -13.9309 71.2399 -9.62157 67.8781 -5.32744C63.0022 0.833298 57.1409 4.97014 50.7849 13.2798C45.585 19.7172 39.2594 25.9992 32.5301 30.8126C20.4872 39.2095 10.4 47.2899 7.67117 47.396C7.32059 47.396 7.06097 47.1155 6.96812 46.7782C6.50952 45.1239 8.7646 43.009 10.2598 41.5157C16.6328 35.2489 35.8919 25.7415 42.7045 16.1489C45.2799 12.4706 48.3896 8.63702 50.6447 4.72379C55.134 -2.95107 57.7567 -6.24274 62.8449 -10.3985C64.6395 -11.8937 66.2749 -13.4742 67.8781 -15.1873C69.1288 -16.5233 70.3435 -17.5106 71.4009 -18.7082C86.5403 -35.9947 83.1785 -40.1675 86.997 -43.5293C100.518 -55.1647 111.574 -59.1253 117.295 -63.7738C119.684 -65.7636 121.301 -68.5986 123.696 -70.6357H113.601C111.505 -68.8658 109.205 -66.8362 106.239 -64.4238C104.933 -63.3664 103.793 -62.3639 102.349 -61.0981C102.349 -61.0981 102.332 -61.0981 102.332 -61.0791C97.0672 -56.4477 92.1799 -51.4145 86.9098 -46.7849C85.3616 -45.466 82.2101 -42.0682 79.6746 -35.2556C77.3513 -30.6962 73.4608 -28.0564 67.88 -22.9341C67.3702 -22.4755 66.8586 -21.8938 66.3128 -21.384C65.3975 -20.5218 64.4462 -19.6235 63.6541 -18.7082C58.8653 -13.2865 55.82 -7.35322 51.3496 -3.35661C50.2752 -2.24802 48.8634 -1.60939 47.5994 -0.963188C41.7191 1.90588 32.5472 3.82554 22.8295 9.51062C22.6002 9.65275 19.3085 11.7809 18.0938 12.7322C15.6947 14.5855 13.866 17.0377 11.6507 19.0881C5.43694 25.3019 -5.30218 27.9417 -11.6941 34.1915C-19.7025 42.1998 -24.2032 50.3352 -29.4732 60.3333C-32.0808 65.1088 -34.7395 69.4181 -38.0994 73.7122C-42.9772 79.873 -48.8385 84.0098 -55.1944 92.3195C-55.9866 93.2992 -57.4761 94.4306 -58.0768 94.8683C-58.2037 94.9612 -58.325 95.0635 -58.4444 95.1658C-58.7173 95.397 -59.3824 95.8064 -60.5706 97.1935C-61.9692 98.827 -66.2102 104.002 -66.5892 104.34C-68.8064 106.32 -71.1032 108.175 -73.4473 109.852C-85.4902 118.249 -95.5775 126.33 -98.3063 126.436C-98.6588 126.436 -98.9165 126.155 -99.0094 125.82C-99.468 124.165 -97.211 122.049 -95.7177 120.555C-93.7203 118.592 -90.4609 116.312 -86.7125 113.809C-86.3942 113.597 -85.7821 113.108 -85.151 112.632C-84.8175 112.38 -84.465 112.153 -84.1031 111.944C-82.7216 111.148 -80.7356 109.534 -79.6308 108.621C-79.2177 108.279 -78.4028 107.231 -78.1413 106.909C-76.9512 105.437 -75.2685 104.613 -74.2414 104.218C-73.3981 103.894 -72.604 103.462 -71.8688 102.941C-68.5961 100.624 -63.9855 96.534 -60.2788 90.9778L-60.3754 91.1995C-58.5865 88.7682 -56.7825 86.2838 -55.3328 83.7672C-50.8435 76.0924 -48.2207 72.8007 -43.1326 68.6449C-41.338 67.1497 -39.7026 65.5693 -38.0975 63.8581C-36.8487 62.5202 -35.634 61.5348 -34.5766 60.3371C-19.4372 43.0488 -22.799 38.8779 -18.9805 35.5161C-5.45947 23.8787 5.59612 19.9181 11.3172 15.2715C13.7845 13.2173 15.4256 10.261 17.9555 8.21252C21.3874 5.43063 41.2454 -3.22964 48.9221 -9.44533C49.5721 -9.97215 50.1368 -10.5009 50.6106 -10.9936C52.0546 -12.5266 53.834 -15.2896 55.5585 -18.7044C58.9904 -25.481 62.951 -34.742 67.88 -41.4125C70.3283 -44.7402 73.0041 -47.416 75.9433 -48.7899C76.2977 -48.877 76.6122 -48.6307 76.6122 -48.2782C75.4866 -43.2791 71.0844 -39.1764 67.88 -35.7805C65.4865 -33.245 63.6559 -31.0278 64.4481 -29.7941C65.2459 -28.5984 67.1958 -30.5199 67.88 -31.204C72.5986 -35.2708 80.4497 -46.2202 85.9263 -50.9369C86.7582 -51.6514 87.9691 -52.9627 88.7423 -53.7359C91.9999 -57.4672 94.1109 -60.6906 98.2838 -64.4049C101.225 -67.0257 103.84 -68.9984 106.307 -70.6338H95.7047C92.6309 -68.8753 89.9854 -67.1224 87.4404 -65.0549C86.9932 -64.691 86.4853 -64.4276 85.9794 -64.1585C79.7826 -61.2895 72.8279 -54.8104 67.8819 -49.5119C65.117 -46.5367 62.987 -43.9481 61.9675 -42.5401C59.0624 -38.4923 53.5877 -28.1057 45.3481 -18.7044C37.804 -10.084 29.6952 -4.36666 19.4677 0.746124C11.6166 4.16286 8.5012 7.91122 0.261627 14.6177C-1.04405 15.6751 -2.18486 16.6776 -3.62887 17.9454C-3.62887 17.9454 -3.64592 17.9454 -3.64592 17.9624C-8.9103 22.5958 -13.7995 27.629 -19.0676 32.2566C-20.6178 33.5775 -23.7673 36.9752 -26.3029 43.7879C-28.6262 48.3473 -32.5167 50.9871 -38.0975 56.1093C-38.6092 56.5679 -39.1189 57.1478 -39.6647 57.6595C-40.58 58.5217 -41.5313 59.418 -42.3234 60.3352C-47.1122 65.7569 -50.1575 71.6902 -54.6297 75.685C-55.7042 76.7954 -57.1141 77.4322 -58.38 78.0803C-63.578 80.6177 -78.4502 87.2579 -78.7307 87.3886C-85.1965 90.3941 -87.8704 92.6208 -89.9189 94.6693C-92.0565 96.8088 -95.9451 101.764 -98.1793 102.833C-99.1079 103.277 -111.791 108.097 -116.643 112.291V119.53C-115.335 118.304 -113.345 113.176 -101.958 108.215C-100.666 107.652 -99.322 107.216 -97.9614 106.847C-94.7778 105.985 -90.4798 103.46 -88.1793 101.675C-86.9816 100.459 -85.8086 99.2022 -84.6451 97.9174C-83.3413 96.6136 -82.1701 95.1545 -80.9839 93.7465C-77.0574 89.8162 -70.9705 88.1049 -66.125 85.5921C-62.8333 83.303 -58.4937 80.1819 -58.0976 82.1243C-58.0976 82.5809 -58.5562 83.1267 -59.2934 83.7616C-61.2301 85.3629 -65.0865 87.4758 -68.0257 89.8522C-69.5569 91.0877 -70.5157 92.5223 -71.5997 94.1463C-72.9376 96.1039 -74.8516 97.4323 -77.3094 98.9976L-78.2569 99.4277H-78.8254C-78.96 99.4277 -79.0926 99.4713 -79.2006 99.5528L-79.4224 99.7196L-79.5133 99.8712C-79.6422 100.085 -79.8241 100.263 -80.0401 100.389C-80.5234 100.665 -81.2264 101.101 -81.6566 101.469C-82.064 101.817 -82.7121 102.405 -83.1897 102.841C-83.3128 102.952 -83.4398 103.057 -83.5744 103.155C-84.7739 104.035 -86.0436 105.033 -87.3853 106.199C-88.1054 106.824 -88.9013 107.36 -89.7503 107.792C-90.6637 108.257 -91.7476 108.738 -92.8335 109.047C-93.1082 109.125 -93.8302 109.172 -94.1505 109.2C-94.8725 109.263 -95.5396 109.604 -96.0342 110.133C-97.0177 111.184 -97.5767 112.322 -98.9923 113.589C-100.817 115.225 -104.787 119.396 -107.122 121.656C-109.457 123.915 -113.916 128.401 -116.643 130.042V138.859C-109.025 135.213 -100.251 134.338 -92.4791 131.008C-90.8911 130.277 -87.6183 128.715 -85.6627 127.779V127.781ZM-22.5185 57.6197C-22.2513 56.2117 -19.8067 53.5529 -18.5749 51.2486C-15.4406 45.9065 -11.7112 40.0206 -5.96922 37.1647C-2.95992 35.6696 0.0853806 35.0878 4.04788 33.098C10.923 29.6604 16.2045 24.5363 21.3343 18.8739C22.6381 17.5702 23.8111 16.111 24.9974 14.7011C28.922 10.7765 35.0088 9.0634 39.8544 6.55249C43.1461 4.2633 47.4876 1.14219 47.8817 3.0827C47.8817 3.54129 47.425 4.08705 46.686 4.71999C44.7493 6.32319 40.8948 8.43614 37.9537 10.8125C36.4225 12.0462 35.4636 13.4826 34.3797 15.1066C30.5953 20.6515 22.1795 21.1442 9.92815 36.2134C6.66112 40.2006 2.49207 43.2364 -1.84944 45.9482C-7.02476 49.1527 -11.2507 50.8601 -15.5107 54.3981C-16.6742 55.3665 -19.2079 58.0252 -19.314 58.1484C-20.2104 59.0447 -22.8084 59.6473 -22.5185 57.6197Z" fill="#F1117E"/>
<path d="M179.48 -70.6374C177.089 -68.875 175.004 -67.179 173.858 -65.8866C173.463 -65.4602 173.206 -65.0054 172.802 -64.3724C168.453 -57.5598 162.326 -58.0355 150.427 -42.8961C148.633 -40.6259 146.52 -38.6531 144.108 -37.0689C136.783 -32.2271 134.09 -33.1613 120.272 -20.0989C119.779 -19.6403 119.269 -19.1476 118.758 -18.708C118.371 -18.3744 117.983 -18.022 117.579 -17.7055C110.66 -12.3369 94.2872 -0.945892 91.6664 -1.75697C91.5262 -1.81003 91.4371 -1.95026 91.4902 -2.10944C93.3379 -8.69276 108.443 -14.484 110.133 -16.9494C110.257 -17.1256 110.31 -17.6543 109.605 -17.6543C93.3909 -17.9708 92 -5.10358 87.2813 -0.773445C87.1752 -0.703331 71.8596 8.6619 67.8801 13.1512C67.4859 13.5776 67.2282 14.0324 66.8245 14.6653C62.4754 21.478 56.3488 21.0023 44.45 36.1417C42.6554 38.4119 40.5424 40.3846 38.13 41.9689C30.8058 46.8107 28.1129 45.8764 14.2944 58.9388C13.8017 59.3974 13.2919 59.8902 12.7803 60.3298C12.3937 60.6633 12.0052 61.0158 11.6016 61.3323C4.68282 66.7009 -11.6902 78.0919 -14.311 77.2808C-14.4513 77.2277 -14.5403 77.0875 -14.4873 76.9283C-12.6396 70.345 2.46564 64.5538 4.15601 62.0884C4.27918 61.9121 4.33224 61.3834 3.62729 61.3834C-12.5866 61.0669 -13.9775 73.9342 -18.6961 78.2643C-18.8022 78.3344 -34.1178 87.6997 -38.0974 92.189C-38.4916 92.6154 -38.7493 93.0702 -39.1529 93.7031C-43.502 100.516 -49.6286 100.04 -61.5275 115.179C-63.3221 117.45 -65.4351 119.422 -67.8474 121.007C-75.1717 125.848 -77.8645 124.914 -91.6831 137.977C-92.1758 138.435 -92.6855 138.928 -93.1972 139.368C-93.5838 139.701 -93.9723 140.054 -94.3759 140.37C-99.7218 144.518 -110.707 152.258 -116.639 155.193V155.242H-106.627C-104.391 154.151 -101.948 152.843 -99.2708 151.215C-96.7883 149.718 -94.446 147.994 -92.2648 146.093C-89.2366 143.453 -86.5077 141.217 -84.2205 139.368H-84.2223C-72.6399 130.004 -69.064 129.176 -60.3147 123.332C-57.745 121.605 -55.3857 119.477 -53.3429 117.048C-48.4177 111.139 -43.4698 106.542 -38.0974 101.169C-32.0504 95.1244 -24.9289 90.2333 -18.5028 84.5691C-13.2745 80.4322 -5.89901 79.8334 6.7067 72.1756C9.18919 70.6785 11.5314 68.9541 13.7126 67.0533C16.7409 64.4136 19.4697 62.1774 21.757 60.3279C33.3394 50.9627 36.9153 50.1345 45.6647 44.2903C48.2343 42.5639 50.5936 40.4358 52.6365 38.0064C57.5616 32.0977 62.5096 27.5004 67.882 22.128C73.929 16.0828 81.0505 11.1917 87.4765 5.52752C92.7049 1.39067 100.08 0.791847 112.686 -6.86596C115.169 -8.36303 117.511 -10.0875 119.692 -11.9882C122.72 -14.628 125.449 -16.8641 127.736 -18.7137C139.321 -28.0789 142.895 -28.907 151.644 -34.7513C154.214 -36.4776 156.573 -38.6058 158.616 -41.0352C163.541 -46.9439 168.489 -51.5412 173.861 -56.9136C178.866 -61.9165 184.604 -66.1291 190.077 -70.6431H179.482L179.48 -70.6374Z" fill="#F1117E"/>
<path d="M5.97809 27.6895C6.13771 28.8672 5.46258 30.0363 4.35606 30.4871C2.73618 31.1493 0.939434 30.1161 0.704325 28.3862C0.54471 27.2085 1.21984 26.0395 2.32636 25.5887C3.94839 24.9286 5.74299 25.9596 5.97809 27.6895ZM2.55284 23.1319C-0.572593 23.6474 -2.43189 26.8569 -1.31675 29.812C-0.492787 31.997 1.81731 33.3257 4.13173 32.946C7.25716 32.4305 9.11646 29.221 8.00132 26.2659C7.1752 24.0809 4.86726 22.7522 2.55284 23.1319Z" fill="white"/>
<path d="M17.8198 26.6732L13.9546 27.7085L17.1727 19.9736C17.2784 19.717 17.0433 19.4538 16.7737 19.525L9.64064 21.4361C8.93747 21.6237 8.55138 22.4045 8.88787 23.0861C9.13592 23.5844 9.73555 23.8109 10.2834 23.6642L13.4563 22.8144L10.2381 30.5557C10.1324 30.8102 10.3675 31.0712 10.635 31L18.3828 28.9229C18.9285 28.7762 19.3362 28.2823 19.3017 27.7236C19.2542 26.9643 18.5295 26.4812 17.822 26.671L17.8198 26.6732Z" fill="white"/>
<path d="M42.2779 13.8911C42.0902 13.1923 41.2965 12.8191 40.5998 13.1664C40.1015 13.4166 39.8686 13.9968 40.0109 14.5274L41.0096 18.2568L33.5659 15.099C33.3071 14.989 33.031 15.2241 33.1022 15.4937L35.1642 23.1919C35.3066 23.7225 35.7984 24.1086 36.3549 24.0763C37.1314 24.031 37.6318 23.3084 37.4463 22.6095L36.439 18.8478L43.8827 22.0078C44.1415 22.1178 44.4176 21.8826 44.3464 21.613L42.2757 13.8868L42.2779 13.8911Z" fill="white"/>
<path d="M26.4865 24.5791C23.8831 25.2758 21.5751 24.4453 21.2516 23.2396C20.928 22.0317 22.5112 20.1595 25.1147 19.4628C27.7181 18.7661 30.0261 19.5965 30.3496 20.8022C30.6732 22.0101 29.09 23.8824 26.4865 24.5791ZM24.515 17.2238C20.7468 18.2333 18.2685 21.1991 18.9803 23.85C19.6899 26.5009 23.3201 27.8296 27.0861 26.8202C30.8544 25.8107 33.3327 22.8449 32.6209 20.194C31.9113 17.5452 28.2811 16.2144 24.515 17.2238Z" fill="white"/>
</g>
<defs>
<clipPath id="clip0_671_1438">
<rect width="46" height="46" rx="23" fill="white"/>
</clipPath>
</defs>
</svg>
