<svg width="64" height="64" viewBox="0 0 64 64" fill="none" xmlns="http://www.w3.org/2000/svg">
<g clip-path="url(#clip0_534_579)">
<rect width="64" height="64" rx="16" fill="#005BFF"/>
<path d="M-122.47 121.39C-117.693 117.522 -90.0645 105.473 -79.3865 96.8248C-78.4795 96.0892 -77.6964 95.3562 -77.0347 94.6707C-75.0256 92.5404 -72.5525 88.6963 -70.1533 83.9426C-65.3784 74.5142 -59.8654 61.6294 -53.0077 52.3487C-49.6039 47.7189 -45.8811 43.9961 -41.7892 42.0872C-41.2988 41.9633 -40.8584 42.306 -40.8584 42.7964C-42.4272 49.7517 -48.5493 55.4598 -53.0077 60.1872C-56.3377 63.7149 -58.8872 66.7997 -57.7825 68.5134C-56.6725 70.1771 -53.9595 67.5063 -53.0077 66.5545C-46.4453 60.8964 -35.5194 45.6624 -27.9024 39.0973C-26.7423 38.1034 -25.0602 36.2789 -23.9845 35.2031C-19.4549 30.0118 -16.5151 25.5296 -10.7094 20.362C5.99321 5.47068 15.1553 5.61832 33.4029 -8.68501C41.0937 -14.7095 47.8301 -20.7604 53.1691 -26.0256C60.9575 -33.7402 65.6612 -39.8649 65.6111 -42.2405C65.6111 -42.8047 65.3421 -43.1475 64.7779 -43.2687C64.6303 -43.2925 63.921 -43.1211 63.4544 -42.8047C59.2649 -39.9889 53.707 -33.4977 46.1875 -26.0283C41.8768 -21.7412 36.9279 -17.1141 31.2962 -12.6794C28.019 -10.114 24.5098 -7.87821 20.7896 -6.0168C-3.70406 6.3012 -15.3629 10.9811 -25.7958 19.455C-26.418 19.9612 -27.122 20.3277 -27.8286 20.7047C-36.4501 24.6965 -46.1263 33.7109 -53.0077 41.0827C-56.8544 45.2221 -59.8179 48.821 -61.2364 50.7799C-65.2783 56.4116 -72.8953 70.8626 -84.359 83.9426C-94.8552 95.9389 -106.137 103.893 -120.364 111.007C-131.287 115.758 -135.622 120.973 -147.085 130.306C-148.905 131.778 -150.489 133.172 -152.498 134.936C-152.498 134.936 -152.522 134.936 -152.522 134.96C-155.852 137.889 -159.074 140.934 -162.285 143.99V150.336C-148.802 140.787 -137.963 136.294 -131.706 131.211C-128.276 128.353 -125.99 124.24 -122.473 121.39H-122.47Z" fill="#F1117E"/>
<path d="M-119.183 177.783C-117.835 177.137 -116.623 176.249 -115.597 175.162C-112.747 172.143 -108.204 168.196 -104.555 165.918C-99.7961 162.944 -94.8262 157.247 -89.8325 152.512C-82.0204 146.194 -74.6222 138.981 -69.0011 130.623C-67.0447 127.881 -64.5005 125.59 -61.8982 123.472C-58.9531 121.055 -55.8842 118.772 -53.0077 116.272C-49.4325 113.235 -48.2223 114.516 -26.8478 92.514C-24.3509 89.9434 -22.5132 88.1083 -20.0903 86.3181C-18.8643 85.485 -17.5671 84.6043 -16.2699 83.9426C-5.34662 78.2608 7.48024 77.1534 18.7805 72.3101C26.2473 68.872 31.879 62.539 37.7137 56.9521C43.4113 51.5076 50.3217 47.5106 56.8445 43.1629C64.9414 36.6981 72.6428 29.2867 78.4485 20.6546C80.4048 17.9126 82.9491 15.6188 85.5514 13.5043C88.4964 11.0865 91.5654 8.80327 94.4419 6.30381C98.017 3.26649 99.2272 4.54786 120.602 -17.4542C123.099 -20.0249 124.936 -21.8625 127.359 -23.6501C128.585 -24.4833 129.883 -25.3639 131.18 -26.0257C142.103 -31.7075 154.93 -32.8148 166.23 -37.6608C173.697 -41.0962 179.329 -47.4293 185.163 -53.0161C190.861 -58.4606 197.771 -62.4576 204.294 -66.8053C212.391 -73.2702 220.092 -80.6815 225.895 -89.3136C227.854 -92.0557 230.399 -94.3495 233.001 -96.464C233.744 -97.0757 234.496 -97.6768 235.25 -98.2753H223.749C221.906 -96.2293 220.024 -93.9962 218.107 -91.4941C210.875 -82.5377 202.074 -73.7948 192.709 -67.098C175.956 -55.4154 161.922 -44.1731 158.125 -44.0281C157.635 -44.0281 157.274 -44.4157 157.145 -44.885C156.506 -47.1867 159.647 -50.1291 161.724 -52.2067C170.591 -60.9258 197.386 -74.1534 206.865 -87.4997C209.317 -91.0037 212.117 -94.6052 214.645 -98.2753H204.893C203.303 -97.2128 201.7 -96.0896 200.252 -94.9216C198.122 -93.2026 196.788 -91.2067 195.28 -88.9472C190.014 -81.2299 178.306 -80.5444 161.26 -59.5812C156.715 -54.0338 150.914 -49.8101 144.874 -46.0372C137.674 -41.5787 131.794 -39.2032 125.867 -34.2781C124.248 -32.9308 120.723 -29.2344 120.575 -29.063C119.328 -27.8159 115.714 -26.9775 116.117 -29.796C116.486 -31.7549 119.89 -35.454 121.604 -38.6627C125.965 -46.0952 131.153 -54.2869 139.142 -58.2576C143.329 -60.3405 147.566 -61.1473 153.079 -63.9157C162.644 -68.6984 169.992 -75.8303 177.13 -83.7057C178.944 -85.5196 180.576 -87.5524 182.226 -89.5114C186.268 -93.5532 191.955 -95.9077 197.373 -98.2753H181.954C181.045 -97.7849 180.133 -97.2734 179.213 -96.7355C178.893 -96.5404 174.314 -93.5769 172.624 -92.2534C169.286 -89.6775 166.742 -86.2658 163.659 -83.4104C155.014 -74.7651 140.073 -71.0924 131.18 -62.397C120.038 -51.2549 113.776 -39.9388 106.443 -26.0283C102.816 -19.3815 99.1165 -13.386 94.4392 -7.41157C87.6554 1.15989 79.5005 6.9155 70.6575 18.4768C63.4228 27.4332 54.6219 36.1734 45.2595 42.8702C28.5042 54.5528 14.4698 65.7951 10.6731 65.9428C10.1853 65.9428 9.82414 65.5526 9.69495 65.0833C9.0569 62.7815 12.1944 59.8391 14.2746 57.7615C23.1414 49.0424 49.9368 35.8148 59.4152 22.4686C62.9983 17.351 67.3249 12.0172 70.4624 6.57275C76.7084 -4.10532 80.3574 -8.68503 87.4365 -14.467C89.9334 -16.5472 92.2087 -18.7461 94.4392 -21.1296C96.1794 -22.9884 97.8694 -24.362 99.3406 -26.0283C120.404 -50.079 115.727 -55.8847 121.039 -60.562C139.851 -76.7504 155.233 -82.2608 163.193 -88.7283C166.517 -91.4967 168.766 -95.441 172.099 -98.2753H158.054C155.138 -95.8128 151.937 -92.989 147.811 -89.6327C145.994 -88.1615 144.407 -86.7667 142.398 -85.0055C142.398 -85.0055 142.375 -85.0055 142.375 -84.9791C135.05 -78.5354 128.25 -71.5327 120.918 -65.0916C118.764 -63.2565 114.38 -58.5292 110.852 -49.0507C107.619 -42.7072 102.207 -39.0345 94.4419 -31.9078C93.7326 -31.2698 93.0208 -30.4604 92.2614 -29.7511C90.988 -28.5515 89.6644 -27.3018 88.5623 -26.0283C81.8997 -18.4851 77.6628 -10.23 71.4432 -4.66955C69.9482 -3.12716 67.984 -2.23864 66.2254 -1.33957C58.0442 2.65218 45.2832 5.32301 31.763 13.2327C31.4439 13.4304 26.8642 16.3913 25.1742 17.7148C21.8363 20.2934 19.292 23.7051 16.2099 26.5579C7.56461 35.2031 -7.37677 38.8759 -16.2699 47.5712C-27.412 58.7133 -33.6738 70.0321 -41.0061 83.9426C-44.634 90.5867 -48.3331 96.5822 -53.0077 102.557C-59.7942 111.128 -67.9491 116.884 -76.7921 128.445C-77.8942 129.808 -79.9665 131.382 -80.8023 131.991C-80.979 132.12 -81.1477 132.263 -81.3138 132.405C-81.6935 132.727 -82.6189 133.296 -84.272 135.226C-86.2178 137.499 -92.1184 144.699 -92.6457 145.169C-95.7305 147.924 -98.926 150.505 -102.187 152.838C-118.943 164.521 -132.977 175.763 -136.774 175.911C-137.264 175.911 -137.623 175.521 -137.752 175.054C-138.39 172.752 -135.25 169.807 -133.172 167.73C-130.393 164.998 -125.858 161.827 -120.643 158.344C-120.2 158.048 -119.349 157.368 -118.471 156.706C-118.007 156.356 -117.516 156.039 -117.013 155.749C-115.091 154.642 -112.328 152.396 -110.791 151.125C-110.216 150.65 -109.082 149.192 -108.718 148.744C-107.062 146.695 -104.721 145.548 -103.292 145C-102.119 144.549 -101.014 143.948 -99.9912 143.223C-95.4378 139.998 -89.0231 134.309 -83.866 126.578L-84.0005 126.887C-81.5115 123.504 -79.0015 120.048 -76.9846 116.546C-70.7386 105.868 -67.0896 101.288 -60.0104 95.5065C-57.5136 93.4263 -55.2382 91.2274 -53.0051 88.8466C-51.2676 86.9852 -49.5775 85.6142 -48.1063 83.9478C-27.0429 59.8945 -31.7201 54.0915 -26.4075 49.4142C-7.59561 33.2231 7.78609 27.7127 15.7458 21.2478C19.1786 18.3898 21.4619 14.2768 24.9817 11.4266C29.7565 7.55618 57.385 -4.4929 68.0657 -13.1408C68.9701 -13.8738 69.7558 -14.6094 70.4149 -15.2949C72.424 -17.4278 74.8997 -21.272 77.299 -26.023C82.0738 -35.4514 87.5842 -48.3362 94.4419 -57.6169C97.8483 -62.2467 101.571 -65.9695 105.66 -67.881C106.153 -68.0023 106.591 -67.6596 106.591 -67.1692C105.025 -60.2139 98.9003 -54.5058 94.4419 -49.7811C91.1119 -46.2534 88.565 -43.1686 89.6671 -41.4522C90.7771 -39.7885 93.4901 -42.462 94.4419 -43.4138C101.007 -49.0718 111.93 -64.3059 119.55 -70.8683C120.707 -71.8622 122.392 -73.6868 123.468 -74.7625C128 -79.9539 130.937 -84.4386 136.743 -89.6063C140.835 -93.2527 144.473 -95.9973 147.906 -98.2727H133.154C128.878 -95.8259 125.197 -93.3871 121.656 -90.5106C121.034 -90.0044 120.328 -89.6379 119.624 -89.2635C111.002 -85.2718 101.326 -76.2574 94.4445 -68.8856C90.5978 -64.7462 87.6343 -61.1446 86.2158 -59.1857C82.174 -53.554 74.5569 -39.103 63.0932 -26.023C52.597 -14.0293 41.3152 -6.07483 27.0857 1.0386C16.1624 5.79232 11.8279 11.0074 0.364182 20.3382C-1.45241 21.8094 -3.03963 23.2042 -5.04869 24.968C-5.04869 24.968 -5.0724 24.968 -5.0724 24.9917C-12.3968 31.4381 -19.1991 38.4408 -26.5287 44.8793C-28.6854 46.717 -33.0674 51.4443 -36.5951 60.9228C-39.8275 67.2663 -45.2404 70.9391 -53.0051 78.0657C-53.7169 78.7037 -54.4262 79.5105 -55.1855 80.2224C-56.459 81.422 -57.7825 82.6691 -58.8846 83.9452C-65.5472 91.4884 -69.7841 99.7435 -76.0064 105.301C-77.5013 106.846 -79.4629 107.732 -81.2241 108.634C-88.4562 112.164 -109.148 121.403 -109.538 121.585C-118.534 125.766 -122.254 128.864 -125.104 131.714C-128.078 134.691 -133.489 141.586 -136.597 143.073C-137.889 143.69 -155.536 150.397 -162.285 156.232V166.303C-160.466 164.598 -157.698 157.463 -141.854 150.561C-140.056 149.777 -138.187 149.171 -136.294 148.657C-131.865 147.457 -125.885 143.945 -122.684 141.462C-121.018 139.769 -119.386 138.021 -117.767 136.233C-115.953 134.419 -114.324 132.389 -112.673 130.43C-107.21 124.962 -98.7414 122.581 -91.9998 119.085C-87.4201 115.9 -81.3823 111.558 -80.8313 114.26C-80.8313 114.896 -81.4693 115.655 -82.495 116.538C-85.1895 118.766 -90.5549 121.706 -94.6442 125.012C-96.7746 126.731 -98.1087 128.727 -99.6168 130.987C-101.478 133.71 -104.141 135.558 -107.561 137.736L-108.879 138.335H-109.67C-109.857 138.335 -110.042 138.395 -110.192 138.509L-110.5 138.741L-110.627 138.952C-110.806 139.25 -111.059 139.497 -111.36 139.672C-112.032 140.056 -113.011 140.663 -113.609 141.174C-114.176 141.659 -115.078 142.477 -115.742 143.083C-115.913 143.239 -116.09 143.384 -116.277 143.521C-117.946 144.744 -119.713 146.134 -121.579 147.755C-122.581 148.625 -123.689 149.371 -124.87 149.973C-126.141 150.618 -127.649 151.288 -129.159 151.718C-129.542 151.826 -130.546 151.892 -130.992 151.932C-131.996 152.019 -132.924 152.493 -133.613 153.229C-134.981 154.692 -135.759 156.274 -137.728 158.038C-140.267 160.313 -145.791 166.116 -149.039 169.262C-152.287 172.404 -158.491 178.645 -162.285 180.928V193.196C-151.686 188.124 -139.479 186.905 -128.666 182.273C-126.457 181.255 -121.904 179.083 -119.183 177.78V177.783ZM-31.3299 80.167C-30.9581 78.2081 -27.557 74.509 -25.8432 71.3029C-21.4824 63.8704 -16.2936 55.6813 -8.30482 51.708C-4.11798 49.6277 0.118973 48.8183 5.63202 46.0499C15.1974 41.2672 22.5455 34.138 29.6827 26.2599C31.4967 24.446 33.1287 22.4158 34.7792 20.4542C40.2395 14.9939 48.7081 12.6105 55.4498 9.11703C60.0295 5.93206 66.0699 1.58965 66.6183 4.28948C66.6183 4.92754 65.9828 5.68686 64.9546 6.56747C62.26 8.798 56.8973 11.7378 52.8053 15.044C50.675 16.7604 49.3409 18.7589 47.8328 21.0184C42.5676 28.733 30.8586 29.4185 13.8132 50.3844C9.26782 55.9318 3.46741 60.1555 -2.57295 63.9285C-9.77339 68.3869 -15.6529 70.7624 -21.5799 75.6849C-23.1988 77.0322 -26.7238 80.7312 -26.8715 80.9026C-28.1186 82.1497 -31.7333 82.9881 -31.3299 80.167Z" fill="#F1117E"/>
<path d="M249.712 -98.2778C246.385 -95.8258 243.484 -93.4661 241.889 -91.6679C241.341 -91.0747 240.982 -90.442 240.421 -89.5613C234.37 -80.0829 225.846 -80.7447 209.291 -59.6812C206.794 -56.5226 203.854 -53.778 200.498 -51.5738C190.308 -44.8374 186.561 -46.1372 167.335 -27.9634C166.65 -27.3254 165.941 -26.6399 165.229 -26.0282C164.691 -25.5641 164.15 -25.0738 163.589 -24.6334C153.963 -17.1641 131.183 -1.31572 127.536 -2.44417C127.341 -2.51799 127.217 -2.7131 127.291 -2.93457C129.862 -12.094 150.878 -20.1513 153.23 -23.5815C153.401 -23.8267 153.475 -24.5623 152.494 -24.5623C129.936 -25.0026 128.001 -7.10033 121.436 -1.07579C121.288 -0.978241 99.9792 12.0516 94.4424 18.2976C93.894 18.8909 93.5354 19.5236 92.9739 20.4043C86.923 29.8827 78.399 29.2209 61.844 50.2844C59.3472 53.443 56.4074 56.1876 53.0511 58.3918C42.8608 65.1282 39.1142 63.8284 19.8885 82.0022C19.2029 82.6402 18.4937 83.3257 17.7818 83.9374C17.244 84.4015 16.7035 84.8918 16.1419 85.3322C6.51582 92.8015 -16.264 108.65 -19.9104 107.521C-20.1055 107.448 -20.2294 107.253 -20.1556 107.031C-17.585 97.8716 3.43105 89.8143 5.78287 86.3841C5.95424 86.1389 6.02805 85.4033 5.04726 85.4033C-17.5111 84.963 -19.4464 102.865 -26.0114 108.89C-26.1591 108.987 -47.4677 122.017 -53.0045 128.263C-53.5529 128.856 -53.9115 129.489 -54.473 130.37C-60.5239 139.848 -69.0479 139.186 -85.6029 160.25C-88.0997 163.409 -91.0395 166.153 -94.3958 168.357C-104.586 175.094 -108.333 173.794 -127.558 191.968C-128.244 192.606 -128.953 193.291 -129.665 193.903C-130.203 194.367 -130.743 194.857 -131.305 195.298C-138.743 201.069 -154.027 211.837 -162.279 215.921V215.989H-148.35C-145.239 214.471 -141.841 212.652 -138.115 210.387C-134.661 208.304 -131.403 205.905 -128.368 203.26C-124.155 199.587 -120.358 196.476 -117.176 193.903H-117.178C-101.064 180.876 -96.0885 179.724 -83.9155 171.592C-80.3403 169.191 -77.0578 166.23 -74.2156 162.85C-67.3632 154.629 -60.4791 148.233 -53.0045 140.758C-44.5912 132.347 -34.683 125.542 -25.7425 117.662C-18.4682 111.906 -8.20673 111.073 9.33167 100.419C12.7856 98.3356 16.0443 95.9364 19.079 93.2919C23.2923 89.6192 27.0889 86.5081 30.2712 83.9348C46.3859 70.9049 51.3611 69.7527 63.534 61.6216C67.1092 59.2197 70.3917 56.2588 73.2339 52.8787C80.0863 44.658 86.9704 38.2617 94.445 30.787C102.858 22.3764 112.767 15.5714 121.707 7.69077C128.981 1.93516 139.243 1.10201 156.781 -9.55232C160.235 -11.6352 163.494 -14.0345 166.529 -16.679C170.742 -20.3517 174.538 -23.4628 177.721 -26.0361C193.838 -39.066 198.811 -40.2181 210.984 -48.3493C214.559 -50.7512 217.841 -53.712 220.684 -57.0921C227.536 -65.3129 234.42 -71.7092 241.895 -79.1839C248.858 -86.1444 256.841 -92.0054 264.456 -98.2857H249.715L249.712 -98.2778Z" fill="#F1117E"/>
<path d="M10.6027 38.5246C10.8247 40.1631 9.88543 41.7896 8.34593 42.4168C6.09218 43.3381 3.59236 41.9007 3.26526 39.4939C3.04318 37.8553 3.98249 36.2288 5.522 35.6016C7.77874 34.6833 10.2756 36.1178 10.6027 38.5246ZM5.8371 32.1835C1.48867 32.9007 -1.09818 37.3662 0.453333 41.4775C1.59971 44.5175 4.81376 46.3661 8.03382 45.838C12.3823 45.1207 14.9691 40.6553 13.4176 36.5439C12.2682 33.5039 9.05716 31.6553 5.8371 32.1835Z" fill="white"/>
<path d="M27.079 37.1108L21.7012 38.5513L26.1787 27.7898C26.3257 27.4326 25.9986 27.0665 25.6235 27.1655L15.6992 29.8244C14.7209 30.0855 14.1837 31.1719 14.6519 32.1202C14.997 32.8134 15.8313 33.1285 16.5935 32.9244L21.008 31.7421L16.5305 42.5126C16.3835 42.8667 16.7106 43.2298 17.0827 43.1308L27.8622 40.2408C28.6215 40.0368 29.1887 39.3496 29.1407 38.5723C29.0746 37.5159 28.0663 36.8437 27.082 37.1078L27.079 37.1108Z" fill="white"/>
<path d="M61.1062 19.327C60.8451 18.3547 59.7408 17.8355 58.7715 18.3187C58.0782 18.6668 57.7541 19.474 57.9522 20.2123L59.3416 25.401L48.9852 21.0075C48.6251 20.8545 48.241 21.1816 48.34 21.5567L51.209 32.2672C51.407 33.0055 52.0913 33.5427 52.8655 33.4976C53.9459 33.4346 54.6421 32.4293 54.384 31.457L52.9826 26.2232L63.339 30.6197C63.6991 30.7727 64.0832 30.4456 63.9842 30.0705L61.1032 19.321L61.1062 19.327Z" fill="white"/>
<path d="M39.1365 34.1968C35.5143 35.1661 32.3032 34.0107 31.8531 32.3332C31.4029 30.6526 33.6056 28.0478 37.2278 27.0784C40.85 26.1091 44.0611 27.2645 44.5112 28.9421C44.9614 30.6226 42.7586 33.2275 39.1365 34.1968ZM36.3936 23.9634C31.1508 25.3679 27.7027 29.4942 28.693 33.1824C29.6804 36.8707 34.731 38.7193 39.9707 37.3148C45.2135 35.9103 48.6616 31.784 47.6713 28.0958C46.6839 24.4106 41.6333 22.559 36.3936 23.9634Z" fill="white"/>
</g>
<defs>
<clipPath id="clip0_534_579">
<rect width="64" height="64" rx="16" fill="white"/>
</clipPath>
</defs>
</svg>
