<svg width="64" height="64" viewBox="0 0 64 64" fill="none" xmlns="http://www.w3.org/2000/svg">
<rect width="64" height="64" rx="16" fill="url(#paint0_linear_534_591)"/>
<path d="M45.772 25.7263C43.8821 25.7263 42.1735 26.3005 40.7163 27.2866V18.2857H36.6851V34.8854C36.6851 39.9358 40.7606 44 45.7478 44C50.735 44 54.8569 39.9601 54.8569 34.8388C54.8569 29.7174 50.8256 25.7242 45.7699 25.7242L45.772 25.7263ZM27.4754 36.0582L23.7863 26.3695H20.9626L17.2514 36.0582L13.5401 26.3695H9.14258L15.6333 43.4055H18.4569L22.3513 33.2582L26.2678 43.4055H29.0915L35.56 26.3695H31.1867L27.4754 36.0582ZM45.7499 39.9378C43.0167 39.9378 40.7163 37.7343 40.7163 34.8631C40.7163 31.992 42.8799 29.8128 45.772 29.8128C48.6641 29.8128 50.8276 32.0854 50.8276 34.8631C50.8276 37.6409 48.5272 39.9378 45.7499 39.9378Z" fill="white"/>
<defs>
<linearGradient id="paint0_linear_534_591" x1="32" y1="0" x2="32" y2="64" gradientUnits="userSpaceOnUse">
<stop stop-color="#F20094"/>
<stop offset="1" stop-color="#9225E4"/>
</linearGradient>
</defs>
</svg>
