<svg width="46" height="46" viewBox="0 0 46 46" fill="none" xmlns="http://www.w3.org/2000/svg">
<rect width="46" height="46" rx="23" fill="url(#paint0_linear_671_1450)"/>
<path d="M32.8987 18.491C31.5403 18.491 30.3122 18.9037 29.2649 19.6125V13.1431H26.3675V25.0741C26.3675 28.7041 29.2967 31.6252 32.8813 31.6252C36.4659 31.6252 39.4284 28.7216 39.4284 25.0406C39.4284 21.3596 36.531 18.4895 32.8972 18.4895L32.8987 18.491ZM19.748 25.9171L17.0964 18.9533H15.0669L12.3995 25.9171L9.73203 18.9533H6.57129L11.2365 31.1979H13.266L16.065 23.9045L18.8801 31.1979H20.9096L25.5588 18.9533H22.4155L19.748 25.9171ZM32.8828 28.7055C30.9183 28.7055 29.2649 27.1217 29.2649 25.0581C29.2649 22.9945 30.82 21.4282 32.8987 21.4282C34.9774 21.4282 36.5324 23.0616 36.5324 25.0581C36.5324 27.0546 34.879 28.7055 32.8828 28.7055Z" fill="white"/>
<defs>
<linearGradient id="paint0_linear_671_1450" x1="23" y1="0" x2="23" y2="46" gradientUnits="userSpaceOnUse">
<stop stop-color="#F20094"/>
<stop offset="1" stop-color="#9225E4"/>
</linearGradient>
</defs>
</svg>
