<svg width="14" height="14" viewBox="0 0 14 14" fill="none" xmlns="http://www.w3.org/2000/svg">
<path d="M11.3502 6.29825C11.3036 6.19266 11.1992 6.125 11.0837 6.125H8.45865V1.75C8.45865 1.62925 8.38458 1.52075 8.27141 1.47759C8.15766 1.43384 8.03106 1.46533 7.94998 1.55458L2.69998 7.38791C2.62298 7.47366 2.60317 7.59617 2.65042 7.70175C2.69708 7.80733 2.80148 7.875 2.91698 7.875H5.54198V12.25C5.54198 12.3707 5.61606 12.4793 5.72922 12.5224C5.76364 12.5353 5.79865 12.5417 5.83365 12.5417C5.91473 12.5417 5.99407 12.5078 6.05066 12.4448L11.3007 6.6115C11.3777 6.52633 11.3969 6.40325 11.3502 6.29825Z" fill="#28F6BC"/>
</svg>
