<svg width="24" height="24" viewBox="0 0 24 24" fill="none" xmlns="http://www.w3.org/2000/svg">
<path d="M9.47998 11.15C9.72998 11.26 9.99 11.3301 10.25 11.3901V20.9101C10.09 20.8701 9.93003 20.81 9.78003 20.74L3.78003 18.0701C2.70003 17.5901 2 16.52 2 15.33V8.67006C2 8.40006 2.03999 8.13005 2.10999 7.88005L9.47998 11.15ZM19.13 6.56005C18.87 6.30005 18.57 6.08004 18.22 5.93004L12.22 3.26006C11.44 2.91006 10.56 2.91006 9.78003 3.26006L3.78003 5.93004C3.43003 6.08004 3.13 6.30005 2.87 6.56005L10.08 9.77004C10.66 10.03 11.33 10.03 11.92 9.77004L19.13 6.56005ZM16.701 11.8931C17.733 11.6501 18.7139 11.7281 19.5959 12.0321C19.7939 12.1001 20 11.9661 20 11.7561V8.67006C20 8.40006 19.96 8.13005 19.89 7.88005L12.52 11.15C12.27 11.25 12.01 11.3301 11.75 11.3901V20.9101C11.768 20.9221 11.768 20.922 11.786 20.934L13.479 20.1781C13.651 20.1011 13.702 19.893 13.598 19.737C12.875 18.656 12.567 17.2831 12.86 15.8381C13.251 13.9091 14.786 12.3441 16.701 11.8931ZM22.53 21.529C22.384 21.675 22.192 21.749 22 21.749C21.808 21.749 21.616 21.676 21.47 21.529L19.92 19.9791C19.343 20.3571 18.657 20.5821 17.917 20.5821C15.895 20.5821 14.25 18.9371 14.25 16.9151C14.25 14.8931 15.895 13.248 17.917 13.248C19.938 13.248 21.583 14.8931 21.583 16.9151C21.583 17.6551 21.359 18.342 20.981 18.918L22.531 20.468C22.823 20.761 22.823 21.236 22.53 21.529ZM20.083 16.916C20.083 15.721 19.111 14.749 17.917 14.749C16.722 14.749 15.75 15.721 15.75 16.916C15.75 18.111 16.722 19.0831 17.917 19.0831C19.111 19.0821 20.083 18.11 20.083 16.916Z" fill="#28F6BC"/>
</svg>
