<svg width="18" height="18" viewBox="0 0 18 18" fill="none" xmlns="http://www.w3.org/2000/svg">
<path d="M9.375 15.75H8.625C7.875 15.75 7.5 15.375 7.5 14.625V3.375C7.5 2.625 7.875 2.25 8.625 2.25H9.375C10.125 2.25 10.5 2.625 10.5 3.375V14.625C10.5 15.375 10.125 15.75 9.375 15.75ZM15.75 14.625V7.125C15.75 6.375 15.375 6 14.625 6H13.875C13.125 6 12.75 6.375 12.75 7.125V14.625C12.75 15.375 13.125 15.75 13.875 15.75H14.625C15.375 15.75 15.75 15.375 15.75 14.625ZM5.25 14.625V10.125C5.25 9.375 4.875 9 4.125 9H3.375C2.625 9 2.25 9.375 2.25 10.125V14.625C2.25 15.375 2.625 15.75 3.375 15.75H4.125C4.875 15.75 5.25 15.375 5.25 14.625Z" fill="#28F6BC"/>
</svg>
