<svg width="18" height="18" viewBox="0 0 18 18" fill="none" xmlns="http://www.w3.org/2000/svg">
<path d="M9.00075 1.6875C4.9695 1.6875 1.68971 4.96727 1.68971 8.99927C1.68971 10.0493 1.92304 11.106 2.36629 12.0615C2.45254 12.2437 2.4592 12.4748 2.3857 12.705L1.75508 14.5807C1.59758 15.0547 1.71983 15.57 2.07533 15.9247C2.32733 16.1767 2.66019 16.3118 3.00294 16.3118C3.14244 16.3118 3.28279 16.2893 3.42079 16.2435L5.28755 15.6165C5.5253 15.5408 5.7578 15.5468 5.9438 15.636C6.89405 16.0778 7.95076 16.311 9.00001 16.311C13.032 16.311 16.3118 13.0313 16.3118 8.99927C16.3118 4.96727 13.0327 1.6875 9.00075 1.6875ZM9.00075 15.186C8.1135 15.186 7.22097 14.9888 6.42372 14.6183C5.98197 14.4075 5.45702 14.382 4.93727 14.5477L3.06373 15.177C2.96998 15.2085 2.90242 15.1605 2.87092 15.129C2.83942 15.0975 2.79145 15.0308 2.82295 14.937L3.45595 13.0538C3.6187 12.5415 3.59247 12.0173 3.38472 11.5815C3.01197 10.779 2.81471 9.88649 2.81471 8.99849C2.81471 5.58749 5.58975 2.81177 9.00075 2.81177C12.4125 2.81177 15.1875 5.58674 15.1875 8.99849C15.1875 12.4102 12.4125 15.186 9.00075 15.186ZM11.8125 9C11.8125 9.3105 11.5605 9.5625 11.25 9.5625H9.56251V11.25C9.56251 11.5605 9.31051 11.8125 9.00001 11.8125C8.68951 11.8125 8.43751 11.5605 8.43751 11.25V9.5625H6.75001C6.43951 9.5625 6.18751 9.3105 6.18751 9C6.18751 8.6895 6.43951 8.4375 6.75001 8.4375H8.43751V6.75C8.43751 6.4395 8.68951 6.1875 9.00001 6.1875C9.31051 6.1875 9.56251 6.4395 9.56251 6.75V8.4375H11.25C11.5605 8.4375 11.8125 8.6895 11.8125 9Z" fill="#28F6BC"/>
</svg>
