<svg width="18" height="18" viewBox="0 0 18 18" fill="none" xmlns="http://www.w3.org/2000/svg">
<path d="M13.2188 2.25H4.78125C3.09375 2.25 2.25 3.09375 2.25 4.78125V13.2188C2.25 14.9062 3.09375 15.75 4.78125 15.75H13.2188C14.9062 15.75 15.75 14.9062 15.75 13.2188V4.78125C15.75 3.09375 14.9062 2.25 13.2188 2.25ZM11.6475 11.6475C11.538 11.757 11.394 11.8125 11.25 11.8125C11.106 11.8125 10.962 11.7578 10.8525 11.6475L8.60248 9.39752C8.49673 9.29177 8.4375 9.1485 8.4375 9V5.25C8.4375 4.9395 8.6895 4.6875 9 4.6875C9.3105 4.6875 9.5625 4.9395 9.5625 5.25V8.76672L11.6475 10.8517C11.8673 11.0722 11.8673 11.4278 11.6475 11.6475Z" fill="#28F6BC"/>
</svg>
