<svg width="14" height="14" viewBox="0 0 14 14" fill="none" xmlns="http://www.w3.org/2000/svg">
<path d="M2.8366 9.26092L1.77553 5.15833C1.60928 4.54758 2.28946 4.05759 2.81563 4.40876L4.16661 5.30941C4.45653 5.50308 4.85085 5.39284 4.9996 5.07726L6.37861 2.14366C6.62478 1.61924 7.37087 1.61926 7.61762 2.14309L9.00012 5.07783C9.14887 5.39341 9.54262 5.5025 9.83254 5.30941L11.1835 4.40876C11.7103 4.05759 12.3905 4.54816 12.2236 5.15833L11.1625 9.26092C11.0628 9.64709 10.7145 9.91658 10.3155 9.91658H3.68304C3.28463 9.91658 2.93635 9.64709 2.8366 9.26092ZM11.229 11.6666C11.229 11.4251 11.033 11.2291 10.7915 11.2291H3.20819C2.96669 11.2291 2.77069 11.4251 2.77069 11.6666C2.77069 11.9081 2.96669 12.1041 3.20819 12.1041H10.7915C11.033 12.1041 11.229 11.9081 11.229 11.6666Z" fill="#FFC107"/>
</svg>
