<svg width="56" height="56" viewBox="0 0 56 56" fill="none" xmlns="http://www.w3.org/2000/svg">
<rect x="0.5" y="0.5" width="55" height="55" rx="27.5" fill="#28F6BC" fill-opacity="0.1"/>
<rect x="0.5" y="0.5" width="55" height="55" rx="27.5" stroke="#0F1015"/>
<path d="M28 33.5C31.44 33.5 34.35 32.55 36 31.05V33C36 35.21 32.42 37 28 37C23.58 37 20 35.21 20 33V31.05C21.66 32.55 24.56 33.5 28 33.5ZM20 26.05V28C20 30.21 23.58 32 28 32C32.42 32 36 30.21 36 28V26.05C34.35 27.55 31.44 28.5 28 28.5C24.56 28.5 21.66 27.55 20 26.05ZM28 27C32.418 27 36 25.209 36 23C36 20.791 32.418 19 28 19C23.582 19 20 20.791 20 23C20 25.209 23.582 27 28 27Z" fill="#28F6BC"/>
</svg>
