<svg width="24" height="24" viewBox="0 0 24 24" fill="none" xmlns="http://www.w3.org/2000/svg">
<path d="M9.47487 12.8519C9.84587 14.9589 11.0198 16.0489 12.8928 16.0489C13.2098 16.0489 13.5479 16.0179 13.9049 15.9539L17.5388 15.3129C18.7848 15.0939 19.6479 14.6179 20.1789 13.8599C20.7099 13.1009 20.8619 12.1279 20.6419 10.8819L20.0009 7.24787C19.7809 6.00287 19.3069 5.13987 18.5479 4.60787C17.7889 4.07687 16.8159 3.92587 15.5709 4.14587L11.9369 4.78688C10.6919 5.00588 9.82792 5.48187 9.29592 6.24087C8.76592 6.99887 8.61388 7.97287 8.83388 9.21787L9.47487 12.8519ZM10.5249 7.10188C10.8159 6.68588 11.3629 6.41187 12.1959 6.26487L15.8299 5.62387C16.1109 5.57387 16.3669 5.54988 16.5979 5.54988C17.0519 5.54988 17.4109 5.64588 17.6869 5.83888C18.1029 6.13088 18.3759 6.67687 18.5239 7.50987L19.1649 11.1439C19.3109 11.9769 19.2408 12.5839 18.9498 12.9999C18.6588 13.4159 18.1119 13.6889 17.2789 13.8369L13.6449 14.4779C11.9949 14.7669 11.2429 14.2389 10.9519 12.5919L10.3109 8.95786C10.1639 8.12486 10.2339 7.51688 10.5249 7.10188ZM20.8699 16.0419L10.4989 17.8679C10.1649 17.1339 9.5179 16.5799 8.7289 16.3609L6.64894 4.52087C6.38594 3.03087 4.94886 2.03288 3.46486 2.29188L2.8749 2.39187C2.4659 2.46087 2.19088 2.84888 2.26088 3.25688C2.32888 3.66488 2.7199 3.93787 3.1249 3.87087L3.71889 3.76988C4.39789 3.65288 5.05289 4.10487 5.17189 4.78187L7.20986 16.3809C6.07986 16.7229 5.2499 17.7619 5.2499 19.0019C5.2499 20.5189 6.4829 21.7519 7.9999 21.7519C9.3959 21.7519 10.5389 20.7029 10.7139 19.3539L21.1299 17.5209C21.5379 17.4489 21.8109 17.0599 21.7379 16.6519C21.6669 16.2419 21.2789 15.9689 20.8699 16.0419ZM7.9999 20.2499C7.3109 20.2499 6.7499 19.6889 6.7499 18.9999C6.7499 18.3109 7.3109 17.7499 7.9999 17.7499C8.6889 17.7499 9.2499 18.3109 9.2499 18.9999C9.2499 19.6889 8.6889 20.2499 7.9999 20.2499Z" fill="#28F6BC"/>
</svg>
