<svg width="24" height="24" viewBox="0 0 24 24" fill="none" xmlns="http://www.w3.org/2000/svg">
<path d="M21.5298 14.5301L16.5298 19.5301C16.3838 19.6761 16.1917 19.75 15.9997 19.75C15.8077 19.75 15.6157 19.6771 15.4697 19.5301C15.1767 19.2371 15.1767 18.762 15.4697 18.469L19.1897 14.749H5.99973C5.58573 14.749 5.24973 14.413 5.24973 13.999C5.24973 13.585 5.58573 13.249 5.99973 13.249H20.9997C21.3037 13.249 21.5768 13.4319 21.6928 13.7119C21.8088 13.9929 21.7448 14.3161 21.5298 14.5301ZM18.7497 9.00002C18.7497 8.58602 18.4137 8.25002 17.9997 8.25002H4.81076L8.53073 4.53005C8.82373 4.23705 8.82373 3.76202 8.53073 3.46902C8.23773 3.17602 7.7627 3.17602 7.4697 3.46902L2.4697 8.46902C2.2547 8.68302 2.19161 9.00591 2.30661 9.28591C2.42261 9.56591 2.69673 9.74905 2.99973 9.74905H17.9997C18.4137 9.75005 18.7497 9.41402 18.7497 9.00002Z" fill="#28F6BC"/>
</svg>
