<svg width="18" height="18" viewBox="0 0 18 18" fill="none" xmlns="http://www.w3.org/2000/svg">
<path d="M14.1225 5.11492L9.9975 2.53492C9.3825 2.15242 8.6175 2.15242 8.0025 2.53492L3.8775 5.11492C3.33 5.45242 3 6.05992 3 6.70492V11.2949C3 11.9399 3.33 12.5474 3.8775 12.8849L8.0025 15.4649C8.6175 15.8474 9.3825 15.8474 9.9975 15.4649L14.1225 12.8849C14.67 12.5474 15 11.9399 15 11.2949V6.70492C15 6.05992 14.67 5.45242 14.1225 5.11492ZM9 11.2499C7.755 11.2499 6.75 10.2449 6.75 8.99992C6.75 7.75492 7.755 6.74992 9 6.74992C10.245 6.74992 11.25 7.75492 11.25 8.99992C11.25 10.2449 10.245 11.2499 9 11.2499Z" fill="#28F6BC"/>
</svg>
