<svg width="14" height="14" viewBox="0 0 14 14" fill="none" xmlns="http://www.w3.org/2000/svg">
<path d="M11.375 8.16659C11.375 10.5787 9.41267 12.5416 7 12.5416C4.58733 12.5416 2.625 10.5787 2.625 8.16659C2.625 6.85526 2.9995 5.92134 3.87683 5.04342C4.04891 4.87075 4.24375 4.69808 4.44558 4.51958C5.27158 3.78808 6.125 3.03152 6.125 1.74935C6.125 1.64202 6.1845 1.54283 6.279 1.49208C6.3735 1.44133 6.48842 1.44659 6.57825 1.50668C6.61325 1.53001 9.86708 3.76008 8.19875 7.59141C8.59016 7.37266 9.05858 7.0139 9.34617 6.45682C9.5305 6.09982 9.62441 5.69385 9.62441 5.24935C9.62441 5.13094 9.69617 5.02418 9.80583 4.97926C9.91433 4.93434 10.0409 4.96001 10.1243 5.04459C10.9194 5.85251 11.375 6.99059 11.375 8.16659Z" fill="#EC5657"/>
</svg>
