<svg width="24" height="24" viewBox="0 0 24 24" fill="none" xmlns="http://www.w3.org/2000/svg">
<path d="M17.0532 21.75H6.94817C5.37717 21.75 4.03217 20.628 3.75017 19.083L2.29522 11.0999C2.11722 10.1189 2.4842 9.11599 3.2542 8.483L9.93621 2.98995C11.1332 2.00595 12.8702 2.00595 14.0672 2.98995L20.7492 8.483C21.5192 9.11599 21.8862 10.1189 21.7082 11.0999L20.2532 19.083C19.9692 20.628 18.6242 21.75 17.0532 21.75ZM12.0002 3.75094C11.6042 3.75094 11.2101 3.88291 10.8881 4.14791L4.20623 9.64095C3.85523 9.92895 3.68819 10.385 3.77019 10.831L5.22515 18.813C5.37615 19.645 6.1012 20.249 6.9472 20.249H17.0522C17.8982 20.249 18.6222 19.645 18.7742 18.813L20.2292 10.8299C20.3102 10.3839 20.1431 9.92895 19.7931 9.64095L13.1111 4.14791C12.7901 3.88391 12.3952 3.75094 12.0002 3.75094ZM19.5131 18.948H19.5231H19.5131ZM8.5302 15.5489L10.8342 13.317L12.1052 14.5849C12.3982 14.8769 12.7872 15.0379 13.2012 15.0379C13.6152 15.0379 14.0052 14.8759 14.2962 14.5839L16.5312 12.349C16.8242 12.056 16.8242 11.5809 16.5312 11.2879C16.2382 10.9949 15.7631 10.9949 15.4701 11.2879L13.1641 13.5219L11.8931 12.254C11.2881 11.65 10.3052 11.65 9.7022 12.255L7.47015 14.487C7.17715 14.78 7.17715 15.2549 7.47015 15.5479C7.61615 15.6939 7.80817 15.7679 8.00017 15.7679C8.19217 15.7679 8.3842 15.6949 8.5302 15.5489Z" fill="#28F6BC"/>
</svg>
