<svg width="24" height="24" viewBox="0 0 24 24" fill="none" xmlns="http://www.w3.org/2000/svg">
<path d="M17.0522 21.75H6.9472C5.3762 21.75 4.0312 20.628 3.7492 19.083L2.29424 11.0999C2.11624 10.1189 2.48323 9.11599 3.25323 8.483L9.93523 2.98995C11.1322 2.00595 12.8692 2.00595 14.0662 2.98995L20.7482 8.483C21.5182 9.11599 21.8852 10.1189 21.7072 11.0999L20.2523 19.083C19.9683 20.628 18.6232 21.75 17.0522 21.75ZM11.9992 3.75094C11.6032 3.75094 11.2091 3.88291 10.8871 4.14791L4.20525 9.64095C3.85425 9.92895 3.68722 10.385 3.76922 10.831L5.22417 18.813C5.37517 19.645 6.10022 20.249 6.94622 20.249H17.0512C17.8972 20.249 18.6212 19.645 18.7732 18.813L20.2282 10.8299C20.3092 10.3839 20.1422 9.92895 19.7922 9.64095L13.1102 4.14791C12.7892 3.88391 12.3942 3.75094 11.9992 3.75094ZM19.5121 18.948H19.5221H19.5121ZM8.52923 15.5489L10.8332 13.317L12.1042 14.5849C12.3972 14.8769 12.7862 15.0379 13.2002 15.0379C13.6142 15.0379 14.0042 14.8759 14.2952 14.5839L16.5302 12.349C16.8232 12.056 16.8232 11.5809 16.5302 11.2879C16.2372 10.9949 15.7622 10.9949 15.4692 11.2879L13.1631 13.5219L11.8921 12.254C11.2871 11.65 10.3042 11.65 9.70122 12.255L7.46917 14.487C7.17617 14.78 7.17617 15.2549 7.46917 15.5479C7.61517 15.6939 7.8072 15.7679 7.9992 15.7679C8.1912 15.7679 8.38323 15.6949 8.52923 15.5489Z" fill="#28F6BC"/>
</svg>
