<svg width="18" height="18" viewBox="0 0 18 18" fill="none" xmlns="http://www.w3.org/2000/svg">
<path d="M7.125 5.25C7.125 6.6975 5.9475 7.875 4.5 7.875C3.0525 7.875 1.875 6.6975 1.875 5.25C1.875 3.8025 3.0525 2.625 4.5 2.625C5.9475 2.625 7.125 3.8025 7.125 5.25ZM13.5 10.125C12.0525 10.125 10.875 11.3025 10.875 12.75C10.875 14.1975 12.0525 15.375 13.5 15.375C14.9475 15.375 16.125 14.1975 16.125 12.75C16.125 11.3025 14.9475 10.125 13.5 10.125ZM16.3125 5.25C16.3125 4.9395 16.0605 4.6875 15.75 4.6875H11.25C10.9395 4.6875 10.6875 4.9395 10.6875 5.25C10.6875 5.5605 10.9395 5.8125 11.25 5.8125H15.75C16.0605 5.8125 16.3125 5.5605 16.3125 5.25ZM7.3125 12.75C7.3125 12.4395 7.0605 12.1875 6.75 12.1875H2.25C1.9395 12.1875 1.6875 12.4395 1.6875 12.75C1.6875 13.0605 1.9395 13.3125 2.25 13.3125H6.75C7.0605 13.3125 7.3125 13.0605 7.3125 12.75Z" fill="#28F6BC"/>
</svg>
