<?xml version="1.0" encoding="utf-8"?><svg viewBox="0 0 28 32" xmlns="http://www.w3.org/2000/svg"
   xmlns:xlink="http://www.w3.org/1999/xlink">
   <style>
      :root>svg {
         display: none
      }

      :root>svg:target {
         display: block
      }
   </style><svg fill="none" viewBox="0 0 18 18" id="icon-arrow-diagonal" xmlns="http://www.w3.org/2000/svg">
      <g clip-path="url(#aa)">
         <path
            d="m12.065 12.45-.002.113.113-.003.71-.013.106-.001.001-.105.128-7.029.002-.113-.113.002-7.09.129-.105.002-.002.105-.013.71-.002.113.113-.002 5.603-.102-6.53 6.53-.076.077.076.077.499.498.077.077.077-.077 6.53-6.53-.102 5.542Z"
            fill="currentColor" fill-opacity=".5" />
      </g>
      <defs>
         <clipPath id="aa">
            <rect x="8.924" y="16.92" width="10.5" height="11.308" rx="3" transform="rotate(-135 8.924 16.92)"
               fill="currentColor" />
         </clipPath>
      </defs>
   </svg><svg fill="none" viewBox="0 0 18 18" id="icon-caret-down" xmlns="http://www.w3.org/2000/svg">
      <path
         d="M8.023 12.833 4.738 8.937c-.552-.655-.084-1.651.776-1.651h6.972c.86 0 1.327.997.775 1.651l-3.285 3.896a1.28 1.28 0 0 1-1.953 0Z"
         fill="currentColor" />
   </svg><svg fill="none" viewBox="0 0 24 24" id="icon-layers" xmlns="http://www.w3.org/2000/svg">
      <path d="M20.19 17.59L13.6 20.65C12.59 21.12 11.41 21.12 10.4 20.65L3.81 17.59C2.73 17.09 2.73 15.55 3.81 15.05L3.95001 14.99L9.76999 17.68C10.47 18.01 11.22 18.18 12 18.18C12.78 18.18 13.53 18.01 14.23 17.68L20.05 14.99L20.19 15.05C21.27 15.55 21.27 17.09 20.19 17.59ZM20.19 10.72L20.06 10.66L15.4 12.83L14.23 13.37C13.53 13.69 12.78 13.86 12 13.86C11.22 13.86 10.47 13.69 9.76999 13.37L8.60001 12.83L3.94 10.66L3.81 10.72C2.73 11.23 2.73 12.77 3.81 13.27L5.73001 14.16L10.4 16.32C10.91 16.56 11.45 16.68 12 16.68C12.55 16.68 13.09 16.56 13.6 16.32L18.27 14.16L20.19 13.27C21.27 12.77 21.27 11.23 20.19 10.72ZM20.19 6.41L13.6 3.35001C13.09 3.12001 12.55 3 12 3C11.45 3 10.91 3.12001 10.4 3.35001L3.81 6.41C2.73 6.91 2.73 8.45001 3.81 8.95001L3.94 9.01001L4.82999 9.42001L5.72 9.84L10.4 12.01C10.91 12.24 11.45 12.36 12 12.36C12.55 12.36 13.09 12.24 13.6 12.01L18.28 9.84L19.17 9.42001L20.06 9.01001L20.19 8.95001C21.27 8.45001 21.27 6.91 20.19 6.41Z" fill="currentColor"/>
   </svg><svg fill="none" viewBox="0 0 8 6" id="icon-check" xmlns="http://www.w3.org/2000/svg">
      <path
         d="M7.766 1.363A.798.798 0 1 0 6.637.233L2.801 4.07l-1.44-1.434A.798.798 0 1 0 .236 3.767l2.004 1.996c.312.311.817.31 1.128 0l4.4-4.4Z"
         fill="currentColor" />
   </svg><svg fill="none" viewBox="0 0 24 24" id="icon-chevron-down" xmlns="http://www.w3.org/2000/svg">
      <path fill-rule="evenodd" clip-rule="evenodd"
         d="M17.59 9.532a.75.75 0 0 0-1.055-.117l-4.531 3.625-4.532-3.625a.75.75 0 1 0-.937 1.171l5 4a.75.75 0 0 0 .937 0l5-4a.75.75 0 0 0 .117-1.054Z"
         fill="currentColor" />
   </svg><svg fill="none" viewBox="0 0 24 24" id="icon-chevron-left" xmlns="http://www.w3.org/2000/svg">
      <path d="M15.41 7.41 10.83 12l4.58 4.59L14 18l-6-6 6-6 1.41 1.41Z" fill="currentColor" />
   </svg><svg fill="none" viewBox="0 0 24 24" id="icon-chevron-right" xmlns="http://www.w3.org/2000/svg">
      <path d="M8.59 16.59 13.17 12 8.59 7.41 10 6l6 6-6 6-1.41-1.41Z" fill="currentColor" />
   </svg><svg fill="none" viewBox="0 0 16 16" id="icon-close" xmlns="http://www.w3.org/2000/svg">
      <rect x="2" y="13.314" width="16" height="1" rx=".5" transform="rotate(-45 2 13.314)" fill="currentColor" />
      <rect x="2.707" y="2" width="16" height="1" rx=".5" transform="rotate(45 2.707 2)" fill="currentColor" />
   </svg><svg fill="none" viewBox="0 0 28 32" id="icon-play" xmlns="http://www.w3.org/2000/svg">
      <path
         d="M26.568 13.486c1.91 1.125 1.91 3.903 0 5.028L4.358 31.596C2.428 32.733 0 31.333 0 29.083V2.917C0 .667 2.428-.733 4.358.404l22.21 13.082Z"
         fill="currentColor" />
   </svg><svg fill="none" viewBox="0 0 24 24" id="icon-plus" xmlns="http://www.w3.org/2000/svg">
      <path d="M19 11h-6V5a1 1 0 0 0-2 0v6H5a1 1 0 0 0 0 2h6v6a1 1 0 0 0 2 0v-6h6a1 1 0 0 0 0-2Z" fill="currentColor" />
   </svg><svg fill="none" viewBox="0 0 16 16" id="icon-search" xmlns="http://www.w3.org/2000/svg">
      <path
         d="m14.353 13.647-2.56-2.561a5.803 5.803 0 0 0 1.374-3.753A5.84 5.84 0 0 0 7.333 1.5 5.84 5.84 0 0 0 1.5 7.333a5.84 5.84 0 0 0 5.833 5.834 5.803 5.803 0 0 0 3.753-1.374l2.56 2.56a.499.499 0 1 0 .707-.706ZM2.5 7.333A4.839 4.839 0 0 1 7.333 2.5a4.839 4.839 0 0 1 4.834 4.833 4.839 4.839 0 0 1-4.834 4.834A4.839 4.839 0 0 1 2.5 7.333Z"
         fill="currentColor" />
   </svg><svg fill="none" viewBox="0 0 24 24" id="icon-top" xmlns="http://www.w3.org/2000/svg">
      <path d="m12 13.914 4.793 4.793 1.414-1.414L12 11.086l-6.207 6.207 1.414 1.414L12 13.914ZM6 7h12v2H6V7Z"
         fill="currentColor" />
   </svg>
</svg>