<?xml version="1.0" encoding="utf-8"?><svg viewBox="0 0 28 32" xmlns="http://www.w3.org/2000/svg"
   xmlns:xlink="http://www.w3.org/1999/xlink">
   <style>
      :root>svg {
         display: none
      }

      :root>svg:target {
         display: block
      }
   </style><svg fill="none" viewBox="0 0 18 18" id="icon-arrow-diagonal" xmlns="http://www.w3.org/2000/svg">
      <g clip-path="url(#aa)">
         <path
            d="m12.065 12.45-.002.113.113-.003.71-.013.106-.001.001-.105.128-7.029.002-.113-.113.002-7.09.129-.105.002-.002.105-.013.71-.002.113.113-.002 5.603-.102-6.53 6.53-.076.077.076.077.499.498.077.077.077-.077 6.53-6.53-.102 5.542Z"
            fill="currentColor"/>
      </g>
      <defs>
         <clipPath id="aa">
            <rect x="8.924" y="16.92" width="10.5" height="11.308" rx="3" transform="rotate(-135 8.924 16.92)"
               fill="currentColor" />
         </clipPath>
      </defs>
   </svg><svg fill="none" viewBox="0 0 18 18" id="icon-caret-down" xmlns="http://www.w3.org/2000/svg">
      <path
         d="M8.023 12.833 4.738 8.937c-.552-.655-.084-1.651.776-1.651h6.972c.86 0 1.327.997.775 1.651l-3.285 3.896a1.28 1.28 0 0 1-1.953 0Z"
         fill="currentColor" />
   </svg><svg fill="none" viewBox="0 0 24 24" id="icon-thumbs-up" xmlns="http://www.w3.org/2000/svg">
      <path d="M7 22H4C3.46957 22 2.96086 21.7893 2.58579 21.4142C2.21071 21.0391 2 20.5304 2 20V13C2 12.4696 2.21071 11.9609 2.58579 11.5858C2.96086 11.2107 3.46957 11 4 11H7M14 9V5C14 4.20435 13.6839 3.44129 13.1213 2.87868C12.5587 2.31607 11.7956 2 11 2L7 11V22H18.28C18.7623 22.0055 19.2304 21.8364 19.5979 21.524C19.9654 21.2116 20.2077 20.7769 20.28 20.3L21.66 11.3C21.7035 11.0134 21.6842 10.7207 21.6033 10.4423C21.5225 10.1638 21.3821 9.90629 21.1919 9.68751C21.0016 9.46873 20.7661 9.29393 20.5016 9.17522C20.2371 9.0565 19.9499 8.99672 19.66 9H14Z" stroke="currentColor" stroke-width="2" stroke-linecap="round" stroke-linejoin="round"/>
   </svg><svg fill="none" viewBox="0 0 14 14" id="icon-settings" xmlns="http://www.w3.org/2000/svg">
      <path d="M12.1508 8.51667C11.6083 8.20167 11.2758 7.62417 11.2758 7C11.2758 6.37583 11.6083 5.79833 12.1508 5.48333C12.2442 5.425 12.2792 5.30833 12.2208 5.215L11.2467 3.535C11.2117 3.47083 11.1475 3.43584 11.0833 3.43584C11.0483 3.43584 11.0133 3.4475 10.9842 3.465C10.7158 3.61667 10.4125 3.69833 10.1092 3.69833C9.79999 3.69833 9.49667 3.61666 9.2225 3.45916C8.68 3.14416 8.3475 2.5725 8.3475 1.94833C8.3475 1.8375 8.26001 1.75 8.15501 1.75H5.84499C5.73999 1.75 5.6525 1.8375 5.6525 1.94833C5.6525 2.5725 5.32 3.14416 4.7775 3.45916C4.50333 3.61666 4.20001 3.69833 3.89084 3.69833C3.58751 3.69833 3.28417 3.61667 3.01584 3.465C2.92251 3.40667 2.80583 3.44167 2.75333 3.535L1.77334 5.215C1.75584 5.24417 1.75 5.27917 1.75 5.30834C1.75 5.37834 1.78501 5.4425 1.84917 5.48333C2.39167 5.79833 2.72417 6.36999 2.72417 6.99416C2.72417 7.62416 2.39166 8.20167 1.855 8.51667H1.84917C1.75584 8.575 1.72083 8.69167 1.77916 8.785L2.75333 10.465C2.78833 10.5292 2.8525 10.5642 2.91667 10.5642C2.95167 10.5642 2.98667 10.5525 3.01584 10.535C3.56417 10.2258 4.235 10.2258 4.7775 10.5408C5.31417 10.8558 5.64666 11.4275 5.64666 12.0517C5.64666 12.1625 5.73416 12.25 5.84499 12.25H8.15501C8.26001 12.25 8.3475 12.1625 8.3475 12.0517C8.3475 11.4275 8.68 10.8558 9.2225 10.5408C9.49667 10.3833 9.79999 10.3017 10.1092 10.3017C10.4125 10.3017 10.7158 10.3833 10.9842 10.535C11.0775 10.5933 11.1942 10.5583 11.2467 10.465L12.2267 8.785C12.2442 8.75583 12.25 8.72083 12.25 8.69166C12.25 8.62166 12.215 8.5575 12.1508 8.51667ZM7 8.75C6.03167 8.75 5.25 7.96833 5.25 7C5.25 6.03167 6.03167 5.25 7 5.25C7.96833 5.25 8.75 6.03167 8.75 7C8.75 7.96833 7.96833 8.75 7 8.75Z" fill="currentColor"/>
   </svg><svg fill="none" viewBox="0 0 24 24" id="icon-arrow-right" xmlns="http://www.w3.org/2000/svg">
      <path d="M11.9193 18.0262L11.8109 18.1308L11.9193 18.2353L12.6011 18.8928L12.7019 18.99L12.8027 18.8928L19.5495 12.3868L19.6579 12.2822L19.5495 12.1777L12.743 5.61367L12.6422 5.51653L12.5414 5.61367L11.8596 6.27113L11.7512 6.3757L11.8596 6.48027L17.2381 11.6672L4.92647 11.6672L4.78125 11.6672L4.78125 11.8124L4.78125 12.752L4.78125 12.8972L4.92647 12.8972L17.2381 12.8972L11.9193 18.0262Z" fill="currentColor"/>
   </svg><svg fill="none" viewBox="0 0 24 24" id="icon-layers" xmlns="http://www.w3.org/2000/svg">
      <path d="M20.19 17.59L13.6 20.65C12.59 21.12 11.41 21.12 10.4 20.65L3.81 17.59C2.73 17.09 2.73 15.55 3.81 15.05L3.95001 14.99L9.76999 17.68C10.47 18.01 11.22 18.18 12 18.18C12.78 18.18 13.53 18.01 14.23 17.68L20.05 14.99L20.19 15.05C21.27 15.55 21.27 17.09 20.19 17.59ZM20.19 10.72L20.06 10.66L15.4 12.83L14.23 13.37C13.53 13.69 12.78 13.86 12 13.86C11.22 13.86 10.47 13.69 9.76999 13.37L8.60001 12.83L3.94 10.66L3.81 10.72C2.73 11.23 2.73 12.77 3.81 13.27L5.73001 14.16L10.4 16.32C10.91 16.56 11.45 16.68 12 16.68C12.55 16.68 13.09 16.56 13.6 16.32L18.27 14.16L20.19 13.27C21.27 12.77 21.27 11.23 20.19 10.72ZM20.19 6.41L13.6 3.35001C13.09 3.12001 12.55 3 12 3C11.45 3 10.91 3.12001 10.4 3.35001L3.81 6.41C2.73 6.91 2.73 8.45001 3.81 8.95001L3.94 9.01001L4.82999 9.42001L5.72 9.84L10.4 12.01C10.91 12.24 11.45 12.36 12 12.36C12.55 12.36 13.09 12.24 13.6 12.01L18.28 9.84L19.17 9.42001L20.06 9.01001L20.19 8.95001C21.27 8.45001 21.27 6.91 20.19 6.41Z" fill="currentColor"/>
   </svg><svg fill="none" viewBox="0 0 8 6" id="icon-check" xmlns="http://www.w3.org/2000/svg">
      <path
         d="M7.766 1.363A.798.798 0 1 0 6.637.233L2.801 4.07l-1.44-1.434A.798.798 0 1 0 .236 3.767l2.004 1.996c.312.311.817.31 1.128 0l4.4-4.4Z"
         fill="currentColor" />
   </svg><svg fill="none" viewBox="0 0 24 24" id="icon-chevron-down" xmlns="http://www.w3.org/2000/svg">
      <path fill-rule="evenodd" clip-rule="evenodd"
         d="M17.59 9.532a.75.75 0 0 0-1.055-.117l-4.531 3.625-4.532-3.625a.75.75 0 1 0-.937 1.171l5 4a.75.75 0 0 0 .937 0l5-4a.75.75 0 0 0 .117-1.054Z"
         fill="currentColor" />
   </svg><svg fill="none" viewBox="0 0 24 24" id="icon-chevron-left" xmlns="http://www.w3.org/2000/svg">
      <path d="M15.41 7.41 10.83 12l4.58 4.59L14 18l-6-6 6-6 1.41 1.41Z" fill="currentColor" />
   </svg><svg fill="none" viewBox="0 0 24 24" id="icon-chevron-right" xmlns="http://www.w3.org/2000/svg">
      <path d="M8.59 16.59 13.17 12 8.59 7.41 10 6l6 6-6 6-1.41-1.41Z" fill="currentColor" />
   </svg><svg fill="none" viewBox="0 0 16 16" id="icon-close" xmlns="http://www.w3.org/2000/svg">
      <rect x="2" y="13.314" width="16" height="1" rx=".5" transform="rotate(-45 2 13.314)" fill="currentColor" />
      <rect x="2.707" y="2" width="16" height="1" rx=".5" transform="rotate(45 2.707 2)" fill="currentColor" />
   </svg><svg fill="none" viewBox="0 0 28 32" id="icon-play" xmlns="http://www.w3.org/2000/svg">
      <path
         d="M26.568 13.486c1.91 1.125 1.91 3.903 0 5.028L4.358 31.596C2.428 32.733 0 31.333 0 29.083V2.917C0 .667 2.428-.733 4.358.404l22.21 13.082Z"
         fill="currentColor" />
   </svg><svg fill="none" viewBox="0 0 24 24" id="icon-plus" xmlns="http://www.w3.org/2000/svg">
      <path d="M19 11h-6V5a1 1 0 0 0-2 0v6H5a1 1 0 0 0 0 2h6v6a1 1 0 0 0 2 0v-6h6a1 1 0 0 0 0-2Z" fill="currentColor" />
   </svg><svg fill="none" viewBox="0 0 16 16" id="icon-search" xmlns="http://www.w3.org/2000/svg">
      <path
         d="m14.353 13.647-2.56-2.561a5.803 5.803 0 0 0 1.374-3.753A5.84 5.84 0 0 0 7.333 1.5 5.84 5.84 0 0 0 1.5 7.333a5.84 5.84 0 0 0 5.833 5.834 5.803 5.803 0 0 0 3.753-1.374l2.56 2.56a.499.499 0 1 0 .707-.706ZM2.5 7.333A4.839 4.839 0 0 1 7.333 2.5a4.839 4.839 0 0 1 4.834 4.833 4.839 4.839 0 0 1-4.834 4.834A4.839 4.839 0 0 1 2.5 7.333Z"
         fill="currentColor" />
   </svg><svg fill="none" viewBox="0 0 24 24" id="icon-top" xmlns="http://www.w3.org/2000/svg">
      <path d="m12 13.914 4.793 4.793 1.414-1.414L12 11.086l-6.207 6.207 1.414 1.414L12 13.914ZM6 7h12v2H6V7Z"
         fill="currentColor" />
   </svg>
</svg>