<svg width="24" height="24" viewBox="0 0 24 24" fill="none" xmlns="http://www.w3.org/2000/svg">
<path d="M23.0196 9C23.0196 10.104 22.1236 11 21.0196 11C20.7376 11 20.4696 10.94 20.2256 10.835L16.8546 14.2061C16.9606 14.4501 17.0206 14.717 17.0206 15C17.0206 16.104 16.1246 17 15.0206 17C13.9166 17 13.0156 16.104 13.0156 15C13.0156 14.727 13.0706 14.467 13.1696 14.229L9.78661 10.8459C9.55061 10.9439 9.2916 10.999 9.0206 10.999C8.7386 10.999 8.47061 10.939 8.22661 10.834L4.85561 14.2051C4.96161 14.4491 5.02161 14.716 5.02161 14.999C5.02161 16.103 4.12561 16.999 3.02161 16.999C1.91761 16.999 1.0166 16.103 1.0166 14.999C1.0166 13.895 1.9066 12.999 3.0116 12.999H3.02161C3.29361 12.999 3.5516 13.0541 3.7876 13.1521L7.1716 9.76807C7.0726 9.53107 7.0166 9.27102 7.0166 8.99902C7.0166 7.89502 7.9066 6.99902 9.0116 6.99902H9.02161C10.1256 6.99902 11.0216 7.89502 11.0216 8.99902C11.0216 9.28102 10.9616 9.54897 10.8556 9.79297L14.2236 13.1609C14.4646 13.0569 14.7306 12.999 15.0106 12.999H15.0206C15.2926 12.999 15.5506 13.0541 15.7866 13.1521L19.1706 9.76807C19.0716 9.53107 19.0156 9.27102 19.0156 8.99902C19.0156 7.89502 19.9056 6.99902 21.0106 6.99902H21.0206C22.1246 7.00002 23.0196 7.896 23.0196 9Z" fill="#28F6BC"/>
</svg>
