<svg width="40" height="40" viewBox="0 0 40 40" fill="none" xmlns="http://www.w3.org/2000/svg">
<rect width="40" height="40" rx="20" fill="white" fill-opacity="0.05"/>
<g clip-path="url(#clip0_866_1879)">
<path d="M19.9991 5.99912C21.7087 5.96155 23.3634 6.60382 24.5999 7.78495C25.8365 8.96609 26.5539 10.5896 26.5947 12.2991C26.5539 14.0086 25.8365 15.6321 24.5999 16.8133C23.3634 17.9944 21.7087 18.6367 19.9991 18.5991C18.3026 18.637 16.6594 18.0054 15.425 16.8409C14.1907 15.6764 13.4645 14.0728 13.4036 12.3769C13.4137 11.5238 13.5927 10.6812 13.9305 9.89769C14.2682 9.11422 14.7579 8.40547 15.3712 7.81241C15.9845 7.21934 16.7093 6.75373 17.5036 6.44249C18.298 6.13125 19.1462 5.98056 19.9991 5.99912ZM19.9991 33.9991C17.4865 33.9682 15.0236 33.2943 12.8452 32.0417C10.6668 30.7891 8.84545 28.9996 7.55469 26.8436C7.55469 22.4258 15.8458 19.9991 19.9991 19.9991C24.1525 19.9991 32.4436 22.4258 32.4436 26.8436C31.1528 28.9996 29.3315 30.7891 27.1531 32.0417C24.9747 33.2943 22.5118 33.9682 19.9991 33.9991Z" fill="white" fill-opacity="0.5"/>
</g>
<defs>
<clipPath id="clip0_866_1879">
<rect width="28" height="28" fill="white" transform="translate(6 6)"/>
</clipPath>
</defs>
</svg>
