<svg width="18" height="18" viewBox="0 0 18 18" fill="none" xmlns="http://www.w3.org/2000/svg">
<path d="M13.215 2.25H4.785C3.0975 2.25 2.25 3.09 2.25 4.7775V13.215C2.25 14.9025 3.0975 15.75 4.785 15.75H13.215C14.91 15.75 15.75 14.9025 15.75 13.215V4.7775C15.75 3.09 14.91 2.25 13.215 2.25ZM11.625 9.5625H9.5625V11.625C9.5625 11.9325 9.3075 12.1875 9 12.1875C8.6925 12.1875 8.4375 11.9325 8.4375 11.625V9.5625H6.375C6.0675 9.5625 5.8125 9.3075 5.8125 9C5.8125 8.6925 6.0675 8.4375 6.375 8.4375H8.4375V6.375C8.4375 6.0675 8.6925 5.8125 9 5.8125C9.3075 5.8125 9.5625 6.0675 9.5625 6.375V8.4375H11.625C11.9325 8.4375 12.1875 8.6925 12.1875 9C12.1875 9.3075 11.9325 9.5625 11.625 9.5625Z" fill="#28F6BC"/>
</svg>
