<svg width="18" height="18" viewBox="0 0 18 18" fill="none" xmlns="http://www.w3.org/2000/svg">
<g clip-path="url(#clip0_866_2006)">
<path d="M17.9531 7.28884C17.8352 6.92964 17.512 6.67452 17.1295 6.64055L11.9342 6.17564L9.87984 1.43684C9.72836 1.08955 9.38339 0.864746 9.00009 0.864746C8.61679 0.864746 8.27182 1.08955 8.12034 1.43766L6.06598 6.17564L0.869862 6.64055C0.488078 6.67533 0.165621 6.92964 0.0471028 7.28884C-0.0714152 7.64804 0.0380389 8.04203 0.326849 8.29039L4.25388 11.6845L3.09589 16.7116C3.01115 17.0812 3.15672 17.4633 3.46792 17.685C3.63519 17.8041 3.83089 17.8647 4.02824 17.8647C4.19839 17.8647 4.36717 17.8195 4.51865 17.7302L9.00009 15.0906L13.4799 17.7302C13.8077 17.9246 14.2209 17.9068 14.5314 17.685C14.8428 17.4626 14.9882 17.0804 14.9035 16.7116L13.7455 11.6845L17.6725 8.29106C17.9613 8.04203 18.0716 7.64872 17.9531 7.28884Z" fill="white" fill-opacity="0.1"/>
</g>
<defs>
<clipPath id="clip0_866_2006">
<rect width="18.0002" height="18" fill="white"/>
</clipPath>
</defs>
</svg>
