<svg width="14" height="14" viewBox="0 0 14 14" fill="none" xmlns="http://www.w3.org/2000/svg">
<g clip-path="url(#clip0_873_681)">
<path d="M13.9634 5.66913C13.8717 5.38975 13.6203 5.19132 13.3228 5.1649L9.28207 4.8033L7.68425 1.11757C7.56644 0.847457 7.29812 0.672607 7.00001 0.672607C6.70189 0.672607 6.43358 0.847457 6.31576 1.1182L4.71794 4.8033L0.676554 5.1649C0.379613 5.19195 0.128815 5.38975 0.0366352 5.66913C-0.0555447 5.94851 0.0295855 6.25494 0.254214 6.44811L3.30854 9.088L2.40789 12.998C2.34199 13.2854 2.45521 13.5826 2.69725 13.755C2.82735 13.8477 2.97955 13.8948 3.13305 13.8948C3.26539 13.8948 3.39666 13.8597 3.51448 13.7902L7.00001 11.7372L10.4843 13.7902C10.7392 13.9414 11.0606 13.9276 11.3021 13.755C11.5443 13.5821 11.6574 13.2848 11.5915 12.998L10.6908 9.088L13.7452 6.44863C13.9698 6.25494 14.0556 5.94903 13.9634 5.66913V5.66913Z" fill="#FFC107"/>
</g>
<defs>
<clipPath id="clip0_873_681">
<rect width="14" height="14" fill="white"/>
</clipPath>
</defs>
</svg>
