<svg width="46" height="46" viewBox="0 0 46 46" fill="none" xmlns="http://www.w3.org/2000/svg">
<rect width="46" height="46" rx="12" fill="#28F6BC" fill-opacity="0.1"/>
<path d="M23.8541 15.5612L25.5804 19.2478C25.7102 19.5255 25.9609 19.7175 26.2515 19.7617L30.2364 20.3716C30.9671 20.4836 31.2587 21.4323 30.7298 21.9763L27.8489 24.9364C27.6382 25.1529 27.5422 25.4644 27.592 25.7703L28.2506 29.8212C28.3839 30.6428 27.5688 31.2696 26.8701 30.8828L23.4141 28.9675C23.1546 28.8235 22.8452 28.8235 22.5865 28.9675L19.1331 30.8809C18.4335 31.2687 17.6157 30.6409 17.7499 29.8174L18.4087 25.7703C18.4585 25.4644 18.3624 25.1529 18.1517 24.9364L15.2708 21.9763C14.741 21.4323 15.0325 20.4836 15.7641 20.3716L19.7491 19.7617C20.0389 19.7175 20.2896 19.5255 20.4202 19.2478L22.1465 15.5612C22.4941 14.8129 23.5039 14.8129 23.8541 15.5612Z" fill="#28F6BC"/>
</svg>
