<svg width="120" height="80" viewBox="0 0 120 80" fill="none" xmlns="http://www.w3.org/2000/svg">
<path d="M0 25.0017C7.92213 25 15.8444 25.0034 23.7665 25C27.0174 25.0068 30.2596 26.0854 32.8431 28.0632C35.5576 30.1084 37.5462 33.099 38.3642 36.3999C39.1149 39.3815 38.9416 42.5936 37.8435 45.4693C36.7298 48.4404 34.6368 51.0258 31.9808 52.7594C29.5071 54.3776 26.5448 55.2632 23.5859 55.194C15.724 55.1904 7.862 55.194 0 55.1921C0 45.1294 0 35.0664 0 25.0017ZM7.52554 32.5714C7.52554 37.6038 7.52374 42.636 7.52733 47.6685C12.8855 47.6666 18.2436 47.6649 23.6019 47.6685C24.6749 47.6702 25.7514 47.4614 26.7342 47.0257C29.3568 45.8976 31.2317 43.1851 31.2584 40.3166C31.3612 37.9084 30.1764 35.5089 28.2481 34.0765C27.0174 33.1434 25.4929 32.5837 23.9454 32.5697C18.4721 32.5731 12.9989 32.5697 7.52554 32.5714ZM43.0353 25.2389C44.4323 24.7182 46.0384 25.1593 47.0869 26.188C55.3278 32.1713 63.5915 38.1245 71.8447 44.0934C71.8484 37.7294 71.8447 31.3654 71.8467 25.0017C74.3555 25.0017 76.8629 25.0017 79.3722 25.0017C79.3739 33.648 79.3686 42.2927 79.3756 50.939C79.3899 51.828 79.2607 52.7628 78.7417 53.5099C77.9025 54.8274 76.1866 55.4826 74.6797 55.0842C73.8422 54.9215 73.2029 54.3388 72.5584 53.8271C64.3973 47.9253 56.2306 42.0305 48.0729 36.1251C48.0765 42.4804 48.0729 48.8354 48.0748 55.1921C45.5657 55.1921 43.0584 55.1921 40.5493 55.1921C40.5493 46.3952 40.5493 37.5983 40.5493 28.7996C40.5156 27.2416 41.5639 25.7471 43.0353 25.2389ZM88.6861 25.2158C89.8688 24.977 91.0837 25 92.2859 25.0017C99.5476 25.0034 106.807 24.9981 114.069 25.0051C115.08 24.9947 116.107 25.3169 116.846 26.027C117.793 26.9033 118.215 28.2846 117.954 29.5453C117.644 31.1797 116.12 32.5059 114.446 32.5255C106.648 32.5272 98.85 32.5306 91.05 32.5236C90.2638 32.4635 89.3801 32.745 88.9854 33.4744C88.5302 34.181 88.6558 35.1619 89.2439 35.7551C89.6847 36.2704 90.3964 36.3979 91.0429 36.3819C97.768 36.3678 104.495 36.3943 111.218 36.3661C114.021 36.5325 116.686 38.0517 118.291 40.3501C119.652 42.2733 120.242 44.7256 119.909 47.0557C119.576 49.6376 118.101 52.0491 115.95 53.5136C114.427 54.5832 112.577 55.1727 110.717 55.1921C102.094 55.1904 93.4722 55.1957 84.8509 55.1904C83.4517 55.178 82.0971 54.298 81.5343 53.0143C80.9462 51.7679 81.1252 50.2094 81.9751 49.1259C82.6868 48.1838 83.8591 47.6508 85.033 47.6666C93.536 47.6685 102.037 47.6649 110.54 47.6685C111.691 47.7393 112.699 46.5528 112.451 45.4286C112.289 44.5433 111.454 43.8403 110.551 43.8616C103.818 43.858 97.0846 43.8597 90.3523 43.8616C87.9104 43.833 85.5146 42.7532 83.8271 40.9929C81.7183 38.8449 80.7779 35.6418 81.3536 32.6899C81.9982 29.023 85.0296 25.9295 88.6861 25.2158Z" fill="#28F6BC"/>
</svg>
