<svg width="238" height="80" viewBox="0 0 238 80" fill="none" xmlns="http://www.w3.org/2000/svg">
<g clip-path="url(#clip0_227_942)">
<g clip-path="url(#clip1_227_942)">
<mask id="mask0_227_942" style="mask-type:luminance" maskUnits="userSpaceOnUse" x="0" y="19" width="239" height="37">
<path d="M0 19H238.364V55.4167H0V19Z" fill="white"/>
</mask>
<g mask="url(#mask0_227_942)">
<path d="M29.332 25.9423H0V55.3339H29.332V25.9423ZM58.3373 39.2477L48.1097 25.9423H43.263V45.732H47.8868V32.7147L57.9621 45.732H62.9611V25.9412H58.3373V39.2477ZM84.4182 37.0097H97.4455V33.6561H84.4182V29.2949H98.3901V25.9423H79.1952V45.732H98.8933V42.3762H84.4182V37.0097ZM112.061 29.2949H119.409V45.732H124.408V29.2949H131.759V25.9423H112.061V29.2949ZM151.955 25.9423H146.337V45.732H166.035V42.3442H151.955V25.9423ZM189.283 25.9423H185.06L177.504 45.732H181.737L183.354 41.2274H191.243L192.954 45.732H197.202L189.283 25.9423ZM184.555 37.8727L187.188 30.5408L189.97 37.8727H184.555ZM229.383 37.0638C228.617 36.2229 227.518 35.6259 226.088 35.2794C227.105 34.8898 227.913 34.3027 228.504 33.5247C229.102 32.7456 229.396 31.8893 229.396 30.9546C229.396 30.096 229.155 29.3192 228.673 28.6261C228.202 27.9442 227.585 27.3751 226.867 26.9598C226.144 26.5438 225.326 26.2712 224.412 26.1388C223.496 26.0074 222.105 25.9434 220.246 25.9434H210.836V45.732H218.839C221.868 45.7155 223.778 45.6702 224.567 45.5974C225.829 45.4804 226.891 45.1714 227.752 44.6671C228.595 44.1797 229.297 43.4806 229.787 42.6388C230.286 41.7935 230.536 40.9217 230.536 40.0301C230.551 38.9293 230.137 37.8658 229.383 37.0638ZM215.561 29.2949H218.302C220.55 29.2949 221.91 29.3192 222.383 29.3611C223.178 29.4461 223.779 29.6734 224.181 30.0563C224.583 30.4337 224.785 30.9303 224.785 31.5395C224.785 32.174 224.551 32.686 224.084 33.0756C223.615 33.4651 222.975 33.7002 222.155 33.7819C221.705 33.8238 220.548 33.8481 218.691 33.8481H215.561V29.2949ZM224.97 41.4845C224.526 41.895 223.95 42.1511 223.241 42.257C222.777 42.3376 221.689 42.3762 219.971 42.3762H215.562V37.2006H219.41C221.576 37.2006 222.985 37.2944 223.636 37.4809C224.284 37.663 224.781 37.9598 225.125 38.3637C225.47 38.7687 225.639 39.2631 225.639 39.8436C225.639 40.53 225.416 41.0773 224.97 41.4845ZM235.228 19C234.396 19.0026 233.598 19.3357 233.011 19.926C232.424 20.5164 232.095 21.3157 232.097 22.1484C232.095 22.9813 232.423 23.7809 233.011 24.3714C233.598 24.962 234.396 25.2952 235.228 25.2979C236.062 25.2955 236.86 24.9625 237.448 24.372C238.036 23.7814 238.365 22.9816 238.364 22.1484C238.364 21.7358 238.284 21.3271 238.127 20.9456C237.97 20.5641 237.739 20.2172 237.448 19.9249C237.157 19.6325 236.811 19.4004 236.43 19.2417C236.049 19.083 235.641 19.0009 235.228 19ZM235.231 24.8664C234.874 24.8657 234.522 24.7948 234.193 24.6578C233.864 24.5208 233.566 24.3204 233.314 24.068C233.063 23.8156 232.864 23.5162 232.728 23.1868C232.592 22.8575 232.523 22.5046 232.524 22.1484C232.523 21.7921 232.592 21.4391 232.728 21.1096C232.863 20.7801 233.063 20.4805 233.314 20.228C233.565 19.9755 233.864 19.775 234.193 19.638C234.522 19.5009 234.874 19.43 235.231 19.4293C235.587 19.4303 235.939 19.5014 236.267 19.6385C236.596 19.7757 236.894 19.9762 237.145 20.2286C237.396 20.4809 237.595 20.7803 237.73 21.1095C237.865 21.4387 237.934 21.7914 237.933 22.1473C237.935 22.8662 237.652 23.5565 237.145 24.0664C236.638 24.5763 235.95 24.8641 235.231 24.8664Z" fill="#28F6BC"/>
<path d="M236.075 22.8723C235.977 22.7177 235.861 22.5761 235.728 22.4508C235.652 22.3872 235.567 22.3344 235.476 22.294C235.779 22.2499 236.003 22.1528 236.149 21.9983C236.292 21.8437 236.37 21.6389 236.365 21.4278C236.367 21.2591 236.322 21.0933 236.235 20.9488C236.156 20.8108 236.032 20.704 235.884 20.6465C235.737 20.5891 235.523 20.5604 235.239 20.5604H233.838V23.7342H234.258V22.3261H234.742C234.85 22.3261 234.928 22.3327 234.976 22.3415C235.043 22.3592 235.108 22.3875 235.167 22.4254C235.249 22.4846 235.321 22.5569 235.38 22.6395C235.459 22.741 235.559 22.8844 235.681 23.0742L236.1 23.7342H236.621L236.075 22.8723ZM235.158 21.9619H234.258V20.9146H235.258C235.493 20.9146 235.662 20.9621 235.772 21.0581C235.825 21.104 235.867 21.1609 235.895 21.2248C235.923 21.2886 235.937 21.358 235.936 21.4278C235.936 21.5293 235.907 21.6288 235.853 21.7147C235.793 21.8027 235.706 21.8692 235.606 21.9045C235.46 21.9476 235.309 21.967 235.158 21.9619ZM45.9543 53.7283L46.8074 53.9887C46.6772 54.4687 46.4598 54.8241 46.1563 55.0569C45.8517 55.2898 45.4655 55.4056 44.9998 55.4056C44.4215 55.4056 43.947 55.207 43.5751 54.8097C43.2021 54.4136 43.0156 53.8717 43.0156 53.1831C43.0156 52.4559 43.2032 51.8909 43.5784 51.487C43.9514 51.0853 44.4425 50.8833 45.0528 50.8833C45.5858 50.8833 46.0172 51.04 46.3494 51.3546C46.548 51.541 46.6959 51.8081 46.7952 52.1557L45.9301 52.3698C45.8876 52.1581 45.7734 51.9675 45.6067 51.8302C45.4365 51.6965 45.2249 51.6267 45.0086 51.6326C44.8593 51.628 44.7108 51.657 44.5742 51.7176C44.4376 51.7781 44.3164 51.8687 44.2196 51.9825C44.0176 52.2164 43.9161 52.5949 43.9161 53.1169C43.9161 53.672 44.0154 54.0681 44.2141 54.3021C44.3071 54.4163 44.4252 54.5075 44.5591 54.5687C44.6931 54.63 44.8393 54.6596 44.9865 54.6552C45.2091 54.6601 45.4252 54.5805 45.5913 54.4323C45.7601 54.2822 45.8815 54.0472 45.9543 53.7283ZM53.7155 55.3339V50.9661H56.9268V51.7044H54.5917V52.6678H56.7591V53.406H54.5917V54.5956H57.0085V55.3339H53.7155ZM64.4529 55.3339V51.7033H63.1728V50.9661H66.6092V51.7044H65.3291V55.3339H64.4529ZM72.9071 55.3339V50.9661H76.1184V51.7044H73.7844V52.6678H75.9517V53.406H73.7844V54.5956H76.2011V55.3339H72.9071ZM82.6723 50.9661H84.4081C84.7513 50.9661 85.0085 50.9805 85.1773 51.0091C85.3461 51.0378 85.4973 51.0985 85.6297 51.189C85.7644 51.2817 85.8747 51.4031 85.963 51.5554C86.0532 51.7112 86.0993 51.8886 86.0965 52.0685C86.0965 52.2738 86.0414 52.4614 85.9332 52.6313C85.8272 52.8006 85.6737 52.935 85.4918 53.0176C85.7544 53.0948 85.9564 53.2272 86.0988 53.4115C86.2409 53.6009 86.3155 53.8325 86.3106 54.0692C86.3094 54.2685 86.2625 54.4647 86.1733 54.6429C86.0841 54.821 85.9552 54.9763 85.7964 55.0966C85.6211 55.2152 85.418 55.2863 85.2071 55.303C85.0625 55.3184 84.7105 55.3295 84.1521 55.3328H82.6734L82.6723 50.9661ZM83.5507 51.7044V52.7031H84.1245C84.4666 52.7031 84.6785 52.6987 84.7613 52.6887C84.8931 52.679 85.0177 52.6244 85.1144 52.5342C85.1579 52.4898 85.1918 52.4369 85.214 52.3788C85.2362 52.3207 85.2462 52.2587 85.2435 52.1965C85.2491 52.078 85.2097 51.9617 85.1332 51.871C85.0457 51.7809 84.9275 51.7269 84.8021 51.7198C84.5526 51.7056 84.3027 51.7008 84.0528 51.7055H83.5496V51.7033L83.5507 51.7044ZM83.5507 53.4413V54.5967H84.364C84.6818 54.5967 84.8816 54.5879 84.9676 54.5703C85.0909 54.5507 85.2039 54.4896 85.2877 54.397C85.3729 54.2946 85.4163 54.1637 85.409 54.0306C85.4129 53.9136 85.3801 53.7982 85.3152 53.7007C85.2476 53.6064 85.1512 53.5367 85.0405 53.502C84.9202 53.4612 84.6608 53.4413 84.2614 53.4413H83.5507ZM96.3936 55.3339H95.449L95.0705 54.3462H93.3181L92.9594 55.3339H92.0203L93.7021 50.9661H94.6357L96.3936 55.3339ZM94.7902 53.608L94.1722 51.988L93.5862 53.608H94.7902ZM105.155 55.3339V53.5131H104.976C104.697 53.5131 104.501 53.555 104.387 53.6378C104.273 53.7194 104.078 53.9666 103.802 54.3771L103.165 55.3339H102.132L102.662 54.4831C102.869 54.1454 103.034 53.9081 103.158 53.7724C103.28 53.6356 103.434 53.5142 103.62 53.4082C103.22 53.3442 102.931 53.203 102.754 52.9834C102.576 52.7592 102.482 52.4796 102.488 52.1932C102.488 51.9284 102.555 51.6911 102.688 51.4859C102.809 51.2897 102.995 51.1426 103.213 51.0709C103.431 50.9992 103.758 50.9661 104.19 50.9661H106.031V55.3339H105.155ZM105.155 51.7033H104.472C104.126 51.7033 103.898 51.7121 103.788 51.7264C103.678 51.7434 103.578 51.8008 103.507 51.8876C103.425 51.9876 103.382 52.1145 103.388 52.244C103.388 52.3974 103.426 52.5188 103.502 52.6093C103.575 52.6983 103.678 52.7579 103.792 52.777C103.909 52.7991 104.147 52.8101 104.507 52.8101H105.153L105.155 51.7033ZM126.871 50.9661H129.907V55.3339H129.031V51.7033H127.726V53.5682C127.726 54.1024 127.709 54.4742 127.672 54.685C127.649 54.8756 127.557 55.0512 127.414 55.1794C127.277 55.2986 127.062 55.3571 126.77 55.3571C126.667 55.3571 126.48 55.3471 126.21 55.3273V54.6431L126.406 54.6453C126.59 54.6453 126.713 54.621 126.777 54.5714C126.841 54.5228 126.873 54.3992 126.873 54.205L126.87 53.4557V50.9661H126.871ZM140.451 55.3339H139.508L139.13 54.3462H137.377L137.019 55.3339H136.08L137.763 50.9661H138.695L140.451 55.3339ZM138.847 53.608L138.231 51.988L137.645 53.608H138.847ZM146.631 50.9661H149.901V51.7044H147.508V52.7152H148.689C149.015 52.7152 149.286 52.7538 149.501 52.8344C149.715 52.9138 149.9 53.0606 150.052 53.2758C150.203 53.4899 150.28 53.7404 150.28 54.0262C150.28 54.3231 150.203 54.5758 150.051 54.7865C149.922 54.9779 149.74 55.1278 149.528 55.218C149.334 55.2953 149.054 55.3339 148.692 55.3339H146.632V50.9661H146.631ZM147.507 54.5956H148.376C148.653 54.5956 148.848 54.5824 148.961 54.5548C149.08 54.5265 149.186 54.459 149.261 54.3631C149.337 54.2672 149.379 54.1485 149.379 54.0262C149.379 53.8276 149.306 53.6808 149.161 53.5903C149.015 53.4998 148.766 53.4535 148.415 53.4535H147.508V54.5956H147.507ZM156.521 53.1765C156.521 52.7307 156.587 52.3555 156.72 52.052C156.818 51.828 156.951 51.6282 157.122 51.4517C157.28 51.283 157.471 51.1485 157.683 51.0566C157.953 50.9407 158.264 50.8822 158.618 50.8822C159.257 50.8822 159.767 51.0831 160.15 51.4837C160.536 51.8842 160.728 52.4426 160.728 53.1555C160.728 53.864 160.537 54.4169 160.156 54.8174C159.775 55.2169 159.268 55.4167 158.63 55.4167C157.984 55.4167 157.473 55.2191 157.091 54.8208C156.712 54.4224 156.521 53.875 156.521 53.1765ZM157.422 53.1467C157.422 53.6444 157.536 54.0229 157.762 54.2811C157.991 54.5394 158.279 54.6674 158.629 54.6674C158.792 54.6718 158.954 54.6397 159.103 54.5735C159.252 54.5072 159.384 54.4085 159.49 54.2844C159.713 54.0284 159.826 53.6455 159.826 53.1357C159.826 52.6302 159.717 52.2528 159.498 52.0056C159.28 51.7562 158.989 51.6326 158.628 51.6326C158.266 51.6326 157.975 51.7573 157.752 52.0089C157.533 52.2617 157.422 52.6402 157.422 53.1467ZM167.149 55.3339V50.9661H168.562C169.097 50.9661 169.447 50.9882 169.608 51.0312C169.858 51.0974 170.069 51.2409 170.237 51.4583C170.406 51.679 170.489 51.9626 170.489 52.3113C170.497 52.5457 170.447 52.7783 170.344 52.9889C170.256 53.1608 170.129 53.3092 169.972 53.4215C169.835 53.5201 169.679 53.5906 169.515 53.6289C169.213 53.6772 168.906 53.6979 168.6 53.6907H168.025V55.3339H167.149ZM168.025 51.7033V52.9536H168.511C168.861 52.9536 169.095 52.9304 169.21 52.8841C169.324 52.8422 169.422 52.7659 169.49 52.6657C169.558 52.5656 169.593 52.4467 169.59 52.3257C169.595 52.1801 169.545 52.0381 169.449 51.9284C169.356 51.8249 169.23 51.7564 169.092 51.7342C168.881 51.7079 168.668 51.6976 168.454 51.7033H168.025ZM180.303 55.3339H179.36L178.981 54.3462H177.228L176.87 55.3339H175.932L177.613 50.9661H178.546L180.303 55.3339ZM178.7 53.608L178.082 51.988L177.496 53.608H178.7ZM187.152 55.3339V51.7033H185.872V50.9661H189.307V51.7044H188.028V55.3339H187.152ZM195.264 53.1765C195.264 52.7307 195.33 52.3555 195.464 52.052C195.562 51.828 195.696 51.6282 195.865 51.4517C196.023 51.2828 196.214 51.1483 196.426 51.0566C196.696 50.9407 197.007 50.8822 197.361 50.8822C197.999 50.8822 198.51 51.0831 198.893 51.4837C199.277 51.8842 199.469 52.4426 199.469 53.1555C199.469 53.864 199.278 54.4169 198.899 54.8174C198.518 55.2169 198.01 55.4167 197.373 55.4167C196.727 55.4167 196.214 55.2191 195.834 54.8208C195.456 54.4224 195.264 53.875 195.264 53.1765ZM196.165 53.1467C196.165 53.6444 196.28 54.0229 196.505 54.2811C196.734 54.5394 197.022 54.6674 197.372 54.6674C197.535 54.672 197.697 54.64 197.846 54.5737C197.995 54.5074 198.127 54.4086 198.233 54.2844C198.457 54.0284 198.57 53.6455 198.57 53.1357C198.57 52.6302 198.46 52.2528 198.243 52.0056C198.024 51.7562 197.732 51.6326 197.37 51.6326C197.01 51.6326 196.718 51.7573 196.496 52.0089C196.276 52.2617 196.165 52.6402 196.165 53.1467ZM205.893 55.3339V50.9661H207.306C207.842 50.9661 208.189 50.9882 208.353 51.0312C208.603 51.0974 208.811 51.2409 208.981 51.4583C209.151 51.679 209.233 51.9626 209.233 52.3113C209.233 52.5806 209.185 52.8057 209.087 52.9889C209 53.1612 208.873 53.3098 208.716 53.4215C208.579 53.5197 208.424 53.5901 208.26 53.6289C207.957 53.6772 207.651 53.6979 207.344 53.6907H206.77V55.3339H205.893ZM206.77 51.7033V52.9536H207.256C207.606 52.9536 207.839 52.9304 207.957 52.8841C208.069 52.8426 208.165 52.767 208.233 52.6678C208.301 52.5668 208.336 52.4473 208.333 52.3257C208.338 52.1805 208.289 52.0386 208.194 51.9284C208.1 51.8251 207.974 51.7567 207.836 51.7342C207.624 51.7079 207.411 51.6975 207.197 51.7033H206.77ZM215.657 50.9661H216.475V53.8772L218.252 50.9661H219.117V55.3339H218.299V52.4868L216.534 55.3339H215.656L215.657 50.9661ZM228.753 55.3339V53.5131H228.576C228.297 53.5131 228.101 53.555 227.987 53.6378C227.873 53.7194 227.678 53.9666 227.402 54.3771L226.765 55.3339H225.734L226.263 54.4831C226.468 54.1454 226.635 53.9081 226.758 53.7724C226.881 53.6356 227.035 53.5142 227.22 53.4082C226.819 53.3442 226.534 53.203 226.355 52.9834C226.176 52.7595 226.082 52.4797 226.089 52.1932C226.089 51.9284 226.155 51.6911 226.289 51.4859C226.409 51.2897 226.595 51.1426 226.814 51.0709C227.032 50.9992 227.358 50.9661 227.79 50.9661H229.631V55.3339H228.753ZM228.753 51.7033H228.073C227.727 51.7033 227.498 51.7121 227.388 51.7264C227.278 51.7441 227.178 51.8014 227.107 51.8876C227.025 51.9876 226.983 52.1146 226.988 52.244C226.988 52.3974 227.027 52.5188 227.103 52.6093C227.176 52.6982 227.278 52.7578 227.391 52.777C227.508 52.7991 227.747 52.8101 228.107 52.8101H228.753V51.7033Z" fill="#28F6BC"/>
</g>
</g>
</g>
<defs>
<clipPath id="clip0_227_942">
<rect width="238" height="80" fill="white"/>
</clipPath>
<clipPath id="clip1_227_942">
<rect width="238.364" height="36.4167" fill="white" transform="translate(0 19)"/>
</clipPath>
</defs>
</svg>
