<svg width="155" height="80" viewBox="0 0 155 80" fill="none" xmlns="http://www.w3.org/2000/svg">
<g clip-path="url(#clip0_227_975)">
<path d="M137.965 11.5799C133.152 12.7978 129.885 16.1807 128.531 21.342C127.932 23.623 127.932 28.1851 128.531 30.6208C129.769 35.6855 132.9 39.0297 137.636 40.3056C139.589 40.8468 143.822 40.8082 145.852 40.2282C148.829 39.3777 151.4 37.4059 152.811 34.8929C153.41 33.8297 154.454 31.1427 154.454 30.6788C154.454 30.6015 153.062 30.5242 151.361 30.5242C148.906 30.5242 148.268 30.5821 148.268 30.7755C148.268 30.9301 147.998 31.568 147.669 32.2253C146.471 34.661 144.112 35.9175 141.193 35.6855C136.805 35.3569 134.35 31.8387 134.35 25.8847C134.35 21.226 135.781 18.3264 138.796 16.8379C139.763 16.3546 140.053 16.316 142.082 16.316C144.035 16.316 144.421 16.374 145.233 16.7799C146.277 17.2825 147.418 18.655 147.998 20.1242L148.365 21.052H151.419C154.86 21.052 154.667 21.168 154.184 19.3896C153.449 16.6446 151.245 13.9769 148.655 12.7011C146.471 11.6186 145.253 11.3479 142.179 11.2706C139.937 11.2126 139.202 11.2706 137.965 11.5799Z" fill="#28F6BC"/>
<path d="M22.0165 13.7063C20.2574 13.8803 17.6091 14.5182 16.3332 15.0788C15.5793 15.4268 15.7147 15.4461 24.4522 15.4268L33.3444 15.4074L32.5132 15.0401C30.7734 14.2282 26.8106 13.4743 24.6455 13.5323C24.1236 13.5517 22.9251 13.629 22.0165 13.7063Z" fill="#28F6BC"/>
<path d="M12.2734 17.2439L11.3262 17.8624L17.8213 17.9204C21.3975 17.9398 27.2935 17.9398 30.9277 17.9204L37.5388 17.8624L36.6689 17.2245L35.799 16.6059H24.5098H13.2399L12.2734 17.2439Z" fill="#28F6BC"/>
<path d="M9.3758 19.5249C9.00851 19.8535 8.69922 20.1821 8.69922 20.2595C8.69922 20.3175 15.7936 20.3755 24.4539 20.3755C33.1141 20.3755 40.2085 20.3368 40.2085 20.2595C40.2085 20.2015 39.9186 19.8922 39.5706 19.5442L38.9327 18.9256H24.4925H10.0717L9.3758 19.5249Z" fill="#28F6BC"/>
<path d="M7.03756 22.0572L6.51562 22.6952L24.358 22.7532C34.1781 22.7725 42.239 22.7532 42.297 22.7145C42.3357 22.6565 42.1811 22.3665 41.9298 22.0379L41.4658 21.458H24.5127L7.57882 21.4387L7.03756 22.0572Z" fill="#28F6BC"/>
<path d="M5.43134 24.319C5.19937 24.6283 5.02539 24.9762 5.02539 25.0922C5.02539 25.2468 10.5347 25.3048 24.5689 25.3048H44.0931L43.6678 24.5316L43.2232 23.7584H24.5302H5.81796L5.43134 24.319Z" fill="#28F6BC"/>
<path d="M3.96224 26.89L3.71094 27.5279L24.395 27.5859C35.7808 27.6052 45.137 27.5859 45.1756 27.5472C45.2336 27.5085 45.1176 27.1992 44.9437 26.8706L44.6344 26.2714H24.4336H4.23287L3.96224 26.89Z" fill="#28F6BC"/>
<path d="M5.45067 30.0409L5.87595 30.9108H8.25364C9.56814 30.9108 10.6313 30.8721 10.6313 30.8141C10.6313 30.7561 10.4574 30.3502 10.2447 29.9442L9.85811 29.171H7.44175H5.02539L5.45067 30.0409Z" fill="#28F6BC"/>
<path d="M14.8828 30.0409V30.9108H17.1059H19.3289V30.0409V29.171H17.1059H14.8828V30.0409Z" fill="#28F6BC"/>
<path d="M21.8438 30.0409V30.9108H24.9367H28.0296V30.0409V29.171H24.9367H21.8438V30.0409Z" fill="#28F6BC"/>
<path d="M29.8832 30.0409L30.5791 30.9108H32.7055C33.8654 30.9108 34.7932 30.8528 34.7546 30.7561C34.7159 30.6788 34.5613 30.2922 34.4066 29.8862L34.136 29.171H31.6423H29.168L29.8832 30.0409Z" fill="#28F6BC"/>
<path d="M39.3755 29.8476C39.2015 30.2342 39.0469 30.6208 39.0469 30.7175C39.0469 30.8334 39.9168 30.9108 41.1346 30.9108L43.203 30.8914L43.8409 30.0409L44.4788 29.171H42.0818H39.7041L39.3755 29.8476Z" fill="#28F6BC"/>
<path d="M2.72436 30.1569C2.60837 30.5048 2.51172 30.8141 2.51172 30.8334C2.51172 30.8721 2.82101 30.9108 3.1883 30.9108C3.96153 30.9108 3.98086 30.8721 3.53625 30.1182C3.11098 29.403 2.99499 29.4223 2.72436 30.1569Z" fill="#28F6BC"/>
<path d="M45.6787 29.7896C45.5627 29.9249 45.3694 30.2342 45.2534 30.4662C45.0408 30.8914 45.0601 30.9108 45.7174 30.9108C46.3746 30.9108 46.394 30.8914 46.278 30.3695C46.104 29.6736 45.9107 29.4803 45.6787 29.7896Z" fill="#28F6BC"/>
<path d="M2.24195 32.1093C1.97131 33.1725 2.02931 33.2305 3.47912 33.2305C4.94827 33.2305 5.04492 33.1338 4.60031 32.1673C4.407 31.742 4.27169 31.684 3.38247 31.684C2.49325 31.684 2.35793 31.742 2.24195 32.1093Z" fill="#28F6BC"/>
<path d="M6.2818 32.3026C6.35912 32.6505 6.45578 32.9985 6.51377 33.0758C6.55243 33.1725 7.77028 33.2305 9.20076 33.2305H11.7911L11.4045 32.4572L11.0179 31.684H8.58217H6.14648L6.2818 32.3026Z" fill="#28F6BC"/>
<path d="M14.8828 32.4572V33.2305H17.1059H19.3289V32.4572V31.684H17.1059H14.8828V32.4572Z" fill="#28F6BC"/>
<path d="M21.8438 32.4572V33.2305H24.9367H28.0296V32.4572V31.684H24.9367H21.8438V32.4572Z" fill="#28F6BC"/>
<path d="M31.1211 31.858C31.1211 31.9353 31.2177 32.2833 31.3337 32.6312L31.5464 33.2305H33.6534C34.8133 33.2305 35.7605 33.1918 35.7605 33.1338C35.7605 33.0952 35.6059 32.7472 35.4319 32.3606L35.1033 31.684H33.1122C32.0103 31.684 31.1211 31.7613 31.1211 31.858Z" fill="#28F6BC"/>
<path d="M38.2153 32.3606C38.0414 32.7472 37.8867 33.0952 37.8867 33.1338C37.8867 33.1918 38.8339 33.2305 39.9745 33.2305H42.0815L42.3908 32.4572L42.6808 31.684H40.6124H38.544L38.2153 32.3606Z" fill="#28F6BC"/>
<path d="M44.3629 32.2639C43.8989 33.1725 43.9569 33.2305 45.5227 33.2305C46.5859 33.2305 46.9339 33.1725 46.8952 32.9792C46.8372 32.8632 46.7599 32.5152 46.7019 32.2059C46.5859 31.7227 46.5086 31.684 45.6194 31.684C44.7495 31.684 44.6335 31.742 44.3629 32.2639Z" fill="#28F6BC"/>
<path d="M1.93327 34.5257C1.93327 34.719 1.87528 35.0669 1.81729 35.2989C1.7013 35.7435 1.72064 35.7435 3.55707 35.7435C5.56748 35.7435 5.58681 35.7242 5.29684 34.6223C5.18086 34.2164 5.06487 34.197 3.55707 34.197C2.14591 34.197 1.93327 34.2357 1.93327 34.5257Z" fill="#28F6BC"/>
<path d="M6.76562 34.661C6.76562 35.7435 6.76562 35.7435 9.95522 35.7435H12.9128L12.6229 34.9703L12.3136 34.197H9.52994H6.76562V34.661Z" fill="#28F6BC"/>
<path d="M14.8828 34.9703V35.7435H17.1059H19.3289V34.9703V34.197H17.1059H14.8828V34.9703Z" fill="#28F6BC"/>
<path d="M21.8438 34.9703V35.7435H24.9367H28.0296V34.9703V34.197H24.9367H21.8438V34.9703Z" fill="#28F6BC"/>
<path d="M31.9731 34.6223C32.0311 34.8736 32.0891 35.2216 32.0891 35.3955C32.0891 35.7242 32.437 35.7435 36.8251 35.7435C41.2132 35.7435 41.5612 35.7242 41.5612 35.3955C41.5612 35.2216 41.6192 34.8736 41.6772 34.6223C41.7932 34.197 41.7932 34.197 39.5701 34.197H37.3471L37.1151 34.777C36.9798 35.0863 36.8251 35.3569 36.7478 35.3569C36.6705 35.3569 36.5158 35.0863 36.3999 34.777L36.1872 34.197H34.0222C31.8571 34.197 31.8571 34.197 31.9731 34.6223Z" fill="#28F6BC"/>
<path d="M43.6872 34.5257C43.6872 34.719 43.6292 35.0669 43.5712 35.2989C43.4552 35.7435 43.4745 35.7435 45.311 35.7435H47.1861L47.1281 35.0089L47.0701 34.2937L45.3883 34.2357C43.8612 34.197 43.6872 34.2164 43.6872 34.5257Z" fill="#28F6BC"/>
<path d="M1.74023 37.29V38.0632H3.69265H5.62574L5.56774 37.3286L5.50975 36.6134L3.63466 36.5554L1.74023 36.4974V37.29Z" fill="#28F6BC"/>
<path d="M6.95898 37.29V38.0632H10.4385C12.7389 38.0632 13.9181 37.9859 13.9181 37.8699C13.9181 37.7539 13.7828 37.406 13.6281 37.0967L13.3188 36.5167H10.1486H6.95898V37.29Z" fill="#28F6BC"/>
<path d="M14.8828 37.29V38.0632H17.1059H19.3289V37.29V36.5167H17.1059H14.8828V37.29Z" fill="#28F6BC"/>
<path d="M21.8438 37.29V38.0632H24.956H28.049L27.991 37.3286L27.933 36.6134L24.898 36.5554L21.8438 36.4974V37.29Z" fill="#28F6BC"/>
<path d="M32.2831 36.9807C32.2831 37.232 32.2251 37.5799 32.1671 37.7539C32.0511 38.0245 32.5344 38.0632 36.7098 38.0632H41.3686V37.29V36.5167H36.8258H32.2831V36.9807Z" fill="#28F6BC"/>
<path d="M43.4941 37.29V38.0632H45.3306H47.167V37.29V36.5167H45.3306H43.4941V37.29Z" fill="#28F6BC"/>
<path d="M1.89373 39.803L1.97105 40.5762H3.57551H5.17998L5.29596 39.9769C5.35395 39.6483 5.41195 39.3004 5.41195 39.2037C5.41195 39.1071 4.60005 39.0297 3.61418 39.0297H1.81641L1.89373 39.803Z" fill="#28F6BC"/>
<path d="M6.88161 39.339C6.82362 39.513 6.76562 39.861 6.76562 40.1123V40.5762H9.066H11.3664L11.5597 40.0349L11.7337 39.513L11.985 40.0349L12.2363 40.5762H15.7931H19.3307V39.803V39.0297H17.1076C15.1166 39.0297 14.8846 39.0684 14.8846 39.3584C14.8653 39.687 14.8653 39.687 14.6719 39.3584C14.498 39.0684 14.092 39.0297 10.7478 39.0297C7.5002 39.0297 6.97826 39.0684 6.88161 39.339Z" fill="#28F6BC"/>
<path d="M21.8438 39.803V40.5762H24.9367H28.0296V39.803V39.0297H24.9367H21.8438V39.803Z" fill="#28F6BC"/>
<path d="M31.9727 39.5517C31.9147 39.861 31.8374 40.2089 31.7794 40.3249C31.7407 40.5182 32.2433 40.5762 33.9444 40.5762C36.1095 40.5762 36.1675 40.5762 36.3801 40.0929C36.4961 39.8223 36.6508 39.6097 36.7281 39.6097C36.8054 39.6097 36.9601 39.8223 37.076 40.0929C37.2887 40.5762 37.3467 40.5762 39.5504 40.5762H41.8121L41.6768 39.9769C41.6188 39.6483 41.5608 39.3004 41.5608 39.2037C41.5608 39.1071 39.4344 39.0297 36.8247 39.0297H32.0887L31.9727 39.5517Z" fill="#28F6BC"/>
<path d="M43.5712 39.455C43.6292 39.7063 43.6872 40.0543 43.6872 40.2282C43.6872 40.5375 43.8998 40.5762 45.311 40.5762C46.8188 40.5762 46.9348 40.5569 47.0507 40.1316C47.3407 39.0491 47.3214 39.0297 45.311 39.0297C43.4745 39.0297 43.4552 39.0297 43.5712 39.455Z" fill="#28F6BC"/>
<path d="M2.125 41.91C2.125 42.7413 2.31831 42.8959 3.40084 42.8959C4.34805 42.8959 4.46403 42.8572 4.63801 42.3933C4.9473 41.5814 4.88931 41.5427 3.47816 41.5427C2.27965 41.5427 2.125 41.5814 2.125 41.91Z" fill="#28F6BC"/>
<path d="M6.51417 41.6781C6.47551 41.7747 6.37886 42.0647 6.30153 42.3546L6.18555 42.8959H8.4086C10.6316 42.8959 10.651 42.8959 10.825 42.3933C10.9409 42.1227 11.0183 41.8134 11.0183 41.7167C11.0183 41.5041 6.63016 41.4654 6.51417 41.6781Z" fill="#28F6BC"/>
<path d="M13.0864 42.2193L13.4151 42.8959H16.3727H19.3303V42.2193V41.5427H16.0441H12.7578L13.0864 42.2193Z" fill="#28F6BC"/>
<path d="M21.8438 42.2193V42.8959H24.9367H28.0296V42.2193V41.5427H24.9367H21.8438V42.2193Z" fill="#28F6BC"/>
<path d="M31.2594 41.8714C31.2208 42.0647 31.1048 42.374 31.0274 42.5479C30.8921 42.8766 31.0661 42.8959 32.9992 42.8959C35.0869 42.8959 35.1256 42.8959 35.3382 42.4126C35.4735 42.142 35.5702 41.8327 35.5702 41.7361C35.5702 41.6201 34.6616 41.5427 33.4631 41.5427C31.6267 41.5427 31.3561 41.5814 31.2594 41.8714Z" fill="#28F6BC"/>
<path d="M37.8867 41.6007C37.8867 41.6394 37.9834 41.9487 38.0994 42.2966L38.312 42.8959H40.4964H42.7001L42.4295 42.258L42.1782 41.6394L40.0324 41.5814C38.8533 41.5621 37.8867 41.5621 37.8867 41.6007Z" fill="#28F6BC"/>
<path d="M44.0742 41.6201C44.0742 41.6394 44.1709 41.9487 44.2869 42.2966C44.4802 42.8572 44.5575 42.8959 45.524 42.8959C46.5872 42.8959 46.7805 42.7413 46.7805 41.91C46.7805 41.5814 46.6259 41.5427 45.4274 41.5427C44.6928 41.5427 44.0742 41.5814 44.0742 41.6201Z" fill="#28F6BC"/>
<path d="M2.76342 44.5584L2.97606 45.2543L3.42067 44.713C4.0006 43.9784 3.98126 43.8625 3.20803 43.8625H2.55078L2.76342 44.5584Z" fill="#28F6BC"/>
<path d="M5.73888 43.9978C5.68089 44.0944 5.50691 44.481 5.35226 44.8677L5.04297 45.6022H7.43999H9.81769L10.1077 44.7323L10.4169 43.8625H8.11657C6.86007 43.8625 5.77754 43.9204 5.73888 43.9978Z" fill="#28F6BC"/>
<path d="M14.3432 44.7323L14.7685 45.6022H17.0496H19.3306V44.7323V43.8625H16.6243H13.918L14.3432 44.7323Z" fill="#28F6BC"/>
<path d="M21.8438 44.7323V45.6022H24.9367H28.0296V44.7323V43.8625H24.9367H21.8438V44.7323Z" fill="#28F6BC"/>
<path d="M29.5178 44.7323L28.7832 45.6022H31.2576H33.7512L34.1765 44.7323L34.6018 43.8625H32.4174L30.2523 43.8818L29.5178 44.7323Z" fill="#28F6BC"/>
<path d="M39.2807 44.7323L39.706 45.6022H42.1997H44.6741L43.9588 44.7323L43.2629 43.8625H41.0592H38.8555L39.2807 44.7323Z" fill="#28F6BC"/>
<path d="M45.2135 44.1911C45.3102 44.3844 45.5228 44.713 45.6775 44.9063C45.9288 45.2543 45.9674 45.2349 46.1607 44.6357C46.2961 44.2877 46.3927 43.9591 46.3927 43.9398C46.3927 43.9011 46.0834 43.8624 45.7161 43.8624C45.1169 43.8624 45.0589 43.9011 45.2135 44.1911Z" fill="#28F6BC"/>
<path d="M3.86523 47.342C3.86523 47.458 4.00055 47.8059 4.1552 48.1152L4.46449 48.6952H24.4333C40.2266 48.6952 44.46 48.6372 44.6147 48.4439C44.7307 48.3279 44.866 47.9799 44.9433 47.6706L45.0786 47.1487H24.4719C10.2058 47.1487 3.86523 47.2067 3.86523 47.342Z" fill="#28F6BC"/>
<path d="M5.39228 50.2803L5.77889 50.9182L24.4332 50.9762L43.0874 51.0149L43.4741 50.4543C43.706 50.145 43.88 49.8357 43.88 49.7777C43.88 49.7197 35.1231 49.6617 24.4332 49.6617H4.98633L5.39228 50.2803Z" fill="#28F6BC"/>
<path d="M7.1903 52.7933L7.6929 53.4312L24.3561 53.4892C39.9948 53.5279 41.0773 53.5085 41.4253 53.1992C41.6186 53.0059 41.8699 52.6966 41.9665 52.5227C42.1405 52.194 41.2899 52.1747 24.4334 52.1747H6.70703L7.1903 52.7933Z" fill="#28F6BC"/>
<path d="M9.45312 55.171L10.1877 55.8476H24.4539H38.72L39.4546 55.171L40.2085 54.4944H24.4539H8.69922L9.45312 55.171Z" fill="#28F6BC"/>
<path d="M11.8677 57.1814C11.9257 57.2781 12.3703 57.5874 12.8342 57.858L13.7041 58.3606H24.4714H35.2387L36.1859 57.7613C36.6885 57.4327 37.1138 57.1234 37.1138 57.0848C37.1138 57.0461 31.4112 57.0074 24.4327 57.0074C16.9324 57.0074 11.8097 57.0848 11.8677 57.1814Z" fill="#28F6BC"/>
<path d="M16.3918 59.6364C18.1509 60.4096 20.7992 60.9123 23.5829 61.0089C26.8111 61.1249 28.8795 60.8349 31.5085 59.9264L33.1517 59.3658H24.4528C16.7591 59.3658 15.8312 59.3851 16.3918 59.6364Z" fill="#28F6BC"/>
<path d="M53.1582 25.9814V39.9963H56.2511H59.3441V33.7137V27.4312H65.1433H70.9426V33.7137V39.9963H74.0355H77.1285V25.9814V11.9665H74.0355H70.9426V17.2825V22.5985H65.1433H59.3441V17.2825V11.9665H56.2511H53.1582V25.9814Z" fill="#28F6BC"/>
<path d="M79.0625 25.9814V39.9963H82.2134L85.345 39.9769L91.2409 30.1955C94.4885 24.8216 97.2335 20.2788 97.3688 20.1048C97.5621 19.8535 97.6008 21.8833 97.6201 29.8862V39.9963H100.423H103.226V25.9814V11.9665H99.9978H96.7502L90.8543 21.7673L84.9584 31.568L84.9004 21.7673L84.8618 11.9665H81.9621H79.0625V25.9814Z" fill="#28F6BC"/>
<path d="M105.932 25.9814V39.9963H109.025H112.118V35.2989V30.6208L113.625 29.1323L115.114 27.6439L119.657 33.7524C122.15 37.0966 124.277 39.8803 124.393 39.919C124.509 39.9769 126.306 39.9769 128.375 39.9576L132.164 39.8996L125.823 31.684C122.324 27.1606 119.483 23.4297 119.483 23.3717C119.502 23.3137 122.17 20.7427 125.417 17.6691L131.332 12.0632L127.389 12.0052L123.445 11.9665L117.955 17.5725C114.94 20.6461 112.388 23.1784 112.291 23.1784C112.195 23.1784 112.118 20.8394 112.118 17.5725V11.9665H109.025H105.932V25.9814Z" fill="#28F6BC"/>
<path d="M53.1582 43.3792C53.1582 43.6305 58.9188 43.6691 103.805 43.6691C148.691 43.6691 154.452 43.6305 154.452 43.3792C154.452 43.1279 148.691 43.0892 103.805 43.0892C58.9188 43.0892 53.1582 43.1279 53.1582 43.3792Z" fill="#28F6BC"/>
<path d="M149.234 45.4476C149.254 46.5494 151.535 46.994 152.424 46.0855C152.695 45.8342 152.907 45.5249 152.907 45.4089C152.907 45.0803 152.347 45.1963 151.941 45.6022C151.728 45.8149 151.303 45.9888 150.974 45.9888C150.626 45.9888 150.259 45.8342 150.066 45.6022C149.679 45.1769 149.234 45.0803 149.234 45.4476Z" fill="#28F6BC"/>
<path d="M62.5356 46.9361C61.1438 47.574 60.5059 48.5985 60.5059 50.1643C60.5059 52.368 62.0523 53.7212 64.5653 53.7212C65.8025 53.7212 67.291 52.9673 67.8516 52.0781C68.6441 50.7829 68.3928 48.4439 67.3297 47.4967C66.2858 46.5494 63.9661 46.2788 62.5356 46.9361ZM65.9378 48.2699C67.1363 49.3331 66.8077 51.8461 65.4159 52.368C64.4107 52.7546 63.5988 52.6 62.9029 51.9041C62.323 51.3242 62.2456 51.1309 62.2456 50.203C62.265 48.5019 62.9415 47.748 64.5073 47.7286C65.1453 47.7286 65.4739 47.8446 65.9378 48.2699Z" fill="#28F6BC"/>
<path d="M99.9402 46.994C99.2829 47.3227 98.9543 47.6706 98.6064 48.3472C98.2004 49.1784 98.0844 49.2751 97.5045 49.2751H96.8472V48.0186V46.7621H96.074H95.3008V50.145V53.5279H96.074H96.8279L96.8859 52.0201L96.9439 50.5316L97.5432 50.4736C98.0844 50.4156 98.1617 50.4736 98.2777 51.0342C98.6257 52.7933 100.133 53.8372 102.086 53.6632C102.743 53.6052 103.497 53.3925 103.884 53.1606C105.276 52.2907 105.778 49.9903 104.928 48.3085C104.367 47.2067 103.207 46.5688 101.777 46.5688C101.139 46.5688 100.481 46.7234 99.9402 46.994ZM102.936 48.1539C103.922 49.0238 103.922 51.2662 102.936 52.1167C102.26 52.6966 101.274 52.6966 100.597 52.1167C99.6502 51.2855 99.6502 49.0044 100.617 48.1732C101.274 47.5933 102.279 47.5933 102.936 48.1539Z" fill="#28F6BC"/>
<path d="M53.3516 50.145V53.5279H54.1248H54.898V52.368C54.898 51.3435 54.956 51.1888 55.3813 50.8989C55.6519 50.7249 55.9032 50.6089 55.9419 50.6476C55.9806 50.6862 56.5412 51.3628 57.1984 52.1167L58.3969 53.5279H59.4601H60.5233L58.7835 51.5368L57.0244 49.565L57.6623 48.9851C58.0103 48.6565 58.7255 48.0379 59.2475 47.5933L60.214 46.7621H59.1508C58.107 46.7621 58.049 46.8007 56.7345 48.0186C55.9999 48.6951 55.2653 49.2557 55.1493 49.2751C54.9754 49.2751 54.898 48.9078 54.898 48.0186V46.7621H54.1248H53.3516V50.145Z" fill="#28F6BC"/>
<path d="M69.7852 50.145V53.5279H70.5584H71.3123L71.3703 51.1502L71.4283 48.7918L72.1049 51.1115L72.8008 53.4312L73.6513 53.4892L74.5212 53.5472L75.1785 51.3242C75.5458 50.1063 75.913 48.9851 75.9904 48.8498C76.087 48.7145 76.1643 49.6617 76.1643 51.0535V53.5279H76.9376H77.7108V50.145V46.7621H76.4543H75.2171L74.4632 49.1204L73.7093 51.4981L72.9554 49.1204L72.2208 46.7621H71.003H69.7852V50.145Z" fill="#28F6BC"/>
<path d="M79.2559 50.145V53.5279H80.1257H80.9956V50.7249V47.9219H82.6388H84.2819V50.7249V53.5279H85.0551H85.8284V50.145V46.7621H82.5421H79.2559V50.145Z" fill="#28F6BC"/>
<path d="M87.7617 50.145V53.5279H89.9848C92.4978 53.5279 93.1744 53.3152 93.6576 52.368C94.0249 51.6721 94.0249 51.1502 93.677 50.4543C93.1937 49.5457 92.8457 49.3911 91.0673 49.2751L89.4048 49.1784L89.3468 47.9606L89.2889 46.7621H88.535H87.7617V50.145ZM91.8985 50.6089C92.3431 50.9762 92.2851 51.9234 91.8405 52.1747C91.6279 52.2714 90.9706 52.368 90.3907 52.368H89.3082V51.4401C89.3082 50.9182 89.3662 50.4349 89.4628 50.3576C89.6755 50.1256 91.5699 50.3383 91.8985 50.6089Z" fill="#28F6BC"/>
<path d="M105.547 47.342C105.547 47.9026 105.566 47.9026 106.765 47.9606L107.963 48.0186L108.021 50.7636L108.079 53.5279H108.833H109.606V50.7249V47.9219H110.863H112.119V47.342V46.7621H108.833H105.547V47.342Z" fill="#28F6BC"/>
<path d="M113.277 50.145V53.5279H116.37H119.463V52.9479V52.368H117.144H114.824V51.4981V50.6476L116.815 50.5896L118.787 50.5316L118.845 50.0096L118.903 49.4877L116.912 49.4297L114.92 49.3717L114.862 48.6565L114.804 47.9412L116.989 47.8833L119.173 47.8253L119.231 47.284L119.289 46.7621H116.293H113.277V50.145Z" fill="#28F6BC"/>
<path d="M120.816 50.145V53.5279H121.686H122.556V52.2714V51.0149H124.064C125.572 51.0149 126.19 50.8022 126.751 50.0483C127.138 49.5457 127.196 48.6951 126.925 48.0186C126.48 46.9747 125.823 46.7621 123.136 46.7621H120.816V50.145ZM125.185 48.1346C125.514 48.4052 125.533 48.9658 125.263 49.4877C125.089 49.797 124.837 49.855 123.813 49.855H122.556V48.7725V47.6706L123.735 47.8059C124.393 47.8639 125.05 48.0186 125.185 48.1346Z" fill="#28F6BC"/>
<path d="M128.551 50.145V53.5279H129.324H130.097V51.9814V50.4349H131.74H133.383V51.9814V53.5279H134.253H135.123V50.145V46.7621H134.253H133.383V48.0186V49.2751H131.74H130.097V48.0186V46.7621H129.324H128.551V50.145Z" fill="#28F6BC"/>
<path d="M136.863 50.1643V53.5665L139.396 53.4892L141.928 53.4312L142.489 52.7933C143.262 51.9234 143.262 50.8795 142.489 50.0097C141.947 49.3911 141.851 49.3717 140.208 49.2751L138.506 49.1784L138.448 47.9606L138.39 46.7621H137.637H136.863V50.1643ZM140.787 50.4156C141.425 50.6669 141.638 51.5175 141.193 52.0007C140.942 52.2907 140.594 52.368 139.628 52.368H138.41V51.4401C138.41 50.9182 138.468 50.4349 138.545 50.3769C138.738 50.1836 140.246 50.2223 140.787 50.4156Z" fill="#28F6BC"/>
<path d="M144.207 50.145V53.5279H145.077H145.947V50.145V46.7621H145.077H144.207V50.145Z" fill="#28F6BC"/>
<path d="M147.688 50.145V53.5279H148.519L149.331 53.5085L150.974 51.0728L152.617 48.6372L152.675 51.0922L152.733 53.5279H153.487H154.26V50.145V46.7621H153.351H152.424L150.877 49.0818C150.027 50.3383 149.273 51.3821 149.195 51.4015C149.099 51.4015 149.041 50.3576 149.041 49.0818V46.7621H148.364H147.688V50.145Z" fill="#28F6BC"/>
<path d="M54.7828 56.0022C52.4051 57.1234 52.1732 60.6803 54.3769 62.3041C54.8408 62.6327 55.2081 62.71 56.5419 62.71C58.3397 62.71 58.8616 62.4587 59.6929 61.2602C60.2728 60.4097 60.2341 60.2937 59.4222 60.2937C58.9003 60.2937 58.591 60.4483 58.1077 60.9702C57.5665 61.5308 57.3345 61.6468 56.6579 61.6468C55.1501 61.6468 54.1836 60.0424 54.6862 58.3799C54.9761 57.394 55.4787 56.9881 56.5226 56.8721C57.2958 56.7754 57.4505 56.8334 57.9918 57.3747C58.475 57.8386 58.765 57.974 59.3642 57.974C59.7702 57.974 60.1182 57.916 60.1182 57.8193C60.1182 57.4327 59.2869 56.4082 58.7263 56.1182C57.7405 55.6156 55.7494 55.5576 54.7828 56.0022Z" fill="#28F6BC"/>
<path d="M63.404 58.4959C64.9312 60.8736 65.0858 61.1829 64.7959 61.4149C64.6219 61.5308 64.2739 61.6468 64.0226 61.6468C63.636 61.6468 63.578 61.7242 63.636 62.1688C63.694 62.6327 63.7907 62.71 64.3706 62.768C65.6464 62.8647 66.1297 62.3427 67.7921 59.0952C68.6234 57.4714 69.3386 56.0795 69.3579 56.0022C69.3966 55.9056 69.01 55.8476 68.4881 55.8476H67.5408L66.7676 57.684C66.3617 58.6892 65.9557 59.5204 65.8784 59.5204C65.8011 59.5204 65.2791 58.6892 64.7185 57.684L63.694 55.8476H62.6888H61.6836L63.404 58.4959Z" fill="#28F6BC"/>
<path d="M71.9102 59.2305V62.6134H72.6834H73.4566V59.8104V57.0074H75.0997H76.7429V59.8104V62.6134H77.6128H78.4826V59.2305V55.8476H75.1964H71.9102V59.2305Z" fill="#28F6BC"/>
<path d="M81.5742 59.2305V62.6134H84.6672H87.7601V62.0334V61.4535H85.537H83.314V60.5836V59.7331L85.3051 59.6751L87.2768 59.6171L87.3348 59.0758L87.3928 58.5539H85.3631H83.314V57.7807V57.0074H85.4404H87.5668V56.4275V55.8476H84.5705H81.5742V59.2305Z" fill="#28F6BC"/>
<path d="M90.6602 59.2305V62.6134H91.53H92.3999V61.3569V60.1004H93.8497C96.0341 60.1004 96.9427 59.4238 96.904 57.8966C96.8654 56.2729 96.0341 55.8476 92.8832 55.8476H90.6602V59.2305ZM94.9903 57.2587C95.4929 57.626 95.3382 58.5732 94.7196 58.8825C94.449 59.0178 93.8304 59.1338 93.3278 59.1338H92.3999V58.0706V57.0074H93.5211C94.1397 57.0074 94.797 57.1234 94.9903 57.2587Z" fill="#28F6BC"/>
<path d="M99.748 59.2305V62.6134H100.521H101.275L101.333 60.255L101.391 57.8773L102.068 60.197L102.764 62.5167L103.634 62.5747L104.503 62.6327L105.141 60.4483C105.489 59.2498 105.857 58.1286 105.953 57.974C106.05 57.8 106.127 58.7086 106.127 60.139V62.6134H106.9H107.674V59.2305V55.8476H106.417H105.18L104.465 58.1673C104.059 59.4431 103.692 60.429 103.614 60.3517C103.537 60.255 103.189 59.2112 102.822 58.0126L102.164 55.8476H100.966H99.748V59.2305Z" fill="#28F6BC"/>
<path d="M111.637 59.0565C110.902 60.8349 110.264 62.3427 110.225 62.4394C110.187 62.536 110.554 62.6134 111.037 62.6134C111.849 62.6134 111.907 62.5747 112.139 61.9368L112.391 61.2602H113.976H115.561L115.793 61.9368C116.005 62.5747 116.063 62.6134 116.875 62.6134C117.339 62.6134 117.726 62.5747 117.726 62.5167C117.726 62.4587 117.146 61.0476 116.45 59.3658C115.754 57.7033 115.135 56.2149 115.077 56.0795C115.02 55.9442 114.594 55.8476 113.976 55.8476H112.99L111.637 59.0565ZM114.498 58.5539C114.652 59.0372 114.846 59.5784 114.923 59.7524C115.039 60.0617 114.923 60.1004 113.956 60.1004C112.99 60.1004 112.874 60.0617 112.99 59.7524C113.067 59.5784 113.299 58.9598 113.531 58.3992C113.744 57.8387 113.976 57.452 114.053 57.5294C114.13 57.6067 114.324 58.0706 114.498 58.5539Z" fill="#28F6BC"/>
<path d="M120.43 59.2111V62.6134H121.3H122.169V61.3569V60.1004H123.735C125.262 60.1004 125.32 60.081 125.958 59.4431C126.848 58.5539 126.886 57.4907 126.055 56.5821L125.494 55.9442L122.962 55.8862L120.43 55.8089V59.2111ZM124.76 57.3167C125.146 57.684 125.146 58.1673 124.798 58.6505C124.605 58.9018 124.219 59.0372 123.349 59.0952L122.169 59.1725V58.09V57.0074H123.31C124.103 57.0074 124.566 57.1041 124.76 57.3167Z" fill="#28F6BC"/>
<path d="M129.711 59.2305V62.6134H130.484H131.257V61.4922C131.257 60.5836 131.335 60.2743 131.663 59.9844C132.108 59.5784 132.011 59.5011 133.867 61.7048C134.621 62.6327 134.66 62.6327 135.646 62.5747L136.67 62.5167L135.027 60.6416C134.118 59.5978 133.384 58.6892 133.403 58.6119C133.403 58.5346 134.099 57.8966 134.93 57.2007L136.457 55.9442L135.491 55.8862C134.563 55.8282 134.447 55.8669 133.461 56.7561C132.862 57.2587 132.127 57.8966 131.818 58.1479L131.257 58.6119V57.2201V55.8476H130.484H129.711V59.2305Z" fill="#28F6BC"/>
<path d="M139.182 59.2305V62.6134H142.275H145.368V62.0334V61.4535H143.048H140.728V60.5836V59.7137H142.758H144.788V59.1338V58.5732L142.816 58.5152L140.825 58.4572L140.767 57.7227L140.709 57.0074H142.932H145.174V56.4275V55.8476H142.178H139.182V59.2305Z" fill="#28F6BC"/>
<path d="M147.494 56.4275V57.0074H148.751H150.007V59.8104V62.6134H150.877H151.747V59.8104V57.0074H153.003H154.26V56.4275V55.8476H150.877H147.494V56.4275Z" fill="#28F6BC"/>
</g>
<defs>
<clipPath id="clip0_227_975">
<rect width="154.647" height="52" fill="white" transform="translate(0 11)"/>
</clipPath>
</defs>
</svg>
