<svg width="154" height="80" viewBox="0 0 154 80" fill="none" xmlns="http://www.w3.org/2000/svg">
<g clip-path="url(#clip0_227_965)">
<mask id="mask0_227_965" style="mask-type:luminance" maskUnits="userSpaceOnUse" x="0" y="16" width="154" height="48">
<path d="M154 16.9288H0V63.0712H154V16.9288Z" fill="white"/>
</mask>
<g mask="url(#mask0_227_965)">
<path d="M153.998 57.7484C153.998 58.8274 153.147 59.6905 152.082 59.6905H117.777C116.713 59.6905 115.861 58.8274 115.861 57.7484V22.7191C115.861 21.6402 116.713 20.777 117.777 20.777H152.065C153.129 20.777 153.98 21.6402 153.98 22.7191L153.998 57.7484Z" fill="#28F6BC"/>
<path d="M120.918 32.1058H129.007C130.762 32.1058 132.093 32.5194 132.962 33.3646C133.831 34.2097 134.274 35.3966 134.274 36.943C134.274 38.5255 133.796 39.7662 132.838 40.6653C131.88 41.5645 130.426 42.014 128.456 42.014H125.796V47.8223H120.918V32.1058ZM125.796 38.8312H127.002C127.942 38.8312 128.616 38.6693 128.989 38.3456C129.361 38.0399 129.556 37.5904 129.556 37.1049C129.574 36.6373 129.397 36.1698 129.06 35.8461C128.723 35.5045 128.102 35.3246 127.197 35.3246H125.796V38.8312ZM135.339 32.1058H140.625L142.807 38.5794L144.953 32.1058H149.902L144.74 44.2438C144.421 44.9991 144.048 45.7363 143.64 46.4376C143.285 46.9591 142.807 47.3727 142.239 47.6244C141.618 47.9301 140.767 48.092 139.685 48.092C139.117 48.092 138.124 48.0021 136.722 47.8402V44.6035C137.556 44.6934 138.142 44.7293 138.532 44.7293C139.649 44.7293 140.341 44.3158 140.59 43.4705L135.339 32.1058Z" fill="#0F1015"/>
<path d="M99.9336 56.0581V43.9921H87.3754V47.4806C87.3754 50.6634 86.9498 53.5226 86.0806 56.0401H84.5371V63.0712H88.2619V59.6546H97.8226V63.0712H101.548V56.0401H99.9336V56.0581ZM95.3038 56.0581H90.5327C91.2422 52.8932 91.579 50.2139 91.579 48.0561V47.8582H95.3038V56.0581Z" fill="#28F6BC"/>
<path d="M79.3227 40.1438C79.1981 41.007 78.7551 41.7802 78.0809 42.3197C76.6262 43.4166 74.6398 43.4166 73.1852 42.3197C72.5109 41.7982 72.0679 41.025 71.9434 40.1618H73.6997C73.9834 41.0609 74.6219 41.4925 75.5799 41.4925C76.6083 41.4925 77.2647 41.043 77.5485 40.1618L79.3227 40.1438Z" fill="#28F6BC"/>
<path d="M82.711 43.9921V59.6725H78.365V51.0591L72.7956 59.6725H68.3965V43.9921H72.7777V52.6594L78.3828 43.9921H82.711Z" fill="#28F6BC"/>
<path d="M53.248 43.9921H65.6468V47.3367H57.8955V49.8363H65.0793V53.0371H57.8955V56.112H65.8775V59.6725H53.248V43.9921Z" fill="#28F6BC"/>
<path d="M49.5936 45.2508C48.7599 44.4236 47.5005 43.9921 45.8154 43.9921H38.1172V59.6725H42.7645V53.8643H45.301C47.1635 53.8643 48.5648 53.4147 49.4694 52.5336C50.374 51.6524 50.8352 50.4117 50.8352 48.8113C50.8352 47.2648 50.4273 46.078 49.5936 45.2508ZM45.7977 50.1959C45.4429 50.5196 44.8044 50.6814 43.8997 50.6814H42.7645V47.1749H44.0949C44.964 47.1749 45.5671 47.3547 45.8686 47.6964C46.1879 48.0381 46.3653 48.4876 46.3475 48.9551C46.3475 49.4227 46.1524 49.8902 45.7977 50.1959Z" fill="#28F6BC"/>
<path d="M21.959 43.9921H36.0606V47.8582H31.3245V59.6725H26.695V47.8582H21.959V43.9921Z" fill="#28F6BC"/>
<path d="M85.8867 20.759H90.5165V26.2256H95.5541V20.759H100.201V36.3855H95.5541V30.0559H90.5165V36.3855H85.8867V20.759Z" fill="#28F6BC"/>
<path d="M79.3946 16.9288C79.2879 17.792 78.8271 18.5652 78.1528 19.0867C77.4613 19.6441 76.5921 19.9498 75.705 19.9139C74.8179 19.9319 73.9487 19.6441 73.2571 19.0867C72.5829 18.5652 72.1399 17.792 72.0332 16.9288H73.7895C74.0733 17.81 74.6939 18.2595 75.6698 18.2595C76.6982 18.2595 77.3546 17.81 77.6383 16.9288H79.3946Z" fill="#28F6BC"/>
<path d="M82.7832 20.759V36.3855H78.4372V27.808L72.8851 36.3855H68.5039V20.759H72.8678V29.4085L78.473 20.759H82.7832Z" fill="#28F6BC"/>
<path d="M61.4264 20.759H56.371L50.748 36.3855H55.4663L56.2113 33.8141H61.4437L62.1889 36.3855H67.0316L61.4264 20.759ZM57.1869 30.4335L58.8188 24.823L60.4505 30.4335H57.1869Z" fill="#28F6BC"/>
<path d="M49.186 36.3855H44.5742V24.6072H40.9556V29.4085C40.9556 31.3865 40.8492 32.8431 40.6541 33.7602C40.4945 34.6233 39.9978 35.3606 39.2528 35.8101C38.5078 36.2417 37.3194 36.4575 35.6875 36.4575C35.1021 36.4575 34.5168 36.4035 33.9492 36.2957V33.1128H34.6409C35.2618 33.1128 35.7052 32.9689 35.9536 32.6812C36.2019 32.3935 36.3438 31.872 36.3438 31.0988V20.759H49.186V36.3855Z" fill="#28F6BC"/>
<path d="M18.0918 20.759H22.7037V26.2256H27.759V20.759H32.3885V36.3855H27.759V30.0559H22.7037V36.3855H18.0918V20.759Z" fill="#28F6BC"/>
<path d="M13.5695 22.5932C12.2214 21.2086 10.3057 20.5073 7.82239 20.5073C5.39231 20.5073 3.49436 21.2086 2.14628 22.6472C0.762727 24.0498 0 26.5313 0 29.0668C0 30.901 0.443446 31.926 1.13522 33.1308C1.73831 34.2637 2.67842 35.1988 3.81364 35.7922C4.91338 36.3496 6.31469 36.6373 7.99975 36.6373C9.68487 36.6373 11.0507 36.3136 12.1504 35.6663C13.2502 35.0369 14.1371 34.0839 14.7047 32.933C15.29 31.7642 15.5915 30.2716 15.5915 28.4374C15.5738 25.9559 14.9175 23.9958 13.5695 22.5932ZM10.1461 32.0159C9.59616 32.6812 8.83343 33.0229 7.84016 33.0229C6.84683 33.0229 6.1018 32.6812 5.55195 31.9979C5.00208 31.3146 4.71827 30.1817 4.71827 28.5993C4.71827 27.0169 5.00208 25.866 5.56968 25.1827C6.11957 24.4993 6.95324 24.1217 7.82239 24.1577C8.79796 24.1577 9.56069 24.4993 10.1283 25.1827C10.6959 25.866 10.9797 26.9269 10.9797 28.4015C10.962 30.1278 10.6959 31.3506 10.1461 32.0159Z" fill="#28F6BC"/>
<path fill-rule="evenodd" clip-rule="evenodd" d="M108.023 37.6263C109.406 37.6263 110.541 38.7772 110.541 40.1798C110.541 41.5824 109.406 42.7333 108.023 42.7333C106.639 42.7333 105.504 41.5824 105.504 40.1798C105.504 38.7772 106.621 37.6263 108.023 37.6263Z" fill="#28F6BC"/>
<path fill-rule="evenodd" clip-rule="evenodd" d="M108.023 34.8931C108.52 34.8931 109.016 35.0009 109.46 35.2168V21.5683C109.46 20.831 108.874 20.777 108.147 20.777H107.881C107.154 20.777 106.568 20.831 106.568 21.5683V35.2168C107.029 35.0009 107.526 34.8931 108.023 34.8931Z" fill="#28F6BC"/>
<path fill-rule="evenodd" clip-rule="evenodd" d="M108.023 45.5565C107.526 45.5565 107.029 45.4486 106.586 45.2328V58.8453C106.586 59.5826 107.171 59.6725 107.898 59.6725H108.165C108.891 59.6725 109.477 59.5646 109.477 58.8453V45.2328C109.016 45.4486 108.519 45.5565 108.023 45.5565Z" fill="#28F6BC"/>
</g>
</g>
<defs>
<clipPath id="clip0_227_965">
<rect width="154" height="46.1423" fill="white" transform="translate(0 16.9288)"/>
</clipPath>
</defs>
</svg>
