<svg width="137" height="80" viewBox="0 0 137 80" fill="none" xmlns="http://www.w3.org/2000/svg">
<g clip-path="url(#clip0_227_948)">
<g clip-path="url(#clip1_227_948)">
<path fill-rule="evenodd" clip-rule="evenodd" d="M16.8388 25.0818C13.7577 24.7573 10.6516 25.395 7.94761 26.9073C5.24361 28.4196 3.07439 30.7323 1.7381 33.5275C0.401812 36.3227 -0.0359364 39.4632 0.485022 42.5173C1.00598 45.5713 2.46007 48.3891 4.64743 50.5832C6.83479 52.7774 9.64804 54.2402 12.7005 54.7706C15.7529 55.301 18.8947 54.8729 21.694 53.5453C24.4934 52.2177 26.8127 50.0556 28.3334 47.3563C29.8541 44.657 30.5014 41.5529 30.1864 38.4708C29.8397 35.0448 28.3232 31.8429 25.892 29.4042C23.4609 26.9656 20.2637 25.4391 16.8388 25.0818ZM16.3528 47.9317C14.6957 48.154 13.0106 47.8515 11.5343 47.0666C10.058 46.2817 8.86471 45.054 8.1222 43.556C7.37969 42.0579 7.12526 40.3648 7.39467 38.7147C7.66408 37.0646 8.44378 35.5404 9.62419 34.3562C10.8046 33.1721 12.3264 32.3877 13.9757 32.1131C15.6249 31.8385 17.3188 32.0877 18.8192 32.8255C20.3195 33.5633 21.551 34.7527 22.3405 36.2266C23.13 37.7004 23.4378 39.3846 23.2206 41.0424C22.9928 42.7861 22.1964 44.4061 20.9549 45.6516C19.7134 46.897 18.0959 47.6984 16.3528 47.9317ZM38.2073 25.6751C37.6872 25.6763 37.1739 25.7935 36.7048 26.0181C36.2356 26.2427 35.8225 26.5691 35.4953 26.9735C35.1682 27.3778 34.9354 27.8501 34.8137 28.3558C34.6921 28.8615 34.6847 29.3879 34.7921 29.8968C35.1212 31.5455 36.6611 32.672 38.3387 32.672H48.074L32.9237 52.7215C32.8116 52.8695 32.743 53.0458 32.7255 53.2306C32.7081 53.4154 32.7424 53.6015 32.8247 53.7679C32.9071 53.9343 33.0341 54.0744 33.1916 54.1727C33.3492 54.2709 33.5309 54.3233 33.7166 54.324H57.4814C59.1579 54.324 60.699 53.1978 61.028 51.5488C61.1355 51.04 61.1282 50.5136 61.0066 50.008C60.8851 49.5023 60.6523 49.0301 60.3254 48.6257C59.9984 48.2213 59.5854 47.8949 59.1164 47.6701C58.6475 47.4454 58.1343 47.328 57.6142 47.3265H45.7525L60.8912 27.2927C61.0044 27.1432 61.0737 26.9652 61.0913 26.7786C61.1089 26.5919 61.0741 26.4041 60.9909 26.2361C60.9077 26.0681 60.7794 25.9267 60.6203 25.8276C60.4611 25.7285 60.2776 25.6757 60.0901 25.6751H38.2073ZM133.17 25.7558C132.383 25.9429 131.684 26.3929 131.188 27.0314C130.691 27.6699 130.428 28.4587 130.441 29.2673V40.9169L111.564 25.8951C111.416 25.7776 111.237 25.7043 111.05 25.6836C110.862 25.6629 110.672 25.6956 110.502 25.778C110.332 25.8604 110.188 25.9892 110.088 26.1495C109.988 26.3098 109.935 26.4951 109.936 26.6841V50.7381C109.923 51.5467 110.186 52.3355 110.683 52.974C111.179 53.6125 111.878 54.0625 112.665 54.2495C113.176 54.362 113.706 54.3583 114.215 54.2387C114.724 54.1191 115.2 53.8867 115.608 53.5587C116.015 53.2306 116.344 52.8153 116.57 52.3433C116.795 51.8713 116.912 51.3546 116.911 50.8315V39.0811L135.788 54.1031C135.936 54.2206 136.114 54.2939 136.302 54.3146C136.49 54.3353 136.68 54.3025 136.85 54.2201C137.02 54.1378 137.163 54.0091 137.263 53.8488C137.363 53.6886 137.416 53.5034 137.416 53.3145V29.1727C137.416 28.6497 137.299 28.1332 137.074 27.6614C136.848 27.1896 136.519 26.7744 136.112 26.4465C135.705 26.1185 135.229 25.8863 134.72 25.7667C134.21 25.6472 133.681 25.6435 133.17 25.7558ZM84.0201 32.0023C92.0044 32.0023 97.9703 36.2217 97.9703 39.996C97.9703 43.7703 92.0044 47.9898 84.0201 47.9898C76.0357 47.9898 70.0698 43.7703 70.0698 39.996C70.0698 36.2217 76.0357 32.0023 84.0201 32.0023ZM84.0201 25.0057C72.463 25.0057 63.0944 31.7171 63.0944 39.996C63.0944 48.2749 72.463 54.9864 84.0201 54.9864C95.5771 54.9864 104.945 48.2749 104.945 39.996C104.945 31.7171 95.5768 25.0057 84.0201 25.0057Z" fill="#28F6BC"/>
</g>
</g>
<defs>
<clipPath id="clip0_227_948">
<rect width="137" height="80" fill="white"/>
</clipPath>
<clipPath id="clip1_227_948">
<rect width="137.053" height="30" fill="white" transform="translate(0.363281 25)"/>
</clipPath>
</defs>
</svg>
