<svg width="18" height="20" viewBox="0 0 18 20" fill="none" xmlns="http://www.w3.org/2000/svg">
<path d="M9.01807 0C6.77807 1.111 5 2 0 3C0 4.137 0 7.70192 0 8.88892C0 15.5559 5.667 18.889 9 20C12.333 18.889 18 15.5559 18 8.88892C18 7.66392 18 4.194 18 3C13 2 11.2221 1.111 9.01807 0ZM12.542 8.53003L8.54199 12.53C8.39599 12.676 8.20396 12.75 8.01196 12.75C7.81996 12.75 7.62793 12.677 7.48193 12.53L5.48193 10.53C5.18893 10.237 5.18893 9.76199 5.48193 9.46899C5.77493 9.17599 6.24997 9.17599 6.54297 9.46899L8.01294 10.939L11.4829 7.46899C11.7759 7.17599 12.2509 7.17599 12.5439 7.46899C12.8369 7.76199 12.835 8.23703 12.542 8.53003Z" fill="#28F6BC"/>
</svg>
