<svg width="80" height="80" viewBox="0 0 80 80" fill="none" xmlns="http://www.w3.org/2000/svg">
<path d="M64.1014 23.771C60.7942 23.771 57.8041 24.7758 55.2541 26.5015V10.75H48.1994V39.7995C48.1994 48.6376 55.3316 55.75 64.0592 55.75C72.7868 55.75 80 48.6802 80 39.7179C80 30.7555 72.9454 23.7674 64.0979 23.7674L64.1014 23.771ZM32.0824 41.8519L25.6264 24.8967H20.685L14.1904 41.8519L7.69572 24.8967H0L11.3587 54.7096H16.3001L23.1152 36.9518L29.9692 54.7096H34.9106L46.2305 24.8967H38.5771L32.0824 41.8519ZM64.0627 48.6412C59.2798 48.6412 55.2541 44.785 55.2541 39.7605C55.2541 34.7361 59.0402 30.9224 64.1014 30.9224C69.1626 30.9224 72.9488 34.8994 72.9488 39.7605C72.9488 44.6217 68.9231 48.6412 64.0627 48.6412Z" fill="#28F6BC"/>
</svg>
