<svg width="260" height="80" viewBox="0 0 260 80" fill="none" xmlns="http://www.w3.org/2000/svg">
<g clip-path="url(#clip0_227_961)">
<mask id="mask0_227_961" style="mask-type:luminance" maskUnits="userSpaceOnUse" x="0" y="17" width="46" height="46">
<path d="M0 17H46V63H0V17Z" fill="white"/>
</mask>
<g mask="url(#mask0_227_961)">
<path d="M23 63C35.7025 63 46 52.7025 46 40C46 27.2975 35.7025 17 23 17C10.2975 17 0 27.2975 0 40C0 52.7025 10.2975 63 23 63Z" fill="#28F6BC"/>
<path d="M26.7273 54.49V29.8647H23.8385C21.7563 29.8647 20.1769 30.3063 19.1036 31.191C18.0303 32.0435 17.4936 33.1797 17.4936 34.6011C17.4936 35.6745 17.6822 36.5899 18.0609 37.3473C18.4397 38.1048 18.9932 38.7994 19.7185 39.4311C20.4453 40.0629 21.3607 40.7575 22.4662 41.5149L25.2124 43.3611L17.1624 54.4915H11.0996L18.7724 44.0725L22.3711 47.2925L19.5299 45.4924C18.1012 44.5644 16.7402 43.536 15.4573 42.415C14.3196 41.403 13.4517 40.299 12.8522 39.0999C12.2527 37.8993 11.9521 36.4948 11.9521 34.8848C11.9521 32.1064 12.9473 29.8647 14.936 28.1596C16.9569 26.4239 19.9086 25.556 23.791 25.556H32.3623V54.49H26.7273Z" fill="#0F1015"/>
</g>
<path d="M53.6695 54.49L67.9709 25.556H78.8622L81.0886 43.1725L92.1224 25.5545H102.92V54.49H92.3601V38.9573L82.556 54.49H71.9959L69.9612 38.8147L62.1933 54.49H53.6695ZM135.359 48.7599C135.359 49.7397 135.376 50.7027 135.407 51.6487C135.439 52.5963 135.502 53.5271 135.597 54.4425H125.793C125.56 53.9878 125.37 53.5125 125.226 53.0226C125.032 52.3742 124.906 51.7079 124.847 51.0339C123.836 52.2329 122.558 53.2265 121.01 54.0162C119.495 54.7752 117.332 55.1539 114.523 55.1539C111.682 55.1539 109.408 54.49 107.703 53.1652C106.03 51.8389 105.194 50.0709 105.194 47.8599C105.194 45.8083 105.777 44.2305 106.945 43.1249C108.146 41.9887 110.007 41.1991 112.534 40.7575C115.06 40.2821 118.295 40.046 122.242 40.046H124.704V39.5247C124.704 38.5157 124.278 37.7414 123.425 37.2047C122.573 36.6681 120.978 36.3997 118.643 36.3997C116.338 36.3997 114.192 36.7003 112.201 37.2998C110.245 37.8671 108.65 38.436 107.419 39.0049V32.6584C108.808 32.1524 110.671 31.6479 113.008 31.1435C115.375 30.6068 118.074 30.3385 121.106 30.3385C124.168 30.3385 126.756 30.6221 128.872 31.191C130.988 31.7277 132.598 32.6584 133.702 33.9847C134.807 35.2789 135.359 37.079 135.359 39.3836V48.7599ZM138.579 31.0499H148.383L148.951 35.0734C150.151 33.4956 151.587 32.3441 153.261 31.6173C154.934 30.8905 156.86 30.5286 159.039 30.5286C161.501 30.5286 163.711 30.9702 165.669 31.8534C167.583 32.7011 169.2 34.1037 170.309 35.8799C171.446 37.6785 172.014 39.9525 172.014 42.6987C172.014 45.4449 171.446 47.7341 170.309 49.5649C169.205 51.3651 167.658 52.7236 165.669 53.6375C163.679 54.5544 161.406 55.0113 158.848 55.0113C157.018 55.023 155.201 54.6852 153.497 54.0162C151.855 53.3231 150.435 52.2329 149.236 50.7502V60.6003H138.579V31.0484V31.0499ZM202.89 42.6987C202.89 40.3619 203.522 38.2781 204.786 36.4473C206.08 34.6165 207.911 33.1813 210.278 32.1386C212.678 31.0653 215.504 30.5286 218.756 30.5286C222.134 30.5286 224.96 31.1113 227.232 32.2797C229.537 33.4481 231.147 35.1056 232.062 37.2523C233.01 39.3989 233.135 41.9412 232.441 44.8775H213.736C214.114 46.2345 214.952 47.2603 216.246 47.9549C217.572 48.6189 219.529 48.9501 222.117 48.9501C223.917 48.9501 225.59 48.7921 227.137 48.4747C228.593 48.1532 230.031 47.7586 231.447 47.2925V52.9275C230.089 53.5593 228.574 54.0637 226.901 54.4425C225.259 54.8212 223.097 55.0113 220.413 55.0113C214.508 55.0113 210.105 53.9227 207.201 51.7438C204.327 49.5343 202.89 46.5197 202.89 42.6987ZM233.341 31.0484H260.383V37.1112H251.952V54.4425H241.297V37.1112H233.341V31.0484ZM174.05 31.0484H184.705V41.656L194.793 31.0484H203.981L194.603 40.8035L205.922 54.4425H193.04L184.705 44.1185V54.4425H174.05V31.0484ZM218.803 35.8324C217.35 35.8324 216.198 36.2587 215.346 37.1112C214.493 37.9315 213.941 38.9895 213.688 40.2837H223.064C223.034 38.9895 222.686 37.9315 222.023 37.1097C221.359 36.2587 220.286 35.8324 218.803 35.8324ZM161.122 42.6987C161.122 40.8035 160.601 39.3039 159.558 38.1999C158.55 37.0637 157.096 36.4948 155.202 36.4948C153.467 36.4948 152.013 37.0315 150.846 38.1048C149.678 39.1475 149.093 40.6777 149.093 42.6987C149.093 44.7196 149.661 46.2821 150.798 47.3876C151.967 48.4609 153.434 48.9976 155.202 48.9976C157.16 48.9976 158.628 48.4287 159.606 47.2925C160.616 46.1563 161.122 44.6245 161.122 42.6987ZM124.704 44.3547H122.289C119.985 44.3547 118.327 44.5463 117.317 44.9251C116.338 45.3038 115.849 46.0291 115.849 47.1024C115.849 48.0178 116.165 48.6971 116.795 49.1387C117.459 49.5496 118.247 49.7551 119.164 49.7551C120.553 49.7551 121.69 49.5021 122.573 48.9976C123.488 48.4609 124.2 47.8445 124.704 47.1499V44.3547Z" fill="#28F6BC"/>
</g>
<defs>
<clipPath id="clip0_227_961">
<rect width="260" height="80" fill="white"/>
</clipPath>
</defs>
</svg>
